<svg width="21" height="21" viewBox="0 0 21 21" fill="none" xmlns="http://www.w3.org/2000/svg">
<circle cx="10.4754" cy="10.4754" r="9.99928" stroke="black" stroke-width="0.952312"/>
<path d="M15.053 14.0726L13.0035 11.0346C12.9553 10.9622 12.883 10.8899 12.8106 10.8417L12.6419 10.7211C12.449 10.5764 12.449 10.3112 12.6419 10.1666L12.7865 10.0701C12.8589 10.0219 12.9312 9.94955 12.9794 9.87721L15.0771 6.88741C15.2459 6.62218 15.27 6.28463 15.0771 6.04351C14.836 5.73006 14.402 5.65773 14.0885 5.87473L11.0505 7.9242C10.9782 7.97242 10.9058 8.04475 10.8576 8.11709L10.7371 8.28587C10.5924 8.47876 10.3272 8.47876 10.1825 8.28587L10.0861 8.1412C10.0378 8.06886 9.9655 7.99653 9.89317 7.94831L6.90336 5.85062C6.63813 5.68184 6.30057 5.65773 6.05946 5.85062C5.74601 6.09173 5.67368 6.52574 5.89068 6.83919L7.94015 9.87721C7.98837 9.94955 8.0607 10.0219 8.13304 10.0701L8.30182 10.1907C8.49471 10.3353 8.49471 10.6006 8.30182 10.7452L8.15715 10.8417C8.08481 10.8899 8.01248 10.9622 7.96426 11.0346L5.84246 14.0485C5.64957 14.3378 5.67368 14.7236 5.9148 14.9647C6.15591 15.2058 6.54169 15.254 6.83102 15.0612L9.86905 13.0117C9.94139 12.9635 10.0137 12.8911 10.0619 12.8188L10.1825 12.65C10.3272 12.4571 10.5924 12.4571 10.7371 12.65L10.8335 12.7947C10.8817 12.867 10.9541 12.9394 11.0264 12.9876L14.0644 15.1094C14.3538 15.3023 14.7395 15.2782 14.9807 15.037C15.2218 14.7477 15.2459 14.3619 15.053 14.0726Z" fill="black"/>
</svg>
