<svg width="14" height="13" viewBox="0 0 14 13" fill="none" xmlns="http://www.w3.org/2000/svg">
<path fill-rule="evenodd" clip-rule="evenodd" d="M8.29156 0.679102C7.48478 -0.0831381 6.22331 -0.0831381 5.41652 0.679102C5.18754 0.895435 5.02512 1.22408 4.87499 1.58714C4.719 1.96439 4.54131 2.4721 4.31462 3.11976L4.21278 3.41074C4.20061 3.44553 4.19318 3.46672 4.18752 3.48222L4.18354 3.49292C4.18041 3.49902 4.17737 3.50193 4.17493 3.50381C4.17139 3.50655 4.16611 3.50924 4.15936 3.51058C4.15261 3.51192 4.14669 3.51147 4.14238 3.5103C4.13941 3.50949 4.13548 3.50797 4.13026 3.50354L4.12248 3.49517C4.11131 3.48303 4.09634 3.4663 4.07176 3.43883L4.01403 3.37431C3.74792 3.07678 3.57589 2.88445 3.4848 2.80364C1.98313 1.47143 -0.351042 2.81224 0.0431946 4.78057C0.067107 4.89997 0.146586 5.14549 0.269519 5.52525L1.28002 8.6487C1.41084 9.05415 1.51317 9.37132 1.6999 9.62634C1.93993 9.95416 2.2763 10.1988 2.66208 10.3263C2.9622 10.4255 3.29544 10.4252 3.72148 10.4249H9.98658C10.4127 10.4252 10.7459 10.4255 11.046 10.3263C11.4318 10.1988 11.7682 9.95416 12.0082 9.62634C12.1949 9.37132 12.2973 9.05415 12.4281 8.6487L13.4386 5.52525C13.5615 5.14549 13.641 4.89997 13.6649 4.78057C14.0591 2.81224 11.725 1.47143 10.2233 2.80364C10.1323 2.88443 9.96025 3.07672 9.69417 3.37415L9.63633 3.43883C9.61178 3.4663 9.59681 3.48303 9.5856 3.49517L9.57787 3.50354C9.57262 3.50797 9.56871 3.50949 9.56573 3.5103C9.5614 3.51147 9.55552 3.51192 9.5487 3.51058C9.54196 3.50924 9.53671 3.50655 9.53316 3.50381C9.53075 3.50193 9.5277 3.49902 9.52458 3.49292L9.52061 3.48222C9.51493 3.46672 9.50748 3.44553 9.49534 3.41074L9.39345 3.1197C9.16681 2.47207 8.98907 1.96437 8.8331 1.58714C8.68296 1.22408 8.52054 0.895435 8.29156 0.679102ZM5.25752 7.76387C5.25752 7.46996 5.49579 7.23169 5.78969 7.23169H7.9184C8.2123 7.23169 8.45057 7.46996 8.45057 7.76387C8.45057 8.05777 8.2123 8.29604 7.9184 8.29604H5.78969C5.49579 8.29604 5.25752 8.05777 5.25752 7.76387Z" fill="url(#paint0_linear_3789_12781)"/>
<path d="M2.24214 11.1348C1.94823 11.1348 1.70996 11.373 1.70996 11.6669C1.70996 11.9608 1.94823 12.1991 2.24214 12.1991H11.4665C11.7604 12.1991 11.9987 11.9608 11.9987 11.6669C11.9987 11.373 11.7604 11.1348 11.4665 11.1348H2.24214Z" fill="#FABE2C"/>
<defs>
<linearGradient id="paint0_linear_3789_12781" x1="6.85405" y1="0.107422" x2="6.85405" y2="10.4249" gradientUnits="userSpaceOnUse">
<stop stop-color="#FED843"/>
<stop offset="1" stop-color="#FF9100"/>
</linearGradient>
</defs>
</svg>
