<svg width="23" height="28" viewBox="0 0 23 28" fill="none" xmlns="http://www.w3.org/2000/svg">
<path fill-rule="evenodd" clip-rule="evenodd" d="M7.53445 0.832031C7.69 0.832031 7.84711 0.878698 7.99178 0.972031C8.28033 1.15714 8.47633 1.51648 8.47789 1.91859V1.92403C8.4779 1.9848 8.49199 2.04475 8.51904 2.09916C8.5461 2.15358 8.58539 2.20099 8.63383 2.23768C8.68228 2.27437 8.73856 2.29935 8.79827 2.31065C8.85798 2.32195 8.9195 2.31926 8.978 2.30281C8.99039 2.29869 9.00259 2.29402 9.01456 2.28881C9.0993 2.2545 9.16924 2.19144 9.21211 2.1107C9.24242 2.05319 9.25793 1.98904 9.25722 1.92403L9.25567 1.91859C9.258 1.51725 9.45322 1.15636 9.74178 0.972031C10.0327 0.785365 10.3663 0.785365 10.6564 0.972031C10.9466 1.15792 11.1426 1.52036 11.1426 1.92403C11.1422 1.93336 11.1422 1.9427 11.1426 1.95203C11.1472 2.03035 11.1754 2.10544 11.2234 2.16748C11.2733 2.2322 11.3423 2.27957 11.4206 2.30286C11.4989 2.32616 11.5826 2.32419 11.6597 2.29725C11.7369 2.2703 11.8036 2.21974 11.8503 2.15275C11.8971 2.08575 11.9216 2.00573 11.9203 1.92403C11.9203 1.52036 12.1179 1.15792 12.408 0.972031C12.6981 0.785365 13.031 0.785365 13.3211 0.972031C13.6089 1.15559 13.8033 1.51336 13.8072 1.91236L13.8057 1.92403C13.8054 2.02702 13.8455 2.12602 13.9173 2.19985C13.9891 2.27369 14.0869 2.3165 14.1899 2.31914C14.2416 2.31966 14.2929 2.30987 14.3408 2.29036L14.3439 2.28881C14.4158 2.25873 14.4772 2.20805 14.5204 2.14314C14.5636 2.07823 14.5866 2.00199 14.5866 1.92403L14.585 1.91236C14.5889 1.51336 14.7841 1.15559 15.0711 0.971253C15.3612 0.786142 15.6933 0.786142 15.9842 0.971253C16.2712 1.15559 16.4657 1.51259 16.4703 1.91081C16.4626 3.0837 15.9881 4.2107 15.1333 5.09503H7.93033C7.07633 4.2107 6.60111 3.0837 6.59411 1.91081C6.598 1.51259 6.79322 1.15559 7.08022 0.972031C7.22489 0.878698 7.37967 0.832031 7.536 0.832031H7.53445ZM8.42033 5.87203H14.6939V6.8707H8.42033V5.87203ZM8.25156 7.64848H14.8113C21.0686 12.8658 22.6879 17.6056 22.6879 21.1398V21.5466C22.6879 23.0609 21.6169 24.4788 19.7588 25.5436C17.9007 26.6076 15.2881 27.2827 12.387 27.2827H10.6759C7.77478 27.2827 5.16145 26.6076 3.30411 25.5436C1.446 24.4788 0.375 23.0609 0.375 21.5466V21.1398C0.375 17.6056 1.99433 12.8658 8.25156 7.64848ZM11.5159 12.5049C8.29356 12.5049 5.69811 15.1237 5.69811 18.3367C5.69811 21.5505 8.29356 24.1716 11.5159 24.1716C14.7382 24.1716 17.3648 21.5536 17.3648 18.3367C17.3644 18.2851 17.3539 18.2341 17.3337 18.1866C17.2497 15.0444 14.6846 12.5049 11.5159 12.5049ZM11.5159 13.2827C14.3182 13.2827 16.587 15.5437 16.587 18.3367C16.587 21.1305 14.3182 23.3938 11.5159 23.3938C10.8524 23.3945 10.1953 23.2641 9.58235 23.01C8.96943 22.7559 8.41277 22.3832 7.9444 21.9132C7.47602 21.4432 7.10516 20.8853 6.85314 20.2715C6.60113 19.6577 6.47292 19.0002 6.47589 18.3367C6.47302 17.6734 6.60132 17.016 6.85341 16.4025C7.10551 15.7889 7.47642 15.2312 7.94481 14.7615C8.41321 14.2918 8.96985 13.9194 9.58271 13.6656C10.1956 13.4118 10.8526 13.2817 11.5159 13.2827ZM9.587 15.6145V15.6223H9.57067V16.4H10.3679C11.0936 16.4 11.4614 16.743 11.5937 17.17H9.587V17.9478H11.5937C11.4614 18.3748 11.0943 18.7194 10.3679 18.7194H10.0941L10.0894 18.7147L10.0856 18.7194H9.56989V19.4971H9.77678L12.1723 21.8383L12.7168 21.2821L10.8423 19.4505C11.2194 19.3797 11.5673 19.1995 11.8425 18.9322C12.1178 18.665 12.3082 18.3226 12.3901 17.9478H13.451V17.17H12.3901C12.326 16.8859 12.1984 16.62 12.0168 16.3923H13.451V15.6145H9.587Z" fill="white"/>
</svg>
