<svg width="18" height="16" viewBox="0 0 18 16" fill="none" xmlns="http://www.w3.org/2000/svg">
<path d="M1 13H9.1C9.5 14.7 11.1 16 13 16C14.9 16 16.4 14.7 16.9 13H17C17.6 13 18 12.6 18 12C18 11.4 17.6 11 17 11H16.9C16.5 9.3 14.9 8 13 8C11.1 8 9.6 9.3 9.1 11H1C0.4 11 0 11.4 0 12C0 12.6 0.4 13 1 13ZM13 10C14.1 10 15 10.9 15 12C15 13.1 14.1 14 13 14C11.9 14 11 13.1 11 12C11 10.9 11.9 10 13 10ZM1 5H1.1C1.5 6.7 3.1 8 5 8C6.9 8 8.4 6.7 8.9 5H17C17.6 5 18 4.6 18 4C18 3.4 17.6 3 17 3H8.9C8.5 1.3 6.9 0 5 0C3.1 0 1.6 1.3 1.1 3H1C0.4 3 0 3.4 0 4C0 4.6 0.4 5 1 5ZM5 2C6.1 2 7 2.9 7 4C7 5.1 6.1 6 5 6C3.9 6 3 5.1 3 4C3 2.9 3.9 2 5 2Z" fill="#12110D"/>
</svg>
