<svg width="26" height="11" viewBox="0 0 26 11" fill="none" xmlns="http://www.w3.org/2000/svg">
<path d="M23.1396 6.88867H23.1582L24.6592 3.07227H25.7139L22.4707 10.7227H21.4697L22.6758 8.04688L20.5469 3.07227H21.6025L23.1396 6.88867ZM18.0635 2.89941C18.7808 2.89946 19.3477 3.0971 19.7637 3.4873C20.1796 3.87752 20.3847 4.42286 20.3848 5.11035V8.3877H19.4561V7.65039H19.4141C19.0101 8.25746 18.4788 8.56055 17.8096 8.56055C17.2431 8.56045 16.7606 8.38778 16.3809 8.04102C16.0071 7.7189 15.7965 7.24102 15.8086 6.73926C15.8087 6.18832 16.0134 5.75494 16.417 5.42676C16.8209 5.09846 17.3638 4.93751 18.0391 4.9375C18.6177 4.9375 19.0882 5.04826 19.4619 5.25879V5.03027C19.4619 4.68974 19.3174 4.36752 19.0645 4.14453C18.8053 3.90921 18.4734 3.7784 18.1299 3.77832C17.5873 3.77832 17.1592 4.01457 16.8457 4.48535L15.9893 3.93359C16.4475 3.246 17.141 2.89941 18.0635 2.89941ZM13.4629 0.619141C14.0839 0.606752 14.6868 0.848915 15.127 1.29492C16.0072 2.13738 16.0613 3.55621 15.2354 4.4668L15.127 4.57812C14.6748 5.0178 14.1199 5.24023 13.4629 5.24023H11.8594V8.3877H10.8887V0.619141H13.4629ZM18.1904 5.74219C17.7985 5.74219 17.4665 5.84121 17.2012 6.0332C16.942 6.22513 16.8097 6.46688 16.8096 6.75781C16.8096 7.01798 16.9299 7.26051 17.1289 7.40918C17.3459 7.58252 17.6116 7.67514 17.8828 7.66895C18.2927 7.66891 18.6842 7.50132 18.9736 7.2041C19.2932 6.89437 19.4561 6.52865 19.4561 6.10742C19.1546 5.85994 18.7327 5.73603 18.1904 5.74219ZM11.8594 4.28711H13.4873C13.8491 4.2995 14.1991 4.15015 14.4463 3.88379C14.9526 3.34491 14.9404 2.47833 14.416 1.95801C14.1688 1.71023 13.837 1.57324 13.4873 1.57324H11.8594V4.28711Z" fill="#3C4043"/>
<path d="M8.50786 4.55968C8.50786 4.25614 8.48374 3.95261 8.43551 3.65527H4.3418V5.37116H6.68709C6.59063 5.92248 6.27712 6.41804 5.81891 6.72777V7.84278H7.21764C8.03759 7.06847 8.50786 5.92248 8.50786 4.55968Z" fill="#4285F4"/>
<path d="M4.34346 8.92065C5.5131 8.92065 6.50186 8.5242 7.21931 7.8428L5.82058 6.72779C5.42869 7.00035 4.92828 7.15521 4.34346 7.15521C3.21001 7.15521 2.25139 6.3685 1.90774 5.31543H0.466797V6.46761C1.20234 7.97289 2.70357 8.92065 4.34346 8.92065Z" fill="#34A853"/>
<path d="M1.90698 5.31565C1.72609 4.76433 1.72609 4.16346 1.90698 3.60595V2.45996H0.465817C-0.155272 3.71745 -0.155272 5.20414 0.465817 6.46164L1.90698 5.31565Z" fill="#FBBC04"/>
<path d="M4.34346 1.76571C4.96445 1.75333 5.56133 1.99491 6.00748 2.43473L7.24946 1.15865C6.45965 0.402915 5.42266 -0.0121195 4.34346 0.000269593C2.70357 0.000269593 1.20234 0.954229 0.466797 2.4595L1.90774 3.61169C2.25139 2.55242 3.21001 1.76571 4.34346 1.76571Z" fill="#EA4335"/>
</svg>
