<svg width="20" height="19" viewBox="0 0 20 19" fill="none" xmlns="http://www.w3.org/2000/svg">
<path d="M9.30675 18.3686C9.65785 18.5645 10.0803 18.5536 10.4293 18.3541C12.7807 17.0103 16.8667 13.9168 18.4714 9.89854C20.8268 4.66665 15.2964 0.490239 11.4742 3.49407C11.0755 3.8074 10.5742 4.16603 10.2292 4.50573C10.0732 4.65933 9.79829 4.67499 9.63639 4.52767C9.18279 4.11499 8.47391 3.58562 8.01867 3.27761C4.76017 1.07302 -1.16879 3.97905 1.36029 10.1812C2.28676 12.9651 6.7017 16.9148 9.30675 18.3686Z" fill="url(#paint0_radial_3789_12807)"/>
<path d="M9.30675 18.3686C9.65785 18.5645 10.0803 18.5536 10.4293 18.3541C12.7807 17.0103 16.8667 13.9168 18.4714 9.89854C20.8268 4.66665 15.2964 0.490239 11.4742 3.49407C11.0755 3.8074 10.5742 4.16603 10.2292 4.50573C10.0732 4.65933 9.79829 4.67499 9.63639 4.52767C9.18279 4.11499 8.47391 3.58562 8.01867 3.27761C4.76017 1.07302 -1.16879 3.97905 1.36029 10.1812C2.28676 12.9651 6.7017 16.9148 9.30675 18.3686Z" fill="url(#paint1_radial_3789_12807)"/>
<path d="M9.30675 18.3686C9.65785 18.5645 10.0803 18.5536 10.4293 18.3541C12.7807 17.0103 16.8667 13.9168 18.4714 9.89854C20.8268 4.66665 15.2964 0.490239 11.4742 3.49407C11.0755 3.8074 10.5742 4.16603 10.2292 4.50573C10.0732 4.65933 9.79829 4.67499 9.63639 4.52767C9.18279 4.11499 8.47391 3.58562 8.01867 3.27761C4.76017 1.07302 -1.16879 3.97905 1.36029 10.1812C2.28676 12.9651 6.7017 16.9148 9.30675 18.3686Z" fill="url(#paint2_radial_3789_12807)"/>
<path d="M9.30675 18.3686C9.65785 18.5645 10.0803 18.5536 10.4293 18.3541C12.7807 17.0103 16.8667 13.9168 18.4714 9.89854C20.8268 4.66665 15.2964 0.490239 11.4742 3.49407C11.0755 3.8074 10.5742 4.16603 10.2292 4.50573C10.0732 4.65933 9.79829 4.67499 9.63639 4.52767C9.18279 4.11499 8.47391 3.58562 8.01867 3.27761C4.76017 1.07302 -1.16879 3.97905 1.36029 10.1812C2.28676 12.9651 6.7017 16.9148 9.30675 18.3686Z" fill="url(#paint3_radial_3789_12807)"/>
<path d="M9.30675 18.3686C9.65785 18.5645 10.0803 18.5536 10.4293 18.3541C12.7807 17.0103 16.8667 13.9168 18.4714 9.89854C20.8268 4.66665 15.2964 0.490239 11.4742 3.49407C11.0755 3.8074 10.5742 4.16603 10.2292 4.50573C10.0732 4.65933 9.79829 4.67499 9.63639 4.52767C9.18279 4.11499 8.47391 3.58562 8.01867 3.27761C4.76017 1.07302 -1.16879 3.97905 1.36029 10.1812C2.28676 12.9651 6.7017 16.9148 9.30675 18.3686Z" fill="url(#paint4_linear_3789_12807)"/>
<path d="M9.30675 18.3686C9.65785 18.5645 10.0803 18.5536 10.4293 18.3541C12.7807 17.0103 16.8667 13.9168 18.4714 9.89854C20.8268 4.66665 15.2964 0.490239 11.4742 3.49407C11.0755 3.8074 10.5742 4.16603 10.2292 4.50573C10.0732 4.65933 9.79829 4.67499 9.63639 4.52767C9.18279 4.11499 8.47391 3.58562 8.01867 3.27761C4.76017 1.07302 -1.16879 3.97905 1.36029 10.1812C2.28676 12.9651 6.7017 16.9148 9.30675 18.3686Z" fill="url(#paint5_linear_3789_12807)"/>
<path d="M9.30675 18.3686C9.65785 18.5645 10.0803 18.5536 10.4293 18.3541C12.7807 17.0103 16.8667 13.9168 18.4714 9.89854C20.8268 4.66665 15.2964 0.490239 11.4742 3.49407C11.0755 3.8074 10.5742 4.16603 10.2292 4.50573C10.0732 4.65933 9.79829 4.67499 9.63639 4.52767C9.18279 4.11499 8.47391 3.58562 8.01867 3.27761C4.76017 1.07302 -1.16879 3.97905 1.36029 10.1812C2.28676 12.9651 6.7017 16.9148 9.30675 18.3686Z" fill="url(#paint6_radial_3789_12807)" fill-opacity="0.6"/>
<g filter="url(#filter0_f_3789_12807)">
<path d="M9.75977 6.12234V10.5997C9.75977 11.1935 10.4788 11.475 10.8489 11.0107C11.9942 9.57415 12.9178 7.82734 11.887 6.40046C11.4918 5.85341 10.7346 5.50292 10.116 5.61443C9.88452 5.65614 9.75977 5.88714 9.75977 6.12234Z" fill="#FA1C56"/>
</g>
<g filter="url(#filter1_f_3789_12807)">
<path d="M17.1975 8.41173C18.3571 7.28448 18.5393 5.59117 17.6046 4.62962C16.6699 3.66807 14.9721 3.80239 13.8125 4.92964C12.6529 6.05689 12.4706 7.75019 13.4054 8.71175C14.3401 9.6733 16.0379 9.53898 17.1975 8.41173Z" fill="url(#paint7_radial_3789_12807)"/>
</g>
<g filter="url(#filter2_f_3789_12807)">
<path d="M14.6867 3.41858C15.2955 3.49512 15.8021 3.45338 15.8181 3.32536C15.8342 3.19734 15.3537 3.03152 14.7449 2.95498C14.1361 2.87845 13.6295 2.92019 13.6134 3.04821C13.5973 3.17623 14.0778 3.34205 14.6867 3.41858Z" fill="#FF7383"/>
</g>
<g filter="url(#filter3_f_3789_12807)">
<path d="M5.48414 3.34103C6.03464 3.33433 6.48002 3.25575 6.47893 3.16551C6.47783 3.07527 6.03067 3.00754 5.48017 3.01424C4.92967 3.02094 4.48429 3.09952 4.48539 3.18976C4.48648 3.28 4.93364 3.34773 5.48414 3.34103Z" fill="#FF93BA" fill-opacity="0.5"/>
</g>
<g filter="url(#filter4_f_3789_12807)">
<path d="M9.06252 5.74294L9.26766 12.4695C4.75593 8.08085 3.88836 4.99892 5.61723 4.30739C7.2579 3.65114 8.5704 4.71755 9.06252 5.74294Z" fill="url(#paint8_radial_3789_12807)"/>
</g>
<g filter="url(#filter5_f_3789_12807)">
<path d="M8.73438 5.34844C8.18313 5.26969 8.0125 4.8125 7.99609 4.59375C8.31109 4.92188 8.61953 4.94922 8.73438 4.92188V5.34844Z" fill="#FF7383"/>
</g>
<defs>
<filter id="filter0_f_3789_12807" x="7.75977" y="3.59375" width="6.57422" height="9.64941" filterUnits="userSpaceOnUse" color-interpolation-filters="sRGB">
<feFlood flood-opacity="0" result="BackgroundImageFix"/>
<feBlend mode="normal" in="SourceGraphic" in2="BackgroundImageFix" result="shape"/>
<feGaussianBlur stdDeviation="1" result="effect1_foregroundBlur_3789_12807"/>
</filter>
<filter id="filter1_f_3789_12807" x="11.3076" y="2.48828" width="8.39453" height="8.36523" filterUnits="userSpaceOnUse" color-interpolation-filters="sRGB">
<feFlood flood-opacity="0" result="BackgroundImageFix"/>
<feBlend mode="normal" in="SourceGraphic" in2="BackgroundImageFix" result="shape"/>
<feGaussianBlur stdDeviation="0.75" result="effect1_foregroundBlur_3789_12807"/>
</filter>
<filter id="filter2_f_3789_12807" x="11.6133" y="0.916992" width="6.20508" height="4.54004" filterUnits="userSpaceOnUse" color-interpolation-filters="sRGB">
<feFlood flood-opacity="0" result="BackgroundImageFix"/>
<feBlend mode="normal" in="SourceGraphic" in2="BackgroundImageFix" result="shape"/>
<feGaussianBlur stdDeviation="1" result="effect1_foregroundBlur_3789_12807"/>
</filter>
<filter id="filter3_f_3789_12807" x="2.98535" y="1.51367" width="4.99316" height="3.32812" filterUnits="userSpaceOnUse" color-interpolation-filters="sRGB">
<feFlood flood-opacity="0" result="BackgroundImageFix"/>
<feBlend mode="normal" in="SourceGraphic" in2="BackgroundImageFix" result="shape"/>
<feGaussianBlur stdDeviation="0.75" result="effect1_foregroundBlur_3789_12807"/>
</filter>
<filter id="filter4_f_3789_12807" x="1.78906" y="1.10547" width="10.4785" height="14.3643" filterUnits="userSpaceOnUse" color-interpolation-filters="sRGB">
<feFlood flood-opacity="0" result="BackgroundImageFix"/>
<feBlend mode="normal" in="SourceGraphic" in2="BackgroundImageFix" result="shape"/>
<feGaussianBlur stdDeviation="1.5" result="effect1_foregroundBlur_3789_12807"/>
</filter>
<filter id="filter5_f_3789_12807" x="6.99609" y="3.59375" width="2.73828" height="2.75488" filterUnits="userSpaceOnUse" color-interpolation-filters="sRGB">
<feFlood flood-opacity="0" result="BackgroundImageFix"/>
<feBlend mode="normal" in="SourceGraphic" in2="BackgroundImageFix" result="shape"/>
<feGaussianBlur stdDeviation="0.5" result="effect1_foregroundBlur_3789_12807"/>
</filter>
<radialGradient id="paint0_radial_3789_12807" cx="0" cy="0" r="1" gradientUnits="userSpaceOnUse" gradientTransform="translate(9.74382 2.90239) rotate(90) scale(15.0836 16.0139)">
<stop stop-color="#FC0000"/>
<stop offset="0.528" stop-color="#FF3B79"/>
<stop offset="1" stop-color="#F724B3"/>
</radialGradient>
<radialGradient id="paint1_radial_3789_12807" cx="0" cy="0" r="1" gradientUnits="userSpaceOnUse" gradientTransform="translate(14.4308 6.66205) rotate(134.402) scale(13.955 26.139)">
<stop offset="0.798" stop-color="#C82092" stop-opacity="0"/>
<stop offset="0.908" stop-color="#C82092"/>
</radialGradient>
<radialGradient id="paint2_radial_3789_12807" cx="0" cy="0" r="1" gradientUnits="userSpaceOnUse" gradientTransform="translate(12.4436 10.8791) rotate(-158.663) scale(14.929 21.1043)">
<stop offset="0.41" stop-color="#B91D43" stop-opacity="0"/>
<stop offset="0.834" stop-color="#B91D43"/>
</radialGradient>
<radialGradient id="paint3_radial_3789_12807" cx="0" cy="0" r="1" gradientUnits="userSpaceOnUse" gradientTransform="translate(9.53185 8.27183) rotate(90) scale(12.9932)">
<stop offset="0.671" stop-color="#FF7AF2" stop-opacity="0"/>
<stop offset="0.934" stop-color="#FFBCE6"/>
</radialGradient>
<linearGradient id="paint4_linear_3789_12807" x1="10.9658" y1="9.79236" x2="16.2243" y2="16.0504" gradientUnits="userSpaceOnUse">
<stop offset="0.694" stop-color="#FF7AF2" stop-opacity="0"/>
<stop offset="0.934" stop-color="#FFBCE6"/>
</linearGradient>
<linearGradient id="paint5_linear_3789_12807" x1="10.3141" y1="10.0529" x2="4.14338" y2="17.0059" gradientUnits="userSpaceOnUse">
<stop offset="0.694" stop-color="#FF7AF2" stop-opacity="0"/>
<stop offset="0.934" stop-color="#FFBCE6"/>
</linearGradient>
<radialGradient id="paint6_radial_3789_12807" cx="0" cy="0" r="1" gradientUnits="userSpaceOnUse" gradientTransform="translate(11.3608 7.66808) rotate(164.618) scale(11.2971 11.9308)">
<stop offset="0.802" stop-color="#FF73A6" stop-opacity="0"/>
<stop offset="1" stop-color="#FF93BA"/>
</radialGradient>
<radialGradient id="paint7_radial_3789_12807" cx="0" cy="0" r="1" gradientUnits="userSpaceOnUse" gradientTransform="translate(17.545 4.57352) rotate(128.737) scale(4.78496 6.36275)">
<stop stop-color="#FF7383"/>
<stop offset="1" stop-color="#FF7383" stop-opacity="0"/>
</radialGradient>
<radialGradient id="paint8_radial_3789_12807" cx="0" cy="0" r="1" gradientUnits="userSpaceOnUse" gradientTransform="translate(10.0468 8.28796) rotate(-135.591) scale(8.32525 14.7788)">
<stop stop-color="#FF6274"/>
<stop offset="1" stop-color="#FF6274" stop-opacity="0"/>
</radialGradient>
</defs>
</svg>
