<svg width="23" height="23" viewBox="0 0 23 23" fill="none" xmlns="http://www.w3.org/2000/svg">
<path d="M19.1406 7.3927L13.1218 2.5564C11.9456 1.61498 10.1078 1.60575 8.94082 2.54717L2.92205 7.3927C2.05828 8.08491 1.53451 9.46935 1.71829 10.5584L2.8761 17.5175C3.14258 19.0773 4.58525 20.3049 6.15656 20.3049H15.8969C17.4498 20.3049 18.92 19.0497 19.1865 17.5083L20.3443 10.5492C20.5097 9.46935 19.986 8.08491 19.1406 7.3927ZM11.7159 16.613C11.7159 16.9915 11.4035 17.3053 11.0267 17.3053C10.65 17.3053 10.3375 16.9915 10.3375 16.613V13.8442C10.3375 13.4658 10.65 13.152 11.0267 13.152C11.4035 13.152 11.7159 13.4658 11.7159 13.8442V16.613Z" fill="#000C51"/>
</svg>
