<svg width="15" height="11" viewBox="0 0 15 11" fill="none" xmlns="http://www.w3.org/2000/svg">
<path d="M7.49449 6.73909C8.29515 6.73909 9.01986 6.41442 9.54455 5.88973C10.0687 5.36562 10.3933 4.64091 10.3933 3.84025C10.3933 3.03959 10.0687 2.31488 9.54455 1.79077C9.01986 1.26608 8.29515 0.941406 7.49449 0.941406C6.69383 0.941406 5.96912 1.26608 5.44443 1.79077C4.92031 2.31488 4.59564 3.03959 4.59564 3.84025C4.59564 4.64091 4.92031 5.36562 5.44443 5.88973C5.71333 6.15939 6.03287 6.37324 6.38469 6.519C6.73651 6.66477 7.11367 6.73956 7.49449 6.73909ZM12.1326 7.31886C12.3231 7.31924 12.5117 7.28201 12.6878 7.20931C12.8638 7.1366 13.0237 7.02985 13.1584 6.89519C13.293 6.76052 13.3998 6.60059 13.4725 6.42456C13.5452 6.24854 13.5824 6.05989 13.5821 5.86944C13.5821 5.4694 13.4203 5.10704 13.1577 4.84441C13.0232 4.70962 12.8634 4.60274 12.6875 4.52991C12.5116 4.45707 12.323 4.41973 12.1326 4.42002C11.9422 4.41964 11.7535 4.45687 11.5775 4.52957C11.4015 4.60228 11.2416 4.70902 11.1069 4.84369C10.9722 4.97836 10.8655 5.13829 10.7928 5.31432C10.7201 5.49034 10.6828 5.67899 10.6832 5.86944C10.6829 6.05987 10.7202 6.24848 10.7929 6.42447C10.8657 6.60046 10.9724 6.76036 11.1071 6.89502C11.2417 7.02967 11.4016 7.13642 11.5776 7.20915C11.7536 7.28188 11.9422 7.31917 12.1326 7.31886ZM12.1326 7.66092C11.361 7.66092 10.7806 7.89631 10.4415 8.22214C9.79501 7.69049 8.77288 7.31886 7.49449 7.31886C6.18073 7.31886 5.17831 7.69455 4.54231 8.22562C4.19676 7.89805 3.61004 7.66092 2.85634 7.66092C1.5878 7.66092 0.827148 8.29287 0.827148 8.92598C0.827148 9.24195 1.5878 9.55909 2.85634 9.55909C3.20652 9.55909 3.52075 9.52952 3.7973 9.48198L3.77411 9.63851C3.77411 10.2183 5.16903 10.7981 7.49449 10.7981C9.67558 10.7981 11.2149 10.2183 11.2149 9.63851L11.2033 9.49067C11.4717 9.533 11.7801 9.55909 12.1326 9.55909C13.3217 9.55909 14.1618 9.24195 14.1618 8.92598C14.1618 8.29287 13.3658 7.66092 12.1326 7.66092ZM2.85634 7.31886C3.25638 7.31886 3.61873 7.1571 3.88137 6.89447C4.01616 6.76 4.12304 6.60022 4.19587 6.42431C4.2687 6.2484 4.30605 6.05983 4.30576 5.86944C4.30614 5.67899 4.26891 5.49034 4.19621 5.31432C4.1235 5.13829 4.01675 4.97836 3.88209 4.84369C3.74742 4.70902 3.58748 4.60228 3.41146 4.52957C3.23544 4.45687 3.04679 4.41964 2.85634 4.42002C2.66591 4.41971 2.4773 4.45699 2.30131 4.52973C2.12532 4.60246 1.96541 4.70921 1.83076 4.84386C1.69611 4.97851 1.58936 5.13842 1.51663 5.31441C1.44389 5.4904 1.40661 5.67901 1.40692 5.86944C1.40653 6.05989 1.44376 6.24854 1.51647 6.42456C1.58917 6.60059 1.69592 6.76052 1.83059 6.89519C1.96526 7.02985 2.12519 7.1366 2.30122 7.20931C2.47724 7.28201 2.66589 7.31924 2.85634 7.31886Z" fill="#279646"/>
</svg>
