<svg width="81" height="80" viewBox="0 0 81 80" fill="none" xmlns="http://www.w3.org/2000/svg">
<path opacity="0.5" d="M80.406 20H60.406V0L80.406 20Z" fill="#AEB4BC"/>
<path opacity="0.2" fill-rule="evenodd" clip-rule="evenodd" d="M20.406 0H60.406V20H80.406V80H20.406V0ZM30.406 30H70.406V34H30.406V30ZM70.406 38H30.406V42H70.406V38ZM30.406 46H70.406V50H30.406V46Z" fill="white"/>
<path fill-rule="evenodd" clip-rule="evenodd" d="M18.543 56.105C26.371 61.886 37.459 61.232 44.548 54.142C52.358 46.332 52.358 33.668 44.548 25.858C36.738 18.048 24.074 18.048 16.264 25.858C9.174 32.948 8.52 44.035 14.3 51.863L0 66.163L4.243 70.406L18.543 56.105ZM40.306 49.9C34.839 55.368 25.975 55.368 20.507 49.9C15.04 44.433 15.04 35.569 20.507 30.101C25.975 24.634 34.839 24.634 40.307 30.101C45.774 35.569 45.774 44.433 40.307 49.901L40.306 49.9Z" fill="#AEB4BC"/>
</svg>
