<svg width="23" height="23" viewBox="0 0 23 23" fill="none" xmlns="http://www.w3.org/2000/svg">
<path d="M17.9981 21.0654H5.47115C4.58162 21.0654 3.72853 20.7121 3.09954 20.0831C2.47055 19.4541 2.11719 18.601 2.11719 17.7115V5.18457C2.11886 4.29614 2.47296 3.44466 3.10177 2.81704C3.73057 2.18941 4.58271 1.83691 5.47115 1.83691H17.9981C18.4377 1.83691 18.873 1.9235 19.2792 2.09174C19.6853 2.25997 20.0544 2.50656 20.3652 2.81742C20.6761 3.12828 20.9227 3.49732 21.0909 3.90348C21.2591 4.30963 21.3457 4.74495 21.3457 5.18457V17.7115C21.3457 18.5999 20.9932 19.4521 20.3656 20.0809C19.738 20.7097 18.8865 21.0638 17.9981 21.0654ZM5.47115 3.41302C5.23798 3.41219 5.00693 3.4574 4.79127 3.54606C4.57561 3.63472 4.37957 3.76508 4.2144 3.92966C4.04923 4.09425 3.91817 4.28982 3.82875 4.50517C3.73933 4.72052 3.6933 4.9514 3.6933 5.18457V17.7115C3.6933 18.183 3.88061 18.6352 4.21402 18.9686C4.54743 19.302 4.99963 19.4893 5.47115 19.4893H17.9981C18.2312 19.4893 18.4621 19.4433 18.6775 19.3539C18.8928 19.2645 19.0884 19.1334 19.253 18.9682C19.4176 18.8031 19.5479 18.607 19.6366 18.3914C19.7252 18.1757 19.7704 17.9447 19.7696 17.7115V5.18457C19.7696 4.71473 19.583 4.26413 19.2507 3.9319C18.9185 3.59967 18.4679 3.41302 17.9981 3.41302H5.47115Z" fill="#55555F"/>
<path d="M9.22206 12.2392C9.00443 12.2385 8.78947 12.1912 8.59162 12.1005C8.3149 11.9748 8.08063 11.7715 7.91724 11.5152C7.75385 11.2589 7.66837 10.9607 7.67117 10.6568V2.62497C7.67117 2.41596 7.7542 2.21552 7.90199 2.06773C8.04977 1.91994 8.25022 1.83691 8.45922 1.83691C8.66823 1.83691 8.86867 1.91994 9.01646 2.06773C9.16425 2.21552 9.24728 2.41596 9.24728 2.62497V10.6568L10.7288 9.3455C11.0073 9.09693 11.3674 8.95954 11.7407 8.95954C12.1139 8.95954 12.4741 9.09693 12.7525 9.3455L14.2719 10.6631L14.2215 2.62497C14.2215 2.41596 14.3045 2.21552 14.4523 2.06773C14.6001 1.91994 14.8005 1.83691 15.0095 1.83691C15.2185 1.83691 15.419 1.91994 15.5668 2.06773C15.7146 2.21552 15.7976 2.41596 15.7976 2.62497V10.6568C15.8004 10.9607 15.7149 11.2589 15.5515 11.5152C15.3881 11.7715 15.1539 11.9748 14.8771 12.1005C14.6087 12.224 14.31 12.2665 14.0178 12.2228C13.7255 12.1792 13.4523 12.0512 13.2317 11.8547L11.7312 10.556L10.2308 11.861C9.95202 12.106 9.59321 12.2406 9.22206 12.2392ZM12.6769 17.1693H7.0029C6.79389 17.1693 6.59345 17.0863 6.44566 16.9385C6.29787 16.7907 6.21484 16.5903 6.21484 16.3813C6.21484 16.1722 6.29787 15.9718 6.44566 15.824C6.59345 15.6762 6.79389 15.5932 7.0029 15.5932H12.6769C12.8859 15.5932 13.0863 15.6762 13.2341 15.824C13.3819 15.9718 13.4649 16.1722 13.4649 16.3813C13.4649 16.5903 13.3819 16.7907 13.2341 16.9385C13.0863 17.0863 12.8859 17.1693 12.6769 17.1693Z" fill="#55555F"/>
</svg>
