<svg width="22" height="22" viewBox="0 0 22 22" fill="none" xmlns="http://www.w3.org/2000/svg">
<g clip-path="url(#clip0_469_3559)">
<path fill-rule="evenodd" clip-rule="evenodd" d="M11 0C8.08262 0 5.28473 1.15893 3.22183 3.22183C1.15893 5.28473 0 8.08262 0 11C0 13.9174 1.15893 16.7153 3.22183 18.7782C5.28473 20.8411 8.08262 22 11 22C13.9174 22 16.7153 20.8411 18.7782 18.7782C20.8411 16.7153 22 13.9174 22 11C22 8.08262 20.8411 5.28473 18.7782 3.22183C16.7153 1.15893 13.9174 0 11 0ZM6.16 7.92H7.04V8.8H6.16V7.92ZM7.92 7.92H15.84V8.8H7.92V7.92ZM15.4 9.43272L17.0773 11.44H15.84V14.08H14.96V11.44H13.728L15.4 9.43272ZM6.16 10.5582H7.04V11.4382H6.16V10.5582ZM7.92 10.5582H13.2V11.4382H7.92V10.5582ZM6.16 13.1965H7.04V14.0765H6.16V13.1965ZM7.92 13.1965H12.32V14.0765H7.92V13.1965Z" fill="#000C51"/>
</g>
<defs>
<clipPath id="clip0_469_3559">
<rect width="22" height="22" fill="white"/>
</clipPath>
</defs>
</svg>
