<svg width="21" height="19" viewBox="0 0 21 19" fill="none" xmlns="http://www.w3.org/2000/svg">
<path fill-rule="evenodd" clip-rule="evenodd" d="M2.46858 12.5918H0.868517C0.759023 12.5918 0.6659 12.6724 0.648825 12.7818L0.0016785 16.9371C-0.0111841 17.0191 0.0515162 17.093 0.13364 17.093H0.897524C1.00702 17.093 1.10014 17.0124 1.11722 16.9028L1.29176 15.782C1.3086 15.6723 1.40195 15.5918 1.51121 15.5918H2.01774C3.07176 15.5918 3.68002 15.0752 3.83896 14.0517C3.91053 13.6039 3.84199 13.252 3.63487 13.0055C3.4075 12.735 3.00409 12.5918 2.46858 12.5918ZM2.65318 14.1095C2.5657 14.6909 2.127 14.6909 1.70283 14.6909H1.46138L1.63077 13.605C1.64083 13.5394 1.69697 13.491 1.76249 13.491H1.87315C2.16209 13.491 2.43469 13.491 2.57555 13.6578C2.65946 13.7574 2.68523 13.9052 2.65318 14.1095ZM7.25155 14.0908H6.48532C6.42003 14.0908 6.36362 14.1392 6.35356 14.2048L6.31967 14.4218L6.26607 14.3432C6.1002 14.0994 5.73035 14.0179 5.36114 14.0179C4.51436 14.0179 3.79122 14.6674 3.65035 15.5784C3.57716 16.0328 3.68121 16.4674 3.93576 16.7704C4.1693 17.049 4.50342 17.1652 4.90088 17.1652C5.5831 17.1652 5.96151 16.7209 5.96151 16.7209L5.92729 16.9365C5.91441 17.019 5.9771 17.0929 6.05873 17.0929H6.74896C6.85875 17.0929 6.95132 17.0123 6.96864 16.9027L7.38278 14.2467C7.39588 14.165 7.33341 14.0908 7.25155 14.0908ZM6.18346 15.6011C6.10951 16.0444 5.76207 16.342 5.31903 16.342C5.09653 16.342 4.91864 16.2698 4.80452 16.1328C4.69127 15.9968 4.64818 15.8032 4.68423 15.5876C4.75331 15.1481 5.1066 14.8408 5.54293 14.8408C5.76045 14.8408 5.93736 14.914 6.05386 15.0521C6.17058 15.1917 6.21692 15.3864 6.18346 15.6011ZM10.5624 14.0907H11.3324C11.4402 14.0907 11.5031 14.2132 11.4419 14.3028L8.88092 18.0464C8.83946 18.1071 8.77114 18.1431 8.69816 18.1431H7.92911C7.82084 18.1431 7.75761 18.0197 7.8203 17.9299L8.61772 16.7899L7.76963 14.2693C7.74029 14.1817 7.80417 14.0907 7.8962 14.0907H8.6528C8.75111 14.0907 8.83783 14.1561 8.8662 14.2513L9.31628 15.7737L10.3783 14.1895C10.4199 14.1277 10.489 14.0907 10.5624 14.0907Z" fill="#253B80"/>
<path fill-rule="evenodd" clip-rule="evenodd" d="M18.9098 16.9363L19.5665 12.7051C19.5766 12.6394 19.6328 12.591 19.698 12.5908H20.4373C20.5189 12.5908 20.5816 12.6649 20.5688 12.747L19.9212 16.902C19.9043 17.0117 19.8112 17.0923 19.7015 17.0923H19.0413C18.9596 17.0923 18.8969 17.0184 18.9098 16.9363ZM13.8807 12.591H12.2804C12.1711 12.591 12.078 12.6716 12.0609 12.7811L11.4138 16.9363C11.4009 17.0184 11.4636 17.0923 11.5453 17.0923H12.3665C12.4428 17.0923 12.5081 17.0359 12.52 16.9591L12.7036 15.7813C12.7205 15.6715 12.8138 15.591 12.9231 15.591H13.4294C14.4836 15.591 15.0918 15.0745 15.2508 14.0509C15.3226 13.6031 15.2536 13.2512 15.0466 13.0047C14.8193 12.7342 14.4163 12.591 13.8807 12.591ZM14.0653 14.1087C13.9781 14.6902 13.5394 14.6902 13.1149 14.6902H12.8737L13.0434 13.6042C13.0534 13.5386 13.1091 13.4903 13.1748 13.4903H13.2855C13.5742 13.4903 13.8471 13.4903 13.9878 13.6571C14.0718 13.7566 14.0974 13.9044 14.0653 14.1087ZM18.6633 14.0901H17.8976C17.8318 14.0901 17.7759 14.1384 17.766 14.2041L17.7322 14.4211L17.6784 14.3425C17.5125 14.0986 17.1428 14.0171 16.7736 14.0171C15.9269 14.0171 15.2039 14.6666 15.0631 15.5777C14.9901 16.0321 15.0937 16.4666 15.3483 16.7697C15.5822 17.0483 15.9159 17.1644 16.3134 17.1644C16.9956 17.1644 17.3739 16.7201 17.3739 16.7201L17.3398 16.9358C17.3269 17.0182 17.3896 17.0921 17.4718 17.0921H18.1617C18.2709 17.0921 18.364 17.0116 18.3811 16.9019L18.7955 14.246C18.8082 14.1643 18.7455 14.0901 18.6633 14.0901ZM17.5953 15.6004C17.5218 16.0437 17.1739 16.3413 16.7308 16.3413C16.5087 16.3413 16.3305 16.269 16.2163 16.1321C16.103 15.9961 16.0605 15.8025 16.0961 15.5869C16.1655 15.1473 16.5183 14.8401 16.9547 14.8401C17.1723 14.8401 17.3491 14.9132 17.4657 15.0514C17.5829 15.1909 17.6292 15.3857 17.5953 15.6004Z" fill="#179BD7"/>
<path d="M8.39042 11.1047L8.58715 9.83937L8.14898 9.82906H6.05664L7.51072 0.491732C7.51516 0.463541 7.52988 0.437258 7.55132 0.418596C7.57276 0.399934 7.60026 0.389648 7.62884 0.389648H11.1569C12.3281 0.389648 13.1364 0.63648 13.5584 1.12366C13.7562 1.35222 13.8822 1.59104 13.9432 1.85387C14.0071 2.12966 14.0083 2.45915 13.9458 2.86101L13.9413 2.89035V3.14783L14.1392 3.26136C14.3058 3.35086 14.4381 3.45333 14.5397 3.57065C14.709 3.76606 14.8185 4.01442 14.8647 4.30886C14.9124 4.61169 14.8966 4.97203 14.8185 5.37999C14.7282 5.84928 14.5822 6.258 14.3852 6.59244C14.2038 6.9006 13.9729 7.15613 13.6987 7.35427C13.4369 7.54243 13.1259 7.6853 12.7742 7.77675C12.4334 7.86655 12.0449 7.91195 11.6187 7.91195H11.3442C11.1479 7.91195 10.9571 7.98355 10.8075 8.11195C10.6574 8.24298 10.558 8.42193 10.5276 8.61776L10.5069 8.73169L10.1594 10.9618L10.1435 11.0438C10.1394 11.0697 10.1323 11.0827 10.1218 11.0915C10.1124 11.0993 10.0988 11.1047 10.0856 11.1047H8.39042Z" fill="#253B80"/>
<path d="M14.3257 2.91992C14.3152 2.9881 14.3032 3.05781 14.2897 3.12942C13.8243 5.5486 12.2326 6.38433 10.1996 6.38433H9.16454C8.91595 6.38433 8.70645 6.56716 8.66769 6.81551L8.1377 10.2194L7.98764 11.1842C7.96241 11.3472 8.0866 11.4943 8.24901 11.4943H10.085C10.3024 11.4943 10.487 11.3343 10.5212 11.1172L10.5393 11.0227L10.885 8.80118L10.9072 8.67936C10.9409 8.46149 11.126 8.30151 11.3434 8.30151H11.618C13.3966 8.30151 14.7891 7.57015 15.1961 5.45375C15.3661 4.56965 15.2781 3.83145 14.8282 3.31226C14.6921 3.1557 14.5232 3.02581 14.3257 2.91992Z" fill="#179BD7"/>
<path d="M13.8393 2.72381C13.7683 2.70286 13.6949 2.68381 13.6196 2.66667C13.5441 2.64992 13.4665 2.63506 13.3868 2.62211C13.1077 2.5764 12.802 2.55469 12.4743 2.55469H9.7091C9.641 2.55469 9.57636 2.5703 9.51844 2.59849C9.39089 2.66058 9.29616 2.78286 9.2732 2.93255L8.68486 6.70588L8.66797 6.81596C8.70673 6.5676 8.91623 6.38476 9.16482 6.38476H10.1999C12.2329 6.38476 13.8247 5.54866 14.2899 3.12986C14.3038 3.05825 14.3155 2.98855 14.326 2.92037C14.2083 2.85713 14.0808 2.80304 13.9435 2.75695C13.9097 2.74552 13.8747 2.73448 13.8393 2.72381Z" fill="#222D65"/>
<path d="M9.27226 2.93265C9.29522 2.78295 9.39006 2.66068 9.5175 2.59897C9.57585 2.57077 9.64017 2.55516 9.70816 2.55516H12.4735C12.8011 2.55516 13.1069 2.57687 13.3859 2.62258C13.4657 2.63553 13.5432 2.65039 13.6188 2.66714C13.694 2.68429 13.7673 2.70334 13.8385 2.72428C13.8738 2.73495 13.9087 2.74599 13.943 2.75705C14.0802 2.80313 14.2078 2.85761 14.3255 2.92046C14.464 2.02645 14.3244 1.41776 13.8471 0.86657C13.3209 0.259781 12.3712 0 11.156 0H7.62784C7.37958 0 7.16791 0.182829 7.12947 0.431569L5.66002 9.86488C5.631 10.0515 5.77316 10.2199 5.95896 10.2199H8.13715L8.68403 6.70597L9.27226 2.93265Z" fill="#253B80"/>
</svg>
