<svg width="17" height="17" viewBox="0 0 17 17" fill="none" xmlns="http://www.w3.org/2000/svg">
<path d="M4.2832 12.7653H7.10987C7.19761 12.7658 7.28458 12.749 7.36581 12.7158C7.44703 12.6826 7.52091 12.6337 7.5832 12.5719L12.1965 7.95193L14.0899 6.09859C14.1524 6.03662 14.202 5.96288 14.2358 5.88164C14.2696 5.8004 14.2871 5.71327 14.2871 5.62526C14.2871 5.53725 14.2696 5.45011 14.2358 5.36887C14.202 5.28763 14.1524 5.2139 14.0899 5.15193L11.2632 2.29193C11.2012 2.22944 11.1275 2.17984 11.0463 2.146C10.965 2.11215 10.8779 2.09473 10.7899 2.09473C10.7019 2.09473 10.6147 2.11215 10.5335 2.146C10.4522 2.17984 10.3785 2.22944 10.3165 2.29193L8.43654 4.17859L3.80987 8.79859C3.74808 8.86089 3.6992 8.93476 3.66602 9.01599C3.63285 9.09721 3.61603 9.18419 3.61654 9.27193V12.0986C3.61654 12.2754 3.68677 12.445 3.8118 12.57C3.93682 12.695 4.10639 12.7653 4.2832 12.7653ZM10.7899 3.70526L12.6765 5.59193L11.7299 6.53859L9.8432 4.65193L10.7899 3.70526ZM4.94987 9.54526L8.9032 5.59193L10.7899 7.47859L6.83654 11.4319H4.94987V9.54526ZM14.9499 14.0986H2.94987C2.77306 14.0986 2.60349 14.1688 2.47847 14.2939C2.35344 14.4189 2.2832 14.5884 2.2832 14.7653C2.2832 14.9421 2.35344 15.1116 2.47847 15.2367C2.60349 15.3617 2.77306 15.4319 2.94987 15.4319H14.9499C15.1267 15.4319 15.2962 15.3617 15.4213 15.2367C15.5463 15.1116 15.6165 14.9421 15.6165 14.7653C15.6165 14.5884 15.5463 14.4189 15.4213 14.2939C15.2962 14.1688 15.1267 14.0986 14.9499 14.0986Z" fill="white"/>
</svg>
