<svg width="22" height="22" viewBox="0 0 22 22" fill="none" xmlns="http://www.w3.org/2000/svg">
<path d="M10.8716 20.9501C16.4109 20.9501 20.9014 16.5778 20.9014 11.1843C20.9014 5.79077 16.4109 1.41846 10.8716 1.41846C5.33229 1.41846 0.841797 5.79077 0.841797 11.1843C0.841797 16.5778 5.33229 20.9501 10.8716 20.9501Z" stroke="#A2A2A2" stroke-width="1.3" stroke-miterlimit="10" stroke-linecap="round" stroke-linejoin="round"/>
<path d="M10.8733 17.1914C14.2821 17.1914 17.0455 14.5007 17.0455 11.1816C17.0455 7.86253 14.2821 5.17188 10.8733 5.17188C7.46455 5.17188 4.70117 7.86253 4.70117 11.1816C4.70117 14.5007 7.46455 17.1914 10.8733 17.1914Z" stroke="#A2A2A2" stroke-width="1.3" stroke-miterlimit="10" stroke-linecap="round" stroke-linejoin="round"/>
<path d="M10.8715 1.41846V5.17455M20.9013 11.1843H17.0436M17.0436 18.882L14.6697 15.9215M8.57156 20.6902L9.4565 17.034M2.93945 17.1618L5.99005 14.8623M8.5569 12.6867V11.1843M10.8715 12.6867V10.4331M13.186 12.6867V8.93065" stroke="#A2A2A2" stroke-width="1.3" stroke-miterlimit="10" stroke-linecap="round" stroke-linejoin="round"/>
</svg>
