<svg width="15" height="20" viewBox="0 0 15 20" fill="none" xmlns="http://www.w3.org/2000/svg">
<path d="M7.18192 8.98104C9.66197 8.98104 11.6724 6.97056 11.6724 4.49052C11.6724 2.01047 9.66197 0 7.18192 0C4.70188 0 2.69141 2.01047 2.69141 4.49052C2.69141 6.97056 4.70188 8.98104 7.18192 8.98104Z" fill="#000C51"/>
<path d="M13.1365 12.7803C11.4217 11.485 9.33121 10.7842 7.18212 10.7842C5.03303 10.7842 2.94255 11.485 1.22769 12.7803C0.845866 13.0729 0.536526 13.4495 0.323631 13.8809C0.110736 14.3123 0 14.787 0 15.268C0 15.7491 0.110736 16.2237 0.323631 16.6551C0.536526 17.0865 0.845866 17.4631 1.22769 17.7558C2.94255 19.0511 5.03303 19.7519 7.18212 19.7519C9.33121 19.7519 11.4217 19.0511 13.1365 17.7558C13.5184 17.4631 13.8277 17.0865 14.0406 16.6551C14.2535 16.2237 14.3642 15.7491 14.3642 15.268C14.3642 14.787 14.2535 14.3123 14.0406 13.8809C13.8277 13.4495 13.5184 13.0729 13.1365 12.7803Z" fill="#000C51"/>
</svg>
