<svg width="238" height="234" viewBox="0 0 238 234" fill="none" xmlns="http://www.w3.org/2000/svg">
<path d="M212.672 187.683V196.655L212.648 196.643L204.848 192.211L207.169 190.871L212.672 187.683Z" fill="#CFD1D1"/>
<path d="M26.1055 191.658V182.684L31.0451 188.58L26.1055 191.658Z" fill="#CFD1D1"/>
<path d="M212.672 196.24C212.672 196.378 212.666 196.509 212.648 196.647C212.498 198.017 211.577 199.297 210.034 199.727C207.761 200.362 204.961 201.145 201.737 202.042C198.926 202.826 195.792 203.699 192.4 204.644C189.738 205.386 186.915 206.17 183.972 206.989C164.992 212.259 140.851 218.916 120.429 224.431C119.329 224.725 118.24 225.024 117.163 225.311C108.323 227.691 100.307 229.821 93.883 231.478C91.3887 232.118 89.1336 232.692 87.1657 233.177C86.2565 233.398 85.3293 233.464 84.4201 233.362C83.164 233.236 81.9497 232.818 80.8671 232.118C71.2726 225.909 40.5331 205.781 27.4693 194.601C26.5302 193.8 26.0995 192.723 26.1055 191.658C26.1055 189.971 27.1882 188.321 29.0784 187.86C29.4433 187.77 29.8201 187.681 30.2089 187.585C30.4242 187.531 30.6456 187.477 30.8729 187.423C30.8848 187.417 30.9028 187.411 30.9207 187.411C36.8246 185.964 45.4799 183.876 55.8999 181.418L59.2077 180.64C78.3787 176.142 102.849 170.585 127.153 165.549L134.468 164.053H134.474C137.19 163.497 139.888 162.959 142.573 162.426C146.677 161.619 150.738 160.835 154.74 160.081C156.534 159.746 158.365 159.83 160.087 160.309H160.093L168.216 164.962L168.264 164.992C176.459 170.047 188.757 177.847 200.852 186.347C202.969 187.836 205.087 189.349 207.169 190.875C208.915 192.143 210.644 193.429 212.337 194.715V194.721C212.564 195.205 212.672 195.726 212.672 196.24Z" fill="#CFD1D1"/>
<path d="M212.671 187.686V196.658L212.647 196.646C212.498 198.016 211.577 199.296 210.034 199.727C207.761 200.361 204.961 201.144 201.737 202.041C198.926 202.825 195.791 203.698 192.4 204.643C189.738 205.385 186.915 206.169 183.972 206.988C164.992 212.258 140.85 218.916 120.429 224.431C119.329 224.724 118.24 225.023 117.163 225.31C108.322 227.691 100.307 229.82 93.8828 231.477C91.3885 232.117 89.1334 232.691 87.1655 233.176C86.2563 233.397 85.3291 233.463 84.4199 233.361V215.901L200.852 186.346C202.969 187.835 205.087 189.348 207.168 190.874L212.671 187.686Z" fill="#BFBFBF"/>
<path d="M210.034 190.763C207.761 191.397 204.962 192.18 201.738 193.078C198.926 193.861 195.792 194.734 192.4 195.68C189.739 196.421 186.915 197.205 183.972 198.024C164.993 203.294 140.851 209.952 120.43 215.467C119.329 215.76 118.241 216.059 117.164 216.346C108.323 218.727 100.308 220.856 93.8835 222.513C91.3892 223.153 89.1341 223.727 87.1662 224.212C85.0068 224.744 82.7338 224.361 80.8675 223.153C71.2731 216.944 40.5336 196.816 27.4698 185.636C25.0532 183.573 25.9983 179.649 29.0789 178.895C29.6471 178.758 30.2393 178.608 30.8733 178.458C30.8853 178.453 30.9032 178.447 30.9212 178.447C36.825 176.999 45.4804 174.911 55.9004 172.453L59.2082 171.675C78.3792 167.177 102.85 161.62 127.153 156.584L134.469 155.088H134.475C137.19 154.532 139.888 153.994 142.574 153.461C146.677 152.654 150.739 151.87 154.74 151.117C156.535 150.782 158.365 150.865 160.088 151.344H160.094L168.217 155.998L168.265 156.027C179.097 162.709 197.114 174.2 212.337 185.75V185.756C213.228 187.658 212.307 190.129 210.034 190.763Z" fill="#92AB50"/>
<path d="M117.164 216.349C108.323 218.73 100.308 220.859 93.8836 222.516L30.8734 178.462L30.5684 178.246L30.6222 178.24L30.9213 178.45C36.8251 177.002 45.4805 174.914 55.9004 172.456L117.164 216.349Z" fill="url(#paint0_linear_3448_49916)"/>
<path d="M210.035 190.763C207.762 191.397 204.962 192.18 201.738 193.078L142.574 153.461C146.678 152.654 150.739 151.87 154.741 151.117C156.535 150.782 158.366 150.865 160.088 151.344H160.094L168.217 155.998L168.265 156.027C179.098 162.709 197.114 174.2 212.338 185.75V185.756C213.229 187.658 212.308 190.129 210.035 190.763Z" fill="#EFF3F4"/>
<path d="M93.8835 222.517C91.3892 223.157 89.1341 223.731 87.1662 224.216C85.0068 224.748 82.7338 224.365 80.8675 223.157C71.2731 216.948 40.5336 196.82 27.4698 185.64C25.0532 183.577 25.9983 179.653 29.0789 178.899C29.6471 178.762 30.2393 178.612 30.8733 178.463L30.5683 178.247L30.6221 178.241L30.9212 178.451L93.8835 222.517Z" fill="#EFF3F4"/>
<path d="M120.43 215.465C119.329 215.758 118.241 216.057 117.164 216.344L55.9004 172.451L59.2082 171.674L120.43 215.465Z" fill="#080E1D"/>
<path d="M192.4 195.682C189.738 196.424 186.914 197.207 183.972 198.027L127.152 156.586L134.468 155.091H134.474L192.4 195.682Z" fill="#080E1D"/>
<path d="M201.738 193.077C198.926 193.861 195.792 194.734 192.4 195.679L134.475 155.088C137.19 154.532 139.888 153.993 142.574 153.461L201.738 193.077Z" fill="#080E1D"/>
<path d="M181.65 173.03C181.428 173.03 181.204 172.969 181.003 172.84L165.032 162.543C164.477 162.185 164.318 161.445 164.675 160.89C165.033 160.334 165.772 160.173 166.329 160.532L182.299 170.829C182.854 171.187 183.014 171.927 182.657 172.482C182.428 172.837 182.043 173.03 181.65 173.03Z" fill="#555557"/>
<path opacity="0.54" d="M181.427 191.516C180.996 192.416 179.683 192.684 178.495 192.115C177.307 191.546 176.693 190.355 177.124 189.455C177.556 188.555 178.868 188.287 180.056 188.856C181.244 189.426 181.858 190.617 181.427 191.516Z" fill="#F9B7BD"/>
<path d="M192.882 181.118C193.997 181.118 194.901 180.515 194.901 179.772C194.901 179.028 193.997 178.426 192.882 178.426C191.767 178.426 190.863 179.028 190.863 179.772C190.863 180.515 191.767 181.118 192.882 181.118Z" fill="#555557"/>
<path d="M197.368 184.556C198.483 184.556 199.387 183.953 199.387 183.21C199.387 182.467 198.483 181.864 197.368 181.864C196.253 181.864 195.35 182.467 195.35 183.21C195.35 183.953 196.253 184.556 197.368 184.556Z" fill="#555557"/>
<path d="M50.9219 185.397C50.9219 185.397 52.6888 181.085 54.6329 180.654C56.5769 180.222 55.8292 183.025 55.8292 183.025C55.8292 183.025 59.2686 181.866 59.5677 184.558C59.8668 187.25 50.9219 185.397 50.9219 185.397Z" fill="#EFF3F4"/>
<path d="M182.689 195.215C182.689 195.435 182.51 195.614 182.29 195.614C182.069 195.614 181.891 195.436 181.891 195.215C181.891 194.995 182.069 194.816 182.29 194.816C182.51 194.816 182.689 194.995 182.689 195.215Z" fill="#EFF3F4"/>
<path d="M184.982 194.42C184.982 194.641 184.803 194.819 184.583 194.819C184.362 194.819 184.184 194.641 184.184 194.42C184.184 194.2 184.362 194.021 184.583 194.021C184.803 194.021 184.982 194.2 184.982 194.42Z" fill="#EFF3F4"/>
<path d="M186.581 194.208C186.801 194.208 186.98 194.029 186.98 193.809C186.98 193.589 186.801 193.41 186.581 193.41C186.36 193.41 186.182 193.589 186.182 193.809C186.182 194.029 186.36 194.208 186.581 194.208Z" fill="#EFF3F4"/>
<path d="M68.5096 197.094C69.0272 197.094 69.4469 196.675 69.4469 196.157C69.4469 195.639 69.0272 195.22 68.5096 195.22C67.9919 195.22 67.5723 195.639 67.5723 196.157C67.5723 196.675 67.9919 197.094 68.5096 197.094Z" fill="#EFF3F4"/>
<path d="M73.8668 194.347C73.8668 194.865 73.4469 195.285 72.9295 195.285C72.4121 195.285 71.9922 194.865 71.9922 194.347C71.9922 193.83 72.4121 193.41 72.9295 193.41C73.4469 193.41 73.8668 193.83 73.8668 194.347Z" fill="#EFF3F4"/>
<path d="M73.1383 198.952C73.1383 199.47 72.7184 199.889 72.201 199.889C71.6836 199.889 71.2637 199.469 71.2637 198.952C71.2637 198.435 71.6836 198.015 72.201 198.015C72.7184 198.015 73.1383 198.435 73.1383 198.952Z" fill="#EFF3F4"/>
<path d="M71.8338 198.989C71.7728 198.989 71.7118 198.971 71.6592 198.932L68.3974 196.409C68.313 196.348 68.267 196.248 68.2742 196.145C68.2819 196.041 68.3424 195.949 68.4345 195.902L72.6611 194.271C72.8082 194.193 72.9883 194.251 73.0642 194.398C73.1402 194.544 73.0834 194.725 72.9368 194.801L69.1409 196.209L72.0091 198.448C72.1431 198.545 72.173 198.732 72.0761 198.866C72.0187 198.946 71.9271 198.989 71.8338 198.989Z" fill="#EFF3F4"/>
<path d="M68.125 191.904C67.5544 193.096 65.3861 193.244 63.2829 192.236C61.1792 191.229 59.9368 189.446 60.5081 188.254C61.0787 187.063 63.247 186.915 65.3502 187.923C67.4533 188.93 68.6957 190.713 68.125 191.904Z" fill="#EFF3F4"/>
<path d="M60.4549 189.426L59.3848 191.081L61.7595 190.948L60.4549 189.426Z" fill="#EFF3F4"/>
<path opacity="0.26" d="M68.2736 204.124L126.538 213.811L142.12 209.871L55.248 194.82L68.2736 204.124Z" fill="#EFF3F4"/>
<path opacity="0.26" d="M33.4679 181.116L165.612 204.258L189.112 196.658L51.6023 173.03L30.873 178.46L33.4679 181.116Z" fill="#EFF3F4"/>
<path opacity="0.26" d="M76.6367 168.209L192.472 186.872L184.184 181.114L85.3926 165.064L76.6367 168.209Z" fill="#2D3B5E"/>
<path d="M174.32 108.973C174.246 113.182 170.774 116.535 166.565 116.461C162.356 116.387 159.004 112.915 159.077 108.706C159.152 104.497 162.623 101.144 166.833 101.218C171.042 101.292 174.394 104.764 174.32 108.973Z" fill="#FC3D3D"/>
<path d="M166.95 112.608C166.95 112.608 162.54 111.633 162.697 108.676C162.855 105.719 166.174 106.306 166.471 107.421C166.471 107.421 168.575 104.922 170.492 107.122C172.41 109.322 168.111 111.995 166.95 112.608Z" fill="white"/>
<path opacity="0.37" d="M166.104 116.745C170.404 117.108 174.184 113.914 174.547 109.613C174.791 106.687 173.383 103.991 171.095 102.465C171.376 102.829 174.498 106.987 169.925 111.24C169.581 111.568 169.181 111.895 168.739 112.221C168.197 112.614 167.682 112.928 167.195 113.175C166.426 113.566 165.713 113.786 165.055 113.874C164.673 113.938 164.31 113.944 163.963 113.918C160.751 113.677 159.257 110.299 159.257 110.299C159.257 110.299 159.243 110.628 159.273 111.177C160.159 114.171 162.808 116.467 166.104 116.745Z" fill="#420005"/>
<path d="M82.7559 156.644C83.3709 159.547 81.516 162.399 78.6125 163.014C75.709 163.629 72.8576 161.774 72.2427 158.87C71.6278 155.967 73.4833 153.115 76.3861 152.501C79.289 151.886 82.141 153.741 82.7559 156.644Z" fill="#FC3D3D"/>
<path d="M78.2674 160.308C78.2674 160.308 75.0839 160.335 74.7244 158.279C74.365 156.224 76.7379 156.102 77.1183 156.821C77.1183 156.821 78.1681 154.771 79.8333 155.979C81.4986 157.187 78.9684 159.703 78.2674 160.308Z" fill="white"/>
<path opacity="0.37" d="M77.8739 163.126C74.8646 163.287 72.2943 160.977 72.1328 157.968C72.0239 155.92 73.0647 154.069 74.6947 153.053C74.4907 153.3 71.622 156.361 74.7228 159.427C74.9561 159.663 75.2277 159.899 75.5297 160.136C75.9 160.422 76.2523 160.652 76.5873 160.835C77.1155 161.124 77.6084 161.294 78.0659 161.369C78.3315 161.421 78.5846 161.434 78.8268 161.423C81.0741 161.323 82.7908 158.773 82.7908 158.773C82.7908 158.773 82.7938 159.003 82.7615 159.385C82.0772 161.455 80.1798 163.001 77.8739 163.126Z" fill="#420005"/>
<path d="M66.9402 122.613C65.2032 126.059 61.0017 127.445 57.5551 125.708C54.1091 123.971 52.7232 119.769 54.4602 116.323C56.1973 112.877 60.3988 111.491 63.8454 113.228C67.292 114.965 68.6773 119.167 66.9402 122.613Z" fill="#1D70CC"/>
<path d="M59.493 118.375C59.493 118.375 60.1061 118.466 60.6361 117.59C61.1655 116.714 61.306 116.784 61.9718 117.208C62.6375 117.631 62.4605 118.07 61.8444 118.682C61.2277 119.295 61.2965 119.769 62.1913 119.912C63.0862 120.056 63.9463 120.093 63.6257 121.427C63.3057 122.76 62.2852 123.301 61.251 122.911C60.2162 122.522 57.9043 120.916 57.9043 120.916L59.493 118.375Z" fill="white"/>
<path d="M57.6282 121.264L56.9517 120.923C56.7717 120.832 56.6981 120.61 56.789 120.43L58.349 117.335C58.4399 117.154 58.6618 117.081 58.8419 117.172L59.5184 117.513C59.6985 117.604 59.772 117.826 59.6811 118.006L58.1211 121.101C58.0302 121.282 57.8089 121.355 57.6282 121.264Z" fill="#0F2A6B"/>
<path opacity="0.37" d="M58.4843 126.075C54.7973 124.921 52.7438 120.996 53.897 117.309C54.6836 114.8 56.7616 113.042 59.1746 112.551C58.8187 112.757 54.0023 115.149 56.3549 120.22C56.5295 120.608 56.7497 121.014 57.0063 121.434C57.3227 121.943 57.6433 122.377 57.9633 122.747C58.4688 123.331 58.985 123.754 59.5006 124.05C59.7961 124.231 60.0952 124.36 60.3901 124.455C63.1338 125.341 66.3382 123.046 66.3382 123.046C66.3382 123.046 66.2383 123.324 66.0283 123.769C64.2817 125.95 61.31 126.957 58.4843 126.075Z" fill="#420005"/>
<path opacity="0.49" d="M62.9268 114.376C64.6255 114.003 67.017 118.838 64.6776 120.011C62.3382 121.183 60.4318 114.924 62.9268 114.376Z" fill="#FCFAB6"/>
<path opacity="0.19" d="M121.063 205.529C143.392 205.529 161.493 199.174 161.493 191.335C161.493 183.496 143.392 177.142 121.063 177.142C98.734 177.142 80.6328 183.496 80.6328 191.335C80.6328 199.174 98.734 205.529 121.063 205.529Z" fill="#074289"/>
<path opacity="0.19" d="M121.063 201.552C137.139 201.552 150.172 196.977 150.172 191.333C150.172 185.689 137.139 181.114 121.063 181.114C104.987 181.114 91.9551 185.689 91.9551 191.333C91.9551 196.977 104.987 201.552 121.063 201.552Z" fill="#074289"/>
<path opacity="0.27" d="M121.064 199.294C134.527 199.294 145.442 195.462 145.442 190.735C145.442 186.009 134.527 182.177 121.064 182.177C107.6 182.177 96.6855 186.009 96.6855 190.735C96.6855 195.462 107.6 199.294 121.064 199.294Z" fill="#00264C"/>
<path d="M96.2067 99.9038C96.2067 99.9038 96.3066 106.184 91.2222 114.708C86.1379 123.232 84.6425 134.597 85.5397 140.28C85.5397 140.28 89.3022 129.717 91.9071 131.11C94.5121 132.504 91.5213 140.213 84.3434 151.013C77.1655 161.813 80.6049 171.981 80.6049 171.981C80.6049 171.981 79.8572 165.103 86.5865 159.42C86.5865 159.42 84.3213 174.225 93.0054 182.15C93.0054 182.15 92.8588 170.785 95.5547 171.832C98.2506 172.879 98.5497 188.58 90.9232 196.656C90.9232 196.656 97.802 195.16 102.737 187.534C107.672 179.907 136.234 192.02 144.01 188.58C151.786 185.141 153.879 173.178 154.777 166.598C154.777 166.598 157.169 178.561 154.328 185.44C154.328 185.44 167.189 172.879 161.805 155.831C156.422 138.784 152.085 134.746 154.029 124.129C155.973 113.511 154.627 104.988 154.627 104.988C154.627 104.988 140.584 90.527 123.081 90.3548C105.578 90.1837 96.2067 99.9038 96.2067 99.9038Z" fill="#7F3F35"/>
<path d="M129.651 141.553C129.651 141.553 128.832 148.582 121.875 148.582C116.39 148.582 114.673 144.807 114.201 143.216C114.069 142.792 114.027 142.522 114.027 142.522C114.027 142.522 116.342 141.553 116.342 139.382V134.764C116.342 134.609 116.342 134.525 116.342 134.525C116.414 134.531 116.486 134.537 116.558 134.543C123.371 135.093 126.888 133.777 126.888 133.777C126.888 133.777 126.66 137.139 126.888 139.011C127.109 140.878 129.651 141.553 129.651 141.553Z" fill="#E59C61"/>
<path opacity="0.22" d="M129.652 141.553C129.652 141.553 128.832 148.582 121.876 148.582C116.39 148.582 114.674 144.807 114.201 143.216C114.231 143.24 114.267 143.264 114.303 143.288C120.883 147.942 125.07 145.059 124.208 142.199C123.341 139.34 125.369 136.385 123.7 136.708C122.528 136.936 118.58 136.69 116.343 136.523V134.764C116.414 134.693 116.486 134.621 116.558 134.543C123.371 135.093 126.888 133.777 126.888 133.777C126.888 133.777 126.661 137.139 126.888 139.011C127.109 140.878 129.652 141.553 129.652 141.553Z" fill="#750606"/>
<path d="M133.798 195.809C132.547 196.09 131.333 196.323 130.143 196.515C129.892 196.556 129.646 196.592 129.401 196.628C126.751 197.017 124.257 197.196 121.966 197.238C117.51 197.304 113.813 196.844 111.211 196.353C108.501 195.845 106.964 195.306 106.964 195.306C106.964 195.306 106.964 195.306 106.964 195.3C106.928 194.989 105.887 186.172 106.474 168.628C107.072 150.767 110.81 141.927 110.81 141.927L111.432 142.04L114.028 142.525C114.028 142.525 115.596 146.861 121.553 147.759C121.858 147.806 122.151 147.83 122.438 147.83C127.72 147.944 129.652 141.556 129.652 141.556C129.652 141.556 129.652 141.562 129.658 141.568C137.153 157.736 133.798 195.809 133.798 195.809Z" fill="#D14286"/>
<path opacity="0.28" d="M133.798 195.809C132.547 196.09 131.333 196.323 130.143 196.515C129.892 196.556 129.646 196.592 129.401 196.628C133.546 174.664 129.652 149.547 129.652 149.547C127.69 151.324 125.393 152.137 123.102 152.388C117.288 153.052 111.528 150.109 111.528 150.109C106.043 164.507 110.015 189.672 111.211 196.353C108.501 195.845 106.964 195.306 106.964 195.306C106.964 195.306 106.964 195.306 106.964 195.3C106.928 194.989 105.887 186.172 106.474 168.628C107.072 150.767 110.81 141.927 110.81 141.927L111.432 142.04L114.028 142.525C114.028 142.525 115.596 146.861 121.553 147.759C121.858 147.806 122.151 147.83 122.438 147.83C127.72 147.944 129.652 141.556 129.652 141.556C129.652 141.556 129.652 141.562 129.658 141.568C137.153 157.736 133.798 195.809 133.798 195.809Z" fill="#04048E"/>
<path d="M165.242 145.814C165.242 145.814 157.436 156.779 144.815 162.515C144.815 162.515 135.926 157.526 136.751 141.878C136.751 141.878 139.006 140.706 141.447 139.073C143.104 137.961 144.845 136.633 146.029 135.317C147.303 133.899 148.356 132.661 149.139 131.716C150.162 130.49 150.736 129.76 150.736 129.76C150.736 129.76 156.12 140.132 165.242 145.814Z" fill="#D14286"/>
<path opacity="0.28" d="M165.242 145.814C165.242 145.814 157.436 156.779 144.815 162.515C144.815 162.515 135.926 157.526 136.751 141.878C136.751 141.878 139.006 140.706 141.447 139.073C138.749 145.366 143.062 155.696 144.815 156.276C146.615 156.874 160.361 147.154 156.473 142.626C153.482 139.145 150.401 133.935 149.139 131.716C150.162 130.49 150.736 129.76 150.736 129.76C150.736 129.76 156.12 140.132 165.242 145.814Z" fill="#04048E"/>
<path d="M96.6564 160.813C96.6564 160.813 88.2284 157.924 80.3027 145.213C80.3027 145.213 87.1397 141.702 91.0457 138.484C94.9576 135.272 95.5498 132.873 95.5498 132.873C95.5498 132.873 95.8549 133.352 96.4172 134.099C97.5776 135.643 99.8267 138.31 102.686 140.153C103.416 140.625 104.181 141.044 104.977 141.373C104.977 141.373 105.527 154.658 96.6564 160.813Z" fill="#D14286"/>
<path opacity="0.28" d="M96.6564 160.813C96.6564 160.813 88.2284 157.924 80.3027 145.213C80.3027 145.213 87.1397 141.702 91.0457 138.484C94.9576 135.272 95.5498 132.873 95.5498 132.873C95.5498 132.873 95.8549 133.352 96.4172 134.099C96.0343 135.989 94.8918 139.022 91.0457 141.917C85.2914 146.254 93.1153 152.708 96.0822 153.665C98.7081 154.514 101.663 145.381 102.686 140.153C103.416 140.625 104.181 141.044 104.977 141.373C104.977 141.373 105.527 154.658 96.6564 160.813Z" fill="#04048E"/>
<path d="M169.782 143.87C169.525 145.24 168.496 146.508 166.54 146.454C164.644 146.412 161.886 145.144 158.118 141.555C153.153 136.83 150.94 133.474 150.438 131.046V131.04C150.162 129.718 150.396 128.665 150.97 127.822C151.287 127.355 151.646 127.038 152.017 126.817C152.908 126.296 153.877 126.386 154.541 126.553H154.547C155.019 126.667 155.33 126.829 155.33 126.829L166.791 138.965C166.791 138.965 170.278 141.178 169.782 143.87Z" fill="#00D1B3"/>
<g opacity="0.51">
<path d="M154.391 128.609C154.391 128.609 152.575 127.395 150.32 129.997" stroke="#242442" stroke-miterlimit="10" stroke-linecap="round" stroke-linejoin="round"/>
<path d="M154.47 130.648C154.47 130.648 152.574 130.973 150.971 133.006" stroke="#242442" stroke-miterlimit="10" stroke-linecap="round" stroke-linejoin="round"/>
<path d="M155.762 133.187C155.762 133.187 154.46 133.151 152.93 135.884" stroke="#242442" stroke-miterlimit="10" stroke-linecap="round" stroke-linejoin="round"/>
<path d="M157.765 135.888C157.765 135.888 156.852 136.103 155.184 138.582" stroke="#242442" stroke-miterlimit="10" stroke-linecap="round" stroke-linejoin="round"/>
<path d="M159.829 137.889C159.829 137.889 159.063 139.656 157.508 140.967" stroke="#242442" stroke-miterlimit="10" stroke-linecap="round" stroke-linejoin="round"/>
<path d="M162.56 139.812C162.56 139.812 162.57 141.693 160.074 143.286" stroke="#242442" stroke-miterlimit="10" stroke-linecap="round" stroke-linejoin="round"/>
<path d="M164.883 140.113C164.883 140.113 165.307 143.407 163.557 145.607" stroke="#242442" stroke-miterlimit="10" stroke-linecap="round" stroke-linejoin="round"/>
<path d="M165.971 139.534C165.971 139.534 169.287 142.594 168.474 145.607" stroke="#242442" stroke-miterlimit="10" stroke-linecap="round" stroke-linejoin="round"/>
</g>
<path opacity="0.28" d="M169.782 143.87C169.525 145.24 168.496 146.508 166.54 146.454C164.644 146.413 161.886 145.145 158.118 141.556C153.153 136.83 150.94 133.474 150.438 131.046C161.061 147.519 167.24 143.715 160.463 139.426C153.68 135.143 154.391 128.617 154.391 128.617C154.391 128.617 154.433 127.774 154.541 126.554H154.547C155.019 126.667 155.33 126.829 155.33 126.829L166.791 138.966C166.791 138.966 170.278 141.179 169.782 143.87Z" fill="#5B068C"/>
<path d="M90.8421 139.777C86.3739 143.97 78.9447 147.302 76.6598 144.443C75.4874 142.977 75.8582 141.488 76.4923 140.381C77.1024 139.329 77.9578 138.629 77.9578 138.629L89.598 128.37C89.598 128.37 92.8041 125.942 94.9515 128.37C97.0929 130.799 95.3044 135.584 90.8421 139.777Z" fill="#00D1B3"/>
<path d="M144.557 110.467C144.557 110.467 152.994 107.994 152.433 114.952C151.935 121.133 144.757 122.536 141.666 121.586C141.666 121.586 143.929 114.74 144.557 110.467Z" fill="#E59C61"/>
<path d="M100.257 122.71C99.6652 122.68 99.0969 122.608 98.5466 122.494H98.5406C93.7374 121.531 90.627 117.757 92.4155 114.359C93.0735 113.115 93.9468 112.511 94.8261 112.272C96.6325 111.769 98.4569 112.762 98.4569 112.762C98.7081 115.155 100.257 122.71 100.257 122.71Z" fill="#E59C61"/>
<g opacity="0.31">
<path d="M144.556 113.559C144.556 113.559 147.746 112.463 148.045 114.856C148.344 117.248 145.951 118.245 143.359 118.445L144.556 113.559Z" fill="#F90D2F"/>
<path d="M99.1532 115.705C99.1532 115.705 96.7265 114.318 95.773 116.138C94.8196 117.958 97.1153 119.996 99.694 120.017L99.1532 115.705Z" fill="#F90D2F"/>
</g>
<path d="M145.133 112.879C144.265 117.832 142.495 122.408 139.749 126.117C135.921 131.291 130.191 134.784 122.361 135.25C120.13 135.388 117.725 135.28 115.147 134.892C114.86 134.85 114.579 134.802 114.304 134.748C108.071 133.588 104.171 130.298 101.808 126.122C99.4094 121.894 98.578 116.761 98.4643 112.012C98.3507 107.161 98.9967 102.716 99.4932 100.061C99.7922 98.4576 100.043 97.5065 100.043 97.5065C101.276 94.1209 104.308 91.3455 108.25 89.3297C121.033 82.7918 143.41 84.2573 145.354 99.0019C145.97 103.691 145.916 108.441 145.133 112.879Z" fill="#F4B882"/>
<path opacity="0.22" d="M114.304 134.748C108.071 133.588 104.171 130.298 101.808 126.123C99.4094 121.894 98.578 116.762 98.4643 112.012C98.3507 107.161 98.9967 102.717 99.4932 100.061C99.7922 98.458 100.043 97.5069 100.043 97.5069C101.276 94.1213 104.308 91.3459 108.25 89.3301L109.333 89.5335C109.333 89.5335 96.5562 120.805 114.304 134.748Z" fill="#FFFF57"/>
<path opacity="0.22" d="M145.132 112.879C144.264 117.832 142.494 122.408 139.748 126.116C135.92 131.29 130.19 134.784 122.36 135.25C137.218 129.143 132.666 97.578 121.152 95.5562C112.688 94.0668 103.877 97.7873 99.4922 100.06C99.7913 98.4573 100.042 97.5062 100.042 97.5062C105.276 83.1504 142.811 79.7109 145.353 99.0016C145.969 103.691 145.915 108.441 145.132 112.879Z" fill="#750606"/>
<g opacity="0.47">
<path d="M145.132 112.886C144.265 117.839 142.495 122.415 139.749 126.124C136.495 125.412 134.061 122.517 134.061 119.048C134.061 115.04 137.309 111.798 141.316 111.798C142.716 111.798 144.026 112.193 145.132 112.886Z" fill="#F90D2F"/>
<path d="M107.509 119.048C107.509 122.523 105.069 125.424 101.809 126.13C99.4099 121.901 98.5785 116.769 98.4648 112.019C99.0391 111.876 99.6372 111.798 100.259 111.798C104.261 111.798 107.509 115.04 107.509 119.048Z" fill="#F90D2F"/>
</g>
<g opacity="0.58">
<path d="M121.826 101.596C122.021 103.068 122.086 104.549 122.037 106.039C122.014 106.785 121.951 107.529 121.808 108.292C121.72 108.677 121.652 109.051 121.344 109.497C121.289 109.556 121.256 109.609 121.175 109.667C121.099 109.722 121.004 109.783 120.946 109.795C120.814 109.841 120.68 109.885 120.544 109.884C120.266 109.909 120.031 109.834 119.816 109.762C119.4 109.593 119.085 109.361 118.779 109.15C118.478 108.939 118.182 108.729 117.925 108.613C117.794 108.549 117.694 108.536 117.64 108.545C117.585 108.54 117.539 108.589 117.46 108.685C117.326 108.895 117.246 109.219 117.226 109.538C117.156 110.87 118.096 112.166 119.458 112.762C118.729 112.63 118.009 112.283 117.465 111.709C117.184 111.431 116.979 111.084 116.803 110.724C116.648 110.353 116.552 109.955 116.525 109.542C116.513 109.13 116.552 108.699 116.792 108.271C116.856 108.165 116.94 108.056 117.045 107.96C117.167 107.864 117.298 107.779 117.454 107.748C117.759 107.673 118.039 107.744 118.242 107.825C118.666 107.994 118.968 108.228 119.275 108.428C119.575 108.629 119.87 108.824 120.142 108.927C120.272 108.972 120.399 109.013 120.491 109C120.543 109.008 120.581 108.984 120.625 108.976C120.661 108.971 120.635 108.967 120.637 108.974C120.635 108.984 120.651 108.954 120.662 108.949C120.785 108.793 120.901 108.431 120.982 108.106C121.156 107.43 121.239 106.703 121.342 105.983L121.826 101.596Z" fill="#682702"/>
</g>
<path d="M128.309 108.077C128.309 108.077 128.708 103.69 131.997 103.889C135.287 104.089 135.387 108.376 135.387 108.376" stroke="#682702" stroke-width="2" stroke-miterlimit="10" stroke-linecap="round" stroke-linejoin="round"/>
<path d="M105.074 108.077C105.074 108.077 105.473 103.69 108.763 103.889C112.053 104.089 112.153 108.376 112.153 108.376" stroke="#682702" stroke-width="2" stroke-miterlimit="10" stroke-linecap="round" stroke-linejoin="round"/>
<path d="M126.62 127.937C124.723 128.505 122.528 128.882 120.034 129.014C117.51 129.145 115.326 128.912 113.466 128.433C106.737 126.705 104.338 121.71 105.977 118.743C106.462 117.864 106.964 117.23 107.562 116.793C109.524 115.328 112.479 115.938 119.137 116.548C126.554 117.236 129.305 112.959 132.505 114.454C133.044 114.7 133.6 115.118 134.192 115.752C137.524 119.329 135.024 125.431 126.62 127.937Z" fill="#770520"/>
<path d="M104.703 99.5514C104.703 99.5514 107.013 97.6211 109.828 99.3809" stroke="#682702" stroke-width="2" stroke-miterlimit="10" stroke-linecap="round" stroke-linejoin="round"/>
<path d="M131.615 99.4105C131.615 99.4105 134.589 96.918 136.881 100.308" stroke="#682702" stroke-width="2" stroke-miterlimit="10" stroke-linecap="round" stroke-linejoin="round"/>
<path d="M133.048 116.679V116.751C133.06 117.744 132.468 118.659 131.559 119.078C124.417 122.35 113.901 121.04 109.786 120.346C108.763 120.167 107.949 119.407 107.692 118.426C107.662 118.306 107.638 118.187 107.626 118.067C107.573 117.583 107.561 117.14 107.561 116.793C109.523 115.328 112.477 115.938 119.135 116.548C126.552 117.236 129.304 112.959 132.504 114.454C132.905 115.256 133.03 116.033 133.048 116.679Z" fill="#FFF6CA"/>
<path d="M126.618 127.938C124.722 128.507 122.527 128.884 120.033 129.015C117.508 129.147 115.325 128.913 113.465 128.435C113.65 128.142 114.069 127.544 114.661 126.999C115.774 125.971 117.508 125.127 119.458 126.898C119.458 126.898 120.577 125.348 122.437 125.372C123.586 125.384 125.003 126 126.618 127.938Z" fill="#FC5E9E"/>
<path d="M96.7339 120.595C96.244 122.288 95.8097 124 95.5166 125.703C95.3802 126.554 95.2756 127.411 95.2977 128.232C95.3174 129.041 95.4819 129.867 95.9252 130.241C96.1231 130.419 96.4797 130.535 96.6842 130.508C96.7937 130.51 96.8768 130.45 96.9809 130.384C97.0766 130.294 97.1831 130.185 97.2674 130.028C97.6299 129.413 97.8171 128.552 97.9457 127.718C98.1862 126.023 98.2699 124.255 98.3142 122.492L98.5935 122.465C98.9219 124.224 99.0972 126.011 98.9602 127.835C98.9315 128.292 98.8657 128.749 98.7664 129.213C98.6611 129.674 98.5355 130.148 98.2699 130.615C98.1449 130.847 97.9607 131.08 97.7304 131.286C97.484 131.48 97.1681 131.656 96.8296 131.682C96.1543 131.751 95.6093 131.527 95.1422 131.132C94.6906 130.725 94.4531 130.192 94.3245 129.7C94.1905 129.2 94.1654 128.713 94.1731 128.239C94.1893 127.29 94.3466 126.386 94.5667 125.507C95.0034 123.748 95.6632 122.081 96.4749 120.487L96.7339 120.595Z" fill="#FFCE00"/>
<path d="M116.344 136.985C116.344 136.985 120.931 138.555 126.787 136.985V135.937C126.787 135.937 128.606 136.611 128.307 137.882C128.008 139.153 125.242 140.275 119.26 139.826C113.279 139.378 114.325 136.084 116.344 135.937V136.985Z" fill="#242442"/>
<path d="M111.527 141.73C111.527 141.73 109.067 140.475 104.98 141.372C104.98 141.372 104.682 154.831 96.6562 160.812C96.6562 160.812 97.6025 180.153 100.892 192.814C100.892 192.814 103.185 194.608 109.167 195.805C109.167 195.805 106.575 182.147 107.571 166.595C108.569 151.043 111.527 141.73 111.527 141.73Z" fill="#242442"/>
<path d="M144.816 162.509C144.481 172.277 141.765 191.317 141.765 191.317C139.636 193.667 136.34 195.043 133.798 195.803C131.692 196.437 130.101 196.652 130.101 196.652C130.101 196.652 130.119 196.604 130.143 196.509C130.478 195.384 132.613 187.656 132.793 172.774C132.99 156.869 129.754 142.004 129.658 141.562C129.652 141.556 129.652 141.55 129.652 141.55C133.295 139.229 136.752 141.873 136.752 141.873C136.723 157.921 144.816 162.509 144.816 162.509Z" fill="#242442"/>
<path opacity="0.18" d="M144.815 162.511C144.48 172.279 141.764 191.318 141.764 191.318C139.634 193.669 136.339 195.045 133.796 195.805C131.691 196.439 130.1 196.654 130.1 196.654C130.1 196.654 130.118 196.606 130.142 196.511C129.89 196.552 129.645 196.588 129.4 196.624C126.75 197.013 124.256 197.192 121.965 197.234C125.697 180.259 124.435 162.637 123.101 152.384C122.874 150.638 122.641 149.106 122.437 147.826C127.719 147.94 129.651 141.552 129.651 141.552C133.294 139.231 136.751 141.875 136.751 141.875C136.721 157.923 144.815 162.511 144.815 162.511Z" fill="#000038"/>
<g opacity="0.54">
<path d="M120.281 179.66C124.824 179.66 128.506 177.147 128.506 174.046C128.506 170.946 124.824 168.433 120.281 168.433C115.739 168.433 112.057 170.946 112.057 174.046C112.057 177.147 115.739 179.66 120.281 179.66Z" fill="#242442"/>
<path d="M113.094 171.322L114.76 165.107L118.538 168.631L113.094 171.322Z" fill="#242442"/>
<path d="M127.51 171.322L125.844 165.107L122.066 168.631L127.51 171.322Z" fill="#242442"/>
</g>
<path d="M202.699 86.6606C200.366 89.8667 193.374 101.375 184.922 113.47C178.306 122.933 169.818 134.471 166.444 139.035C165.541 140.256 163.866 140.579 162.562 139.813C157.639 136.912 155.396 132.91 154.469 130.649C154.445 130.595 154.427 130.536 154.409 130.482C154.074 129.525 154.254 128.46 154.9 127.664C154.978 127.569 155.061 127.467 155.145 127.359C160.134 121.18 178.354 98.3127 180.118 91.9064C182.158 84.4713 179.095 78.5017 180.699 77.6224C180.968 77.4788 181.237 77.4788 181.506 77.5805C182.864 78.0889 184.222 81.1455 185.071 81.2652C186.088 81.4147 191.77 72.5261 192.793 73.6925C193.81 74.8589 188.564 81.9949 190.167 82.5811C191.77 83.1613 196.723 73.5429 198.763 75.146C200.809 76.7491 193.08 85.3446 194.54 85.2011C195.676 85.0874 198.841 80.1227 200.874 78.8187C201.455 78.4419 201.939 78.3701 202.262 78.7888C203.722 80.685 196.723 87.3843 197.453 87.5997C198.183 87.815 200.516 85.3446 201.826 83.6458C203.136 81.9471 205.032 83.4544 202.699 86.6606Z" fill="#F4B882"/>
<path opacity="0.3" d="M180.812 94.8345C177.002 102.634 159.619 124.114 154.409 130.479C154.074 129.522 154.254 128.457 154.9 127.662C154.978 127.566 155.061 127.464 155.145 127.356C160.134 121.177 178.354 98.3098 180.118 91.9035C182.158 84.4684 179.095 78.4987 180.699 77.6194C180.968 77.4759 181.237 77.4759 181.506 77.5776C182.589 81.1187 184.03 88.2667 180.812 94.8345Z" fill="#FCF986"/>
<path d="M177.055 96.762L178.844 93.6533L193.665 102.59L191.917 105.256L177.055 96.762Z" fill="#242442"/>
<path d="M90.8307 132.301C89.9156 134.52 87.7323 137.887 82.289 140.095C80.9073 140.657 79.364 140.531 78.4787 139.335C75.1649 134.855 67.4247 124.722 60.9347 115.432C52.6382 103.559 45.7714 92.2597 43.4804 89.1134C41.1954 85.9671 43.0497 84.4836 44.3418 86.1525C45.6278 87.8214 47.9128 90.2439 48.6306 90.0345C49.3484 89.8252 42.4815 83.2454 43.9111 81.3852C43.9769 81.3014 44.0487 81.2416 44.1264 81.1937C45.7594 80.2307 50.126 87.5462 51.4898 87.6838C52.9194 87.8214 45.3407 79.3873 47.3445 77.8141C49.3484 76.235 54.2114 85.6799 55.7846 85.1057C57.3577 84.5315 52.2076 77.527 53.2065 76.3786C54.2114 75.2361 59.7862 83.9632 60.7912 83.8197C61.6405 83.694 63.0103 80.5776 64.3682 80.1769C64.6074 80.0991 64.8467 80.1171 65.08 80.2427C66.6531 81.104 63.6504 86.966 65.6542 94.2635C67.2752 100.173 83.1803 120.367 89.1499 127.808C89.6404 128.418 90.0651 128.945 90.4061 129.37C90.6812 129.71 90.8726 130.099 90.9683 130.506C91.1119 131.092 91.064 131.72 90.8307 132.301Z" fill="#F4B882"/>
<path opacity="0.3" d="M90.9675 130.506L89.9507 132.282C89.9507 132.282 69.6371 107.225 64.9236 98.0555C61.4663 91.3262 63.2009 83.7415 64.3674 80.1765C64.6066 80.0987 64.8459 80.1167 65.0792 80.2423C66.6523 81.1036 63.6496 86.9656 65.6534 94.2632C67.2744 100.173 83.1795 120.367 89.1491 127.808C89.6396 128.418 90.0643 128.944 90.4053 129.369C90.6804 129.71 90.8718 130.099 90.9675 130.506Z" fill="#FCF986"/>
<path d="M68.656 99.0307L66.8999 95.9795L52.3496 104.753L54.0663 107.37L68.656 99.0307Z" fill="#242442"/>
<g opacity="0.49">
<path d="M78.8701 139.756C78.8701 139.756 76.3734 141.785 78.022 145.332" stroke="#242442" stroke-miterlimit="10" stroke-linecap="round" stroke-linejoin="round"/>
<path d="M80.8637 140.416C80.8637 140.416 79.9455 142.889 81.5983 145.335" stroke="#242442" stroke-miterlimit="10" stroke-linecap="round" stroke-linejoin="round"/>
<path d="M83.8933 139.055C83.8933 139.055 83.526 141.057 85.546 143.82" stroke="#242442" stroke-miterlimit="10" stroke-linecap="round" stroke-linejoin="round"/>
<path d="M87.2766 137.128C87.1941 137.199 88.1164 139.653 89.5855 141.054" stroke="#242442" stroke-miterlimit="10" stroke-linecap="round" stroke-linejoin="round"/>
<path d="M89.9531 134.019C89.9531 134.019 92.198 134.834 93.0037 137.589" stroke="#242442" stroke-miterlimit="10" stroke-linecap="round" stroke-linejoin="round"/>
<path d="M91.0488 131.109C91.0488 131.109 94.8178 131.158 95.5536 133.454" stroke="#242442" stroke-miterlimit="10" stroke-linecap="round" stroke-linejoin="round"/>
<path d="M90.4062 129.369C90.4062 129.369 93.4395 127.303 95.5528 130.149" stroke="#242442" stroke-miterlimit="10" stroke-linecap="round" stroke-linejoin="round"/>
</g>
<path opacity="0.1" d="M115.492 107.85C116.411 102.214 112.588 96.8989 106.951 95.9794C101.315 95.0599 96.0004 98.8837 95.0809 104.52C94.1614 110.156 97.9852 115.471 103.622 116.39C109.258 117.31 114.572 113.486 115.492 107.85Z" fill="#03FFD5"/>
<path opacity="0.1" d="M144.605 107.392C145.927 101.836 142.495 96.2607 136.939 94.9386C131.384 93.6164 125.808 97.0485 124.486 102.604C123.164 108.16 126.596 113.736 132.152 115.058C137.707 116.38 143.283 112.948 144.605 107.392Z" fill="#03FFD5"/>
<path opacity="0.15" d="M125.025 108.982L135.116 94.6816L137.551 94.8461L125.896 110.56L125.025 108.982Z" fill="white"/>
<path opacity="0.15" d="M128.014 113.169L140.722 96.1318C140.722 96.1318 143.181 97.6649 144.068 99.405L132.478 115.292C132.478 115.292 129.454 114.388 128.014 113.169Z" fill="white"/>
<path opacity="0.15" d="M94.9824 110.217L105.073 95.916L107.508 96.0811L95.8522 111.795L94.9824 110.217Z" fill="white"/>
<path opacity="0.15" d="M97.9707 114.396L110.679 97.3584C110.679 97.3584 113.138 98.8921 114.025 100.632L102.435 116.519C102.435 116.519 99.4111 115.615 97.9707 114.396Z" fill="white"/>
<path d="M121.516 151.193C119.871 151.217 118.417 151.008 117.137 150.619H117.131C110.958 148.789 108.889 143.058 110.061 141.324C111.485 139.23 113.429 141.324 113.429 141.324C113.644 142.628 115.337 146.964 120.762 147.359C120.93 147.371 121.103 147.377 121.277 147.383C127.109 147.533 128.682 142.598 129.053 140.355C129.43 138.112 132.719 138.56 132.815 140.115C132.905 141.677 131.074 151.044 121.516 151.193Z" fill="#00D1B3"/>
<g opacity="0.51">
<path d="M113.713 142.307C113.713 142.307 112.039 141.476 109.916 144.408" stroke="#242442" stroke-miterlimit="10" stroke-linecap="round" stroke-linejoin="round"/>
<path d="M115.043 144.562C115.043 144.562 113 145.15 112.104 147.587" stroke="#242442" stroke-miterlimit="10" stroke-linecap="round" stroke-linejoin="round"/>
<path d="M117.061 146.444C117.061 146.444 115.163 147.908 115.218 150.103" stroke="#242442" stroke-miterlimit="10" stroke-linecap="round" stroke-linejoin="round"/>
<path d="M119.388 147.381C119.388 147.381 119.102 149.23 119.098 151.049" stroke="#242442" stroke-miterlimit="10" stroke-linecap="round" stroke-linejoin="round"/>
<path d="M122.918 147.275C122.918 147.275 123.857 149.228 123.304 151.047" stroke="#242442" stroke-miterlimit="10" stroke-linecap="round" stroke-linejoin="round"/>
<path d="M126.537 145.515C126.537 145.515 128.552 147.515 128.091 149.216" stroke="#242442" stroke-miterlimit="10" stroke-linecap="round" stroke-linejoin="round"/>
<path d="M128.607 142.622C128.607 142.622 131.096 143.711 131.112 145.646" stroke="#242442" stroke-miterlimit="10" stroke-linecap="round" stroke-linejoin="round"/>
<path d="M129.057 140.352C129.057 140.352 131.744 139.64 132.818 141.66" stroke="#242442" stroke-miterlimit="10" stroke-linecap="round" stroke-linejoin="round"/>
</g>
<path opacity="0.22" d="M202.699 86.6564C200.366 89.8625 193.374 101.371 184.922 113.466C178.306 122.929 169.818 134.467 166.444 139.031C165.541 140.252 163.866 140.575 162.562 139.809C157.639 136.908 155.396 132.906 154.469 130.645C154.056 129.646 154.218 128.504 154.9 127.66C154.978 127.565 155.061 127.463 155.145 127.355C155.827 129.239 157.167 131.602 159.775 132.87C164.141 134.988 193.792 89.7489 200.874 78.8145C201.455 78.4377 201.939 78.3659 202.262 78.7846C203.722 80.6808 196.723 87.3801 197.453 87.5955C198.183 87.8108 200.516 85.3404 201.826 83.6417C203.135 81.9429 205.032 83.4502 202.699 86.6564Z" fill="#750606"/>
<path opacity="0.28" d="M133.048 116.679C131.696 116.045 129.806 115.675 128.012 116.524C125.422 117.75 117.741 118.737 113.71 117.666C110.97 116.937 108.799 117.804 107.692 118.426C107.662 118.306 107.638 118.187 107.626 118.067C107.573 117.583 107.561 117.14 107.561 116.793C109.523 115.328 112.477 115.938 119.135 116.548C126.552 117.236 129.304 112.959 132.504 114.454C132.905 115.256 133.03 116.033 133.048 116.679Z" fill="#5B068C"/>
<path opacity="0.28" d="M126.618 127.938C124.722 128.506 122.527 128.883 120.033 129.015C117.508 129.146 115.325 128.913 113.465 128.435C113.65 128.142 114.069 127.543 114.661 126.999C114.607 127.621 115.02 128.261 116.874 128.327C120.386 128.453 124.309 127.597 122.437 125.372C123.586 125.384 125.003 126 126.618 127.938Z" fill="#10006B"/>
<path opacity="0.28" d="M121.517 151.193C119.872 151.217 118.419 151.008 117.139 150.619C129.688 151.403 130.902 143.112 128.013 145.331C125.124 147.551 120.65 147.586 120.65 147.586C120.65 147.586 120.692 147.509 120.764 147.359C120.931 147.371 121.104 147.377 121.278 147.383C127.11 147.533 128.683 142.598 129.054 140.355C129.431 138.112 132.721 138.56 132.816 140.115C132.906 141.677 131.076 151.044 121.517 151.193Z" fill="#5B068C"/>
<path opacity="0.22" d="M90.8307 132.3C89.9156 134.519 87.7323 137.887 82.289 140.094C80.9073 140.656 79.364 140.531 78.4787 139.334C75.1649 134.854 67.4247 124.721 60.9347 115.432C52.6382 103.559 45.7714 92.2593 43.4804 89.113C41.1954 85.9667 43.0497 84.4832 44.3418 86.1521C45.6278 87.821 47.9128 90.2435 48.6306 90.0342C49.3484 89.8248 42.4815 83.2451 43.9111 81.3848C43.9769 81.301 44.0487 81.2412 44.1264 81.1934C47.3924 86.8819 56.8014 103.146 61.814 110.563C67.9451 119.637 77.3422 134.579 82.8752 135.315C86.6855 135.817 88.4321 130.906 89.1499 127.808C89.6404 128.418 90.0651 128.944 90.4061 129.369C91.076 130.195 91.2315 131.313 90.8307 132.3Z" fill="#750606"/>
<path opacity="0.35" d="M98.5406 122.495C93.7374 121.532 90.627 117.758 92.4155 114.36C93.0735 113.116 93.9468 112.512 94.8261 112.272C93.9109 113.235 93.1632 114.791 93.881 117.171C94.5868 119.48 96.6325 121.275 98.5406 122.495Z" fill="#FFFF73"/>
<path d="M139.67 138.582C133.736 151.006 138.055 162.215 138.617 163.567C138.647 163.633 138.665 163.669 138.671 163.693C138.605 163.609 138.545 163.531 138.485 163.447C138.414 163.352 138.336 163.25 138.264 163.148C138.258 163.142 138.252 163.13 138.246 163.124V163.118C125.422 145.515 139.161 134.287 137.875 115.948C137.098 104.774 133.921 98.6548 131.517 95.5623C129.932 93.5226 128.688 92.7928 128.688 92.7928C128.909 92.6493 129.13 92.5117 129.357 92.3921C134.609 89.5568 141.967 92.721 141.967 92.721C149.856 104.385 145.998 125.327 139.67 138.582Z" fill="#894437"/>
<path opacity="0.37" d="M139.67 138.583C133.736 151.007 138.055 162.216 138.617 163.568C138.569 163.532 138.527 163.496 138.485 163.449C138.408 163.365 138.33 163.269 138.264 163.149C138.258 163.144 138.252 163.132 138.246 163.126V163.12C134.472 156.606 134.472 140.413 139.125 133.182C141.979 128.755 145.705 106.922 142.822 102.622C140.806 99.6189 134.902 96.9212 131.517 95.5634C129.932 93.5237 128.688 92.7939 128.688 92.7939C133.957 89.2768 141.967 92.7222 141.967 92.7222C149.856 104.386 145.998 125.328 139.67 138.583Z" fill="#420005"/>
<path d="M157.915 99.4104C156.76 104.028 156.67 105.996 156.664 106.128V106.134C156.664 106.134 154.116 104.052 150.144 101.402C149.816 101.181 149.475 100.96 149.122 100.726C146.986 99.3387 144.498 97.8313 141.818 96.4137C141.465 96.2223 141.106 96.0368 140.741 95.8514C137.362 94.1227 133.707 92.5615 130.052 91.5447C129.64 91.431 129.233 91.3233 128.82 91.2216C126.625 90.6833 124.436 90.3603 122.324 90.3364C121.756 90.3304 121.188 90.3304 120.631 90.3483C120.231 90.3543 119.836 90.3723 119.447 90.3962C117.006 90.5218 114.686 90.8508 112.502 91.3054C112.185 91.3712 111.862 91.437 111.551 91.5088C108.064 92.2983 104.977 93.393 102.459 94.4697C102.1 94.6192 101.759 94.7687 101.424 94.9183C99.1155 95.9591 97.3748 96.9401 96.352 97.5562C95.676 97.9689 95.3112 98.2141 95.3112 98.2141C95.3112 97.7655 95.2932 97.3289 95.2573 96.9042C95.2155 96.294 95.1497 95.7019 95.0958 95.1216C94.9164 93.2614 94.8267 91.4908 95.8076 89.3374C97.303 86.0476 100.396 82.3629 103.584 77.6733C104.828 75.8489 107.047 73.6776 110.08 71.7216C110.905 71.1893 111.796 70.6689 112.742 70.1784C114.297 69.3709 116.008 68.6351 117.856 68.037C118.358 67.8695 118.867 67.714 119.387 67.5704H119.393C119.573 67.5225 119.758 67.4687 119.943 67.4268C120.332 67.3192 120.727 67.2235 121.122 67.1397H121.128C122.629 66.7988 124.208 66.5535 125.853 66.4219C126.386 66.3741 126.924 66.3382 127.468 66.3203C128.168 66.2963 128.88 66.2903 129.604 66.3083C130.064 66.3202 130.519 66.3442 130.967 66.3801L132.194 66.5057C133.647 66.6911 135.053 66.9962 136.411 67.3969C136.931 67.5525 137.44 67.714 137.942 67.8934C140.101 68.665 142.105 69.664 143.912 70.7586C144.641 71.2072 145.341 71.6678 146.005 72.1403C150.497 75.3285 153.375 78.9354 153.727 80.4667C154.427 83.4575 152.735 84.2531 154.828 87.842C156.922 91.431 159.111 94.6252 157.915 99.4104Z" fill="#00D1B3"/>
<g opacity="0.39">
<path d="M112.741 70.1748C111.132 71.7898 110.569 73.4108 109.899 75.3608C109.17 77.4724 108.338 79.871 105.945 82.7481C101.112 88.5563 102.428 94.2807 102.44 94.3405C102.452 94.3823 102.458 94.4242 102.458 94.4661C102.464 94.7472 102.279 95.0104 101.992 95.0762C101.944 95.0882 101.896 95.0941 101.848 95.0941C101.687 95.0941 101.537 95.0283 101.423 94.9147C101.346 94.8429 101.286 94.7412 101.256 94.6276C101.19 94.3704 99.7904 88.2392 105.006 81.9705C107.261 79.2609 108.051 76.9759 108.745 74.9601C109.128 73.8535 109.499 72.7768 110.079 71.7181C110.904 71.1857 111.795 70.6653 112.741 70.1748Z" fill="#242442"/>
<path d="M121.121 67.1338C120.415 68.0849 119.327 70.0289 118.017 73.9528C117.072 76.7821 115.971 78.8817 115.002 80.73C113.261 84.0378 112.005 86.4304 112.562 90.9645C112.574 91.0841 112.556 91.1978 112.502 91.2995C112.418 91.4849 112.245 91.6165 112.029 91.6464C112.005 91.6464 111.975 91.6524 111.952 91.6524C111.802 91.6524 111.658 91.5985 111.551 91.5028C111.443 91.4071 111.371 91.2696 111.347 91.114C110.749 86.2031 112.149 83.5353 113.919 80.1617C114.871 78.3553 115.947 76.3036 116.862 73.57C117.813 70.7228 118.669 68.8266 119.387 67.5645H119.393C119.955 67.4089 120.535 67.2594 121.121 67.1338Z" fill="#242442"/>
<path d="M123.407 75.2819C120.398 85.2771 119.794 87.4843 120.613 90.0385C120.643 90.1401 120.649 90.2478 120.631 90.3435C120.589 90.5589 120.44 90.7323 120.219 90.8101C120.159 90.828 120.093 90.834 120.033 90.834C119.776 90.834 119.537 90.6725 119.453 90.4153C119.453 90.4093 119.447 90.3974 119.447 90.3914C118.496 87.3946 119.291 84.7388 122.24 74.9349C123.574 70.4966 124.836 67.9125 125.853 66.4171C126.386 66.3693 126.924 66.3334 127.468 66.3154C126.559 67.3443 125.07 69.7489 123.407 75.2819Z" fill="#242442"/>
<path d="M132.192 66.5016C132.252 68.4396 132.276 72.2619 131.803 77.8547C131.558 80.8036 131.6 82.9689 131.636 84.7096C131.702 87.6944 131.738 89.5307 130.051 91.5406C129.991 91.6183 129.925 91.6961 129.853 91.7738C129.734 91.9054 129.572 91.9772 129.405 91.9772C129.255 91.9772 129.112 91.9234 128.998 91.8217C128.824 91.6602 128.759 91.4269 128.818 91.2176C128.836 91.1219 128.878 91.0321 128.95 90.9603C130.511 89.2197 130.481 87.814 130.416 84.7395C130.38 82.9689 130.338 80.7617 130.589 77.753C131.068 72.0944 131.032 68.2183 130.966 66.376L132.192 66.5016Z" fill="#242442"/>
<path d="M141.818 96.4103C141.782 96.494 141.74 96.5718 141.692 96.6496C141.578 96.841 141.375 96.9486 141.166 96.9486C141.064 96.9486 140.956 96.9187 140.854 96.8649C140.567 96.6914 140.472 96.3206 140.645 96.0275C140.681 95.9677 140.711 95.9078 140.741 95.848C142.374 92.8632 141.375 88.5744 140.22 83.6216C139.7 81.3725 139.156 79.0517 138.773 76.5514C137.965 71.3354 136.99 68.6437 136.41 67.3936C136.931 67.5491 137.439 67.7106 137.941 67.89C138.558 69.4931 139.317 72.1429 139.975 76.36C140.352 78.8184 140.89 81.1213 141.411 83.3465C142.613 88.5265 143.666 93.0187 141.818 96.4103Z" fill="#242442"/>
<path d="M150.143 101.401C150.137 101.401 150.137 101.407 150.137 101.407C150.017 101.58 149.826 101.67 149.635 101.67C149.515 101.67 149.395 101.64 149.294 101.568C149.012 101.383 148.941 101.006 149.12 100.725C149.126 100.725 149.126 100.719 149.126 100.719C151.591 97.0759 150.448 93.0622 149.24 88.8093C148.648 86.7337 148.037 84.5803 147.834 82.415C147.385 77.4622 144.951 72.6291 143.91 70.7568C144.64 71.2055 145.34 71.666 146.004 72.1386C147.194 74.603 148.689 78.3774 149.048 82.3013C149.24 84.359 149.832 86.4526 150.412 88.4743C151.644 92.805 152.918 97.2792 150.143 101.401Z" fill="#242442"/>
</g>
<path opacity="0.28" d="M157.914 99.4104C156.718 104.196 156.664 106.134 156.664 106.134C156.664 106.134 154.116 104.052 150.144 101.402C149.815 101.181 149.474 100.96 149.122 100.726C146.986 99.3387 144.498 97.8313 141.818 96.4137C141.465 96.2223 141.106 96.0368 140.741 95.8514C137.362 94.1227 133.707 92.5615 130.052 91.5447C129.639 91.431 129.233 91.3233 128.82 91.2216C126.625 90.6833 124.435 90.3603 122.324 90.3364C121.756 90.3304 121.187 90.3304 120.631 90.3483C120.23 90.3543 119.836 90.3723 119.447 90.3962C117.006 90.5218 114.685 90.8508 112.502 91.3054C112.185 91.3712 111.862 91.437 111.551 91.5088C108.064 92.2983 104.977 93.393 102.459 94.4697C102.1 94.6192 101.759 94.7687 101.424 94.9183C97.584 96.6529 95.311 98.2141 95.311 98.2141C95.311 97.1135 95.1914 96.1026 95.0957 95.1216C98.1942 92.8666 103.787 90.462 115.403 88.2368C131.009 85.246 143.912 92.8726 147.728 95.319C151.538 97.7715 154.828 92.4239 150.97 88.9068C147.112 85.3836 153.033 83.9002 140.771 74.1801C132.57 67.6841 123.179 67.4687 117.856 68.037C118.358 67.8695 118.867 67.714 119.387 67.5704H119.393C119.955 67.4149 120.535 67.2653 121.122 67.1397H121.128C122.629 66.7988 124.208 66.5535 125.853 66.4219C126.385 66.3741 126.924 66.3382 127.468 66.3203C128.168 66.2963 128.88 66.2903 129.604 66.3083C130.064 66.3202 130.519 66.3442 130.967 66.3801L132.194 66.5057C133.647 66.6911 135.053 66.9962 136.411 67.3969C136.931 67.5525 137.439 67.714 137.942 67.8934C140.101 68.665 142.105 69.664 143.912 70.7586C144.641 71.2072 145.341 71.6678 146.005 72.1403C150.497 75.3285 153.374 78.9354 153.727 80.4667C154.427 83.4575 152.734 84.2531 154.828 87.842C156.922 91.431 159.111 94.6252 157.914 99.4104Z" fill="#074289"/>
<path d="M155.624 109.37C154.128 109.77 140.173 92.4237 123.221 92.1246C107.998 91.8555 98.3259 98.3455 96.5195 99.6674C96.3101 99.817 96.2085 99.9007 96.2085 99.9007C95.1677 100.642 93.9115 101.498 93.4151 100.002C93.122 99.1231 93.762 98.1003 95.2574 96.898C95.8795 96.4015 96.6451 95.8691 97.5543 95.3069C98.1704 94.93 98.8523 94.5292 99.594 94.1165C104.08 91.6282 126.212 83.2539 143.762 95.0137C152.077 100.589 155.51 104.016 156.664 106.122V106.128C157.939 108.454 156.407 109.16 155.624 109.37Z" fill="#008584"/>
<path opacity="0.49" d="M119.943 67.4219C117.718 68.7378 108.459 74.3845 106.293 78.0631C103.835 82.2503 99.947 85.5282 98.4516 88.9018C97.3031 91.4858 97.4287 94.1835 97.5543 95.3081C97.5902 95.649 97.6261 95.8404 97.6261 95.8404C97.6261 95.8404 96.5913 96.1515 96.352 97.5512C96.2563 98.0835 96.2802 98.7774 96.5195 99.6687C96.3101 99.8182 96.2085 99.902 96.2085 99.902C95.1677 100.644 93.9115 101.499 93.4151 100.004C93.122 99.1243 93.762 98.1015 95.2574 96.8992C95.2155 96.2891 95.1497 95.6969 95.0959 95.1167C94.9164 93.2564 94.8267 91.4858 95.8077 89.3325C97.3031 86.0426 100.396 82.3579 103.584 77.6683C104.828 75.844 107.047 73.6726 110.08 71.7167C110.905 71.1843 111.797 70.6639 112.742 70.1734C114.297 69.3659 116.008 68.6302 117.856 68.032C118.358 67.8645 118.867 67.709 119.387 67.5654H119.393C119.573 67.5176 119.758 67.4637 119.943 67.4219Z" fill="#FFFF57"/>
<path d="M145.37 120.246C145.123 121.739 144.898 123.234 144.815 124.705C144.788 125.439 144.773 126.171 144.884 126.857C144.976 127.539 145.204 128.188 145.599 128.505C145.693 128.579 145.796 128.643 145.812 128.634C145.833 128.632 145.796 128.66 145.858 128.619C145.979 128.52 146.14 128.211 146.247 127.902C146.479 127.262 146.597 126.528 146.708 125.801C146.807 125.07 146.881 124.326 146.921 123.58C146.96 122.842 147.003 122.068 146.902 121.37L147.182 121.266C147.507 122.028 147.571 122.796 147.659 123.568C147.723 124.34 147.745 125.115 147.702 125.895C147.667 126.678 147.569 127.456 147.337 128.263C147.201 128.665 147.063 129.087 146.625 129.51C146.405 129.725 145.972 129.879 145.62 129.805C145.255 129.745 145.038 129.576 144.834 129.423C144.444 129.092 144.195 128.664 144.035 128.25C143.875 127.831 143.786 127.413 143.747 127.002C143.67 126.179 143.71 125.385 143.823 124.609C144.047 123.059 144.473 121.574 145.086 120.157L145.37 120.246Z" fill="#FFCE00"/>
<path d="M115.242 104.581L115.347 104.524C115.434 104.476 117.525 103.356 120.26 103.356C121.891 103.356 123.426 103.75 124.822 104.526L124.928 104.584L124.52 105.316L124.415 105.258C123.161 104.561 121.77 104.208 120.28 104.208C117.709 104.208 115.766 105.249 115.747 105.26L115.642 105.317L115.242 104.581Z" fill="#10213F"/>
<path d="M115.69 105.153L115.404 104.628C115.598 104.522 120.188 102.086 124.765 104.629L124.474 105.152C120.182 102.766 115.734 105.129 115.69 105.153Z" fill="#10213F"/>
<path d="M134.69 115.975C128.631 115.975 123.703 111.047 123.703 104.988C123.703 98.9302 128.631 94.002 134.69 94.002C140.747 94.002 145.675 98.9302 145.675 104.988C145.675 111.046 140.747 115.975 134.69 115.975ZM134.69 94.84C129.094 94.84 124.541 99.3926 124.541 104.988C124.541 110.584 129.093 115.137 134.69 115.137C140.285 115.137 144.838 110.584 144.838 104.988C144.838 99.3926 140.285 94.84 134.69 94.84Z" fill="#10213F"/>
<path d="M134.689 115.854C128.697 115.854 123.822 110.979 123.822 104.987C123.822 98.9945 128.697 94.1201 134.689 94.1201C140.681 94.1201 145.555 98.9945 145.555 104.987C145.555 110.979 140.68 115.854 134.689 115.854ZM134.689 94.7183C129.027 94.7183 124.42 99.3247 124.42 104.987C124.42 110.649 129.027 115.256 134.689 115.256C140.351 115.256 144.957 110.649 144.957 104.987C144.957 99.3247 140.351 94.7183 134.689 94.7183Z" fill="#10213F"/>
<path d="M105.074 117.172C99.0161 117.172 94.0879 112.244 94.0879 106.186C94.0879 100.127 99.0161 95.1992 105.074 95.1992C111.132 95.1992 116.061 100.127 116.061 106.186C116.061 112.243 111.132 117.172 105.074 117.172ZM105.074 96.0372C99.4779 96.0372 94.9259 100.59 94.9259 106.186C94.9259 111.781 99.4785 116.334 105.074 116.334C110.67 116.334 115.223 111.781 115.223 106.186C115.223 100.59 110.67 96.0372 105.074 96.0372Z" fill="#10213F"/>
<path d="M105.074 117.055C99.082 117.055 94.207 112.18 94.207 106.188C94.207 100.196 99.0814 95.3213 105.074 95.3213C111.066 95.3213 115.941 100.196 115.941 106.188C115.941 112.18 111.066 117.055 105.074 117.055ZM105.074 95.9194C99.4116 95.9194 94.8052 100.526 94.8052 106.188C94.8052 111.85 99.4116 116.457 105.074 116.457C110.736 116.457 115.342 111.85 115.342 106.188C115.342 100.526 110.736 95.9194 105.074 95.9194Z" fill="#10213F"/>
<path opacity="0.19" d="M139.275 120.017C138.228 139.523 128.574 147.149 138.485 163.449C138.414 163.353 138.336 163.252 138.264 163.15C138.258 163.144 138.252 163.132 138.246 163.126V163.12C125.422 145.516 139.161 134.289 137.875 115.949C137.098 104.775 133.921 98.6563 131.517 95.5638C129.932 93.5241 128.688 92.7943 128.688 92.7943C128.909 92.6508 129.13 92.5132 129.357 92.3936C129.453 92.4833 129.549 92.5969 129.651 92.7225C129.651 92.7225 140.322 100.505 139.275 120.017Z" fill="#FFCE00"/>
<path opacity="0.28" d="M90.8421 139.778C86.3739 143.971 78.9447 147.303 76.6598 144.444C75.4874 142.978 75.8582 141.489 76.4923 140.382C76.2829 141.584 76.3607 144.21 81.4032 143.307C87.8693 142.147 95.7351 133.761 94.9515 128.371C97.0929 130.8 95.3044 135.585 90.8421 139.778Z" fill="#5B068C"/>
<path d="M170.225 64.2424C177.138 64.2424 182.742 58.6381 182.742 51.7247C182.742 44.8114 177.138 39.207 170.225 39.207C163.311 39.207 157.707 44.8114 157.707 51.7247C157.707 58.6381 163.311 64.2424 170.225 64.2424Z" fill="#FBCC0A"/>
<path d="M159.746 53.0558C159.746 53.0558 162.137 51.2979 163.825 53.9698" stroke="#28000C" stroke-width="1.4108" stroke-miterlimit="10" stroke-linecap="round" stroke-linejoin="round"/>
<path d="M176.271 55.0283C176.271 55.0283 179.506 53.1997 180.561 56.224" stroke="#28000C" stroke-width="1.4108" stroke-miterlimit="10" stroke-linecap="round" stroke-linejoin="round"/>
<path d="M163.615 55.1354C165.618 54.7376 170.634 54.1658 175.884 56.8659C176.374 57.1177 176.516 57.7637 176.164 58.1872C175.17 59.3853 172.926 61.4029 169.311 61.0063C165.12 60.5463 163.53 57.7691 162.973 56.2857C162.786 55.7874 163.092 55.2395 163.615 55.1354Z" fill="#420005"/>
<path d="M165.197 59.3977C165.197 59.3977 169.308 56.505 173.036 60.5151C173.036 60.5151 169.946 62.428 165.197 59.3977Z" fill="#FC5E9E"/>
<path d="M34.4246 38.2096C30.3571 40.339 25.3326 38.7658 23.2031 34.6984C21.7556 31.9289 22.0248 28.7048 23.6398 26.2643C24.3815 25.1278 25.4223 24.1588 26.7143 23.4829C30.7818 21.3534 35.8004 22.9266 37.9298 26.9881C38.4263 27.9332 38.7194 28.9321 38.8271 29.931C39.1919 33.2329 37.541 36.5766 34.4246 38.2096Z" fill="#FBCC0A"/>
<path d="M24.8164 34.8589C24.8164 34.8589 25.6813 33.0884 27.4968 34.1406" stroke="#28000C" stroke-width="0.9366" stroke-miterlimit="10" stroke-linecap="round" stroke-linejoin="round"/>
<path d="M35.1426 30.933C35.1426 30.933 36.4825 28.8616 38.0335 30.3151" stroke="#28000C" stroke-width="0.9366" stroke-miterlimit="10" stroke-linecap="round" stroke-linejoin="round"/>
<path d="M27.7297 34.8933C28.7849 34.0427 31.5598 32.1615 35.4789 32.1328C35.8444 32.1304 36.1267 32.466 36.0507 32.8237C35.8348 33.8346 35.1362 35.7122 32.8883 36.5921C30.2821 37.612 28.4912 36.4683 27.707 35.7672C27.4426 35.5316 27.454 35.1152 27.7297 34.8933Z" fill="#420005"/>
<path d="M29.9746 36.9094C29.9746 36.9094 31.5017 33.9419 34.9292 35.1526C34.9292 35.1526 33.7005 37.23 29.9746 36.9094Z" fill="#FC5E9E"/>
<path d="M69.1708 150.078C70.5407 144.227 66.9085 138.374 61.0581 137.004C55.2076 135.634 49.3543 139.266 47.9844 145.117C46.6145 150.967 50.2466 156.821 56.0971 158.19C61.9476 159.56 67.8009 155.928 69.1708 150.078Z" fill="#FBCC0A"/>
<path d="M57.5607 156.273C58.9954 156.273 60.1585 155.11 60.1585 153.675C60.1585 152.24 58.9954 151.077 57.5607 151.077C56.126 151.077 54.9629 152.24 54.9629 153.675C54.9629 155.11 56.126 156.273 57.5607 156.273Z" fill="#420005"/>
<path d="M52.1514 149.488C52.1514 149.927 51.905 150.282 51.6011 150.282C51.2972 150.282 51.0508 149.926 51.0508 149.488C51.0508 149.049 51.2972 148.693 51.6011 148.693C51.905 148.693 52.1514 149.049 52.1514 149.488Z" fill="#260005"/>
<path d="M65.6754 150.766C65.5659 151.19 65.2387 151.474 64.9444 151.398C64.6501 151.322 64.5006 150.917 64.6101 150.491C64.7195 150.067 65.0467 149.783 65.341 149.859C65.6347 149.935 65.7849 150.341 65.6754 150.766Z" fill="#260005"/>
<path d="M50.2578 146.493C50.2578 146.493 50.9912 145.515 52.1528 146.31" stroke="#28000C" stroke-width="1.2261" stroke-miterlimit="10" stroke-linecap="round" stroke-linejoin="round"/>
<path d="M64.9258 147.592C64.9258 147.592 66.0868 147.104 66.6371 148.265" stroke="#28000C" stroke-width="1.2261" stroke-miterlimit="10" stroke-linecap="round" stroke-linejoin="round"/>
<path d="M195.348 110.092C200.143 110.092 204.031 106.204 204.031 101.408C204.031 96.6123 200.143 92.7246 195.348 92.7246C190.552 92.7246 186.664 96.6123 186.664 101.408C186.664 106.204 190.552 110.092 195.348 110.092Z" fill="#FBCC0A"/>
<path d="M196.615 106.26C196.615 107.405 195.687 108.333 194.542 108.333C193.397 108.333 192.469 107.405 192.469 106.26C192.469 105.115 193.397 104.187 194.542 104.187C195.687 104.187 196.615 105.115 196.615 106.26Z" fill="#420005"/>
<path d="M189.787 103.553C190.029 103.553 190.226 103.269 190.226 102.919C190.226 102.569 190.029 102.285 189.787 102.285C189.544 102.285 189.348 102.569 189.348 102.919C189.348 103.269 189.544 103.553 189.787 103.553Z" fill="#260005"/>
<path d="M201.021 103.94C200.934 104.279 200.672 104.505 200.438 104.444C200.203 104.384 200.084 104.06 200.171 103.721C200.258 103.382 200.52 103.155 200.754 103.216C200.989 103.277 201.108 103.601 201.021 103.94Z" fill="#260005"/>
<path d="M188.713 100.536C188.713 100.536 189.298 99.7558 190.225 100.39" stroke="#28000C" stroke-width="0.9787" stroke-miterlimit="10" stroke-linecap="round" stroke-linejoin="round"/>
<path d="M200.422 101.413C200.422 101.413 201.348 101.022 201.788 101.949" stroke="#28000C" stroke-width="0.9787" stroke-miterlimit="10" stroke-linecap="round" stroke-linejoin="round"/>
<path d="M107.958 56.2182C110.817 56.2182 113.134 53.9006 113.134 51.0417C113.134 48.1828 110.817 45.8652 107.958 45.8652C105.099 45.8652 102.781 48.1828 102.781 51.0417C102.781 53.9006 105.099 56.2182 107.958 56.2182Z" fill="#FC3D3D"/>
<path d="M108.174 53.6015C108.174 53.6015 105.168 52.9913 105.24 50.9821C105.311 48.9729 107.572 49.3312 107.787 50.0849C107.787 50.0849 109.186 48.3628 110.514 49.8336C111.843 51.3045 108.956 53.1708 108.174 53.6015Z" fill="white"/>
<path d="M80.4116 20.6676C79.1853 24.1112 75.399 25.9093 71.9554 24.6831C68.5118 23.4568 66.7137 19.6705 67.9399 16.2269C69.1662 12.7833 72.9519 10.9852 76.3961 12.2114C79.8403 13.4383 81.6378 17.224 80.4116 20.6676Z" fill="#FC3D3D"/>
<path d="M73.0146 22.6156C73.0146 22.6156 69.0751 20.0986 70.3373 16.8787C71.5994 13.6588 74.6195 15.3893 74.4921 16.7196C74.4921 16.7196 77.4829 14.6392 78.5297 17.6987C79.5764 20.7583 74.3784 22.3153 73.0146 22.6156Z" fill="white"/>
<path d="M207.339 41.3092C211.064 37.5837 211.064 31.5433 207.339 27.8177C203.613 24.0921 197.573 24.0921 193.847 27.8177C190.122 31.5433 190.122 37.5837 193.847 41.3092C197.573 45.0348 203.613 45.0348 207.339 41.3092Z" fill="#FC3D3D"/>
<path d="M199.418 39.1438C199.418 39.1438 194.557 36.2589 195.901 32.8057C197.245 29.3526 200.961 31.3486 200.879 32.7902C200.879 32.7902 204.358 30.6416 205.776 34.0074C207.194 37.3727 201.039 38.8687 199.418 39.1438Z" fill="white"/>
<path d="M190.239 151.783C189.276 153.485 187.116 154.084 185.415 153.121C183.713 152.159 183.114 149.999 184.077 148.297C185.039 146.596 187.199 145.997 188.901 146.959C190.603 147.921 191.201 150.081 190.239 151.783Z" fill="#FC3D3D"/>
<path d="M186.425 151.633C186.425 151.633 184.841 150.258 185.561 149.086C186.28 147.914 187.505 148.889 187.379 149.41C187.379 149.41 188.791 148.856 189.086 150.179C189.381 151.502 187.035 151.64 186.425 151.633Z" fill="white"/>
<path d="M40.791 124.894C45.1699 120.742 45.3534 113.825 41.2007 109.446C37.0481 105.068 30.1319 104.884 25.753 109.037C21.374 113.189 21.1906 120.105 25.3432 124.484C29.4958 128.863 36.412 129.047 40.791 124.894Z" fill="#FC3D3D"/>
<path d="M33.7312 122.36C33.7312 122.36 27.3859 121.073 27.5378 116.832C27.6892 112.59 32.4607 113.347 32.9153 114.938C32.9153 114.938 35.8678 111.303 38.6708 114.408C41.4738 117.513 35.3803 121.451 33.7312 122.36Z" fill="white"/>
<path d="M115.276 23.6171C118.647 17.618 116.517 10.0219 110.518 6.65079C104.518 3.27965 96.9224 5.41004 93.5513 11.4091C90.1801 17.4082 92.3105 25.0043 98.3096 28.3755C104.309 31.7466 111.905 29.6162 115.276 23.6171Z" fill="#FBCC0A"/>
<path d="M94.918 22.1173C95.7979 22.0336 96.6562 21.9917 97.514 21.9648C98.3706 21.9301 99.2229 21.9157 100.075 21.8972L100.097 21.8966C100.346 21.8912 100.553 22.0892 100.558 22.338C100.56 22.4595 100.514 22.5713 100.438 22.6545C100.131 22.987 99.8378 23.2706 99.5017 23.535C99.1679 23.794 98.8234 24.0386 98.4519 24.2402C97.7215 24.6565 96.9051 24.946 96.0742 25.0046C96.4307 24.7845 96.7812 24.5943 97.106 24.3586C97.4362 24.1373 97.7503 23.8986 98.0553 23.6528C98.3556 23.4004 98.6565 23.1527 98.9358 22.8812C99.2116 22.6138 99.5047 22.335 99.7344 22.0599L100.097 22.8172C99.2241 22.8375 98.3496 22.8058 97.4817 22.6963C96.6144 22.5905 95.7494 22.4254 94.918 22.1173Z" fill="#28000C"/>
<path d="M114.921 16.873C114.274 17.5723 113.543 18.1746 112.759 18.7088C112.372 18.9851 111.958 19.2196 111.532 19.4499C111.099 19.6653 110.655 19.8674 110.146 19.9984L110.176 19.1084C110.578 19.2376 111.018 19.3405 111.443 19.4415C111.872 19.5492 112.305 19.627 112.738 19.7137C113.61 19.8632 114.481 19.9697 115.405 19.9368C114.564 20.3436 113.596 20.4483 112.668 20.4261C112.199 20.4207 111.736 20.3609 111.275 20.2963C110.812 20.2215 110.368 20.1193 109.901 19.9901C109.657 19.9225 109.514 19.6706 109.581 19.4266C109.627 19.2597 109.76 19.1401 109.918 19.1024L109.931 19.0994C110.328 19.0061 110.745 18.8362 111.154 18.6556C111.571 18.4881 111.976 18.2745 112.393 18.0813C113.222 17.6776 114.05 17.2553 114.921 16.873Z" fill="#28000C"/>
<path d="M100.01 25.139C100.01 25.139 106.439 22.0519 112.457 21.8359C112.457 21.8359 112.271 25.6821 106.933 27.0986C101.596 28.515 100.01 25.139 100.01 25.139Z" fill="#420005"/>
<path d="M103.475 27.3607C103.475 27.3607 105.818 23.7585 110.347 25.5584C110.347 25.5584 107.613 27.7028 103.475 27.3607Z" fill="#FC5E9E"/>
<path d="M82.2701 111.72C84.5745 107.997 83.4245 103.111 79.7014 100.806C75.9784 98.5019 71.0922 99.652 68.7877 103.375C66.4833 107.098 67.6334 111.984 71.3564 114.289C75.0795 116.593 79.9657 115.443 82.2701 111.72Z" fill="#FBCC0A"/>
<path d="M69.4473 110.397C70.5646 110.313 71.6437 110.31 72.7306 110.302H72.7443C72.9028 110.301 73.0326 110.429 73.0338 110.587C73.0344 110.664 73.0039 110.735 72.9549 110.787C72.7563 110.996 72.5673 111.174 72.3513 111.339C72.1366 111.501 71.9153 111.654 71.6772 111.779C71.2089 112.037 70.6867 112.214 70.1579 112.245C70.6191 111.985 71.0384 111.713 71.4302 111.402C71.6234 111.244 71.8172 111.089 71.9972 110.918C72.1749 110.751 72.3639 110.576 72.5122 110.403L72.7366 110.888C72.1809 110.893 71.6246 110.866 71.0731 110.789C70.5228 110.713 69.9736 110.601 69.4473 110.397Z" fill="#28000C"/>
<path d="M82.2189 107.231C81.8014 107.671 81.3306 108.048 80.8276 108.381C80.3215 108.713 79.7939 109.012 79.1545 109.178L79.1808 108.612C79.7018 108.778 80.2581 108.907 80.8054 109.019C81.3587 109.122 81.912 109.197 82.5 109.184C81.9617 109.436 81.345 109.494 80.7546 109.472C80.157 109.448 79.5798 109.342 78.9984 109.171C78.8441 109.125 78.7555 108.963 78.801 108.808C78.8315 108.705 78.9134 108.632 79.0109 108.608L79.0247 108.605C79.5373 108.479 80.0733 108.22 80.6002 107.978C81.1308 107.729 81.662 107.467 82.2189 107.231Z" fill="#28000C"/>
<path d="M72.6602 112.359C72.6602 112.359 76.7773 110.451 80.6079 110.365C80.6079 110.365 80.4566 112.811 77.0483 113.666C73.6405 114.521 72.6602 112.359 72.6602 112.359Z" fill="#420005"/>
<path d="M74.8457 113.802C74.8457 113.802 76.3674 111.531 79.2338 112.715C79.2338 112.715 77.4758 114.056 74.8457 113.802Z" fill="#FC5E9E"/>
<path d="M207.909 72.096C211.319 72.096 214.082 69.3323 214.082 65.923C214.082 62.5137 211.319 59.75 207.909 59.75C204.5 59.75 201.736 62.5137 201.736 65.923C201.736 69.3323 204.5 72.096 207.909 72.096Z" fill="#FBCC0A"/>
<g opacity="0.5">
<path d="M206.352 62.4258V69.4889" stroke="#720101" stroke-width="1.3511" stroke-miterlimit="10" stroke-linecap="round" stroke-linejoin="round"/>
<path d="M211.674 64.418H204.611" stroke="#720101" stroke-width="1.3511" stroke-miterlimit="10" stroke-linecap="round" stroke-linejoin="round"/>
<path d="M211.674 67.4941H204.611" stroke="#720101" stroke-width="1.3511" stroke-miterlimit="10" stroke-linecap="round" stroke-linejoin="round"/>
<path d="M209.68 62.4258V69.4889" stroke="#720101" stroke-width="1.3511" stroke-miterlimit="10" stroke-linecap="round" stroke-linejoin="round"/>
</g>
<path d="M37.9487 72.0595C43.2717 72.0595 47.5868 67.7444 47.5868 62.4214C47.5868 57.0984 43.2717 52.7832 37.9487 52.7832C32.6257 52.7832 28.3105 57.0984 28.3105 62.4214C28.3105 67.7444 32.6257 72.0595 37.9487 72.0595Z" fill="#FBCC0A"/>
<g opacity="0.5">
<path d="M40.0447 58.4229C40.0447 58.4229 33.9465 58.6334 34.577 61.4723C35.208 64.3111 41.7878 59.8315 42.3883 63.7537C42.9889 67.6758 36.7854 67.4658 36.2596 67.2553" stroke="#720101" stroke-width="2.1094" stroke-miterlimit="10" stroke-linecap="round" stroke-linejoin="round"/>
<path d="M36.1543 57.1592L39.2037 68.4835" stroke="#720101" stroke-width="2.1094" stroke-miterlimit="10" stroke-linecap="round" stroke-linejoin="round"/>
</g>
<path d="M224.278 113.027C231.756 113.027 237.818 106.965 237.818 99.4872C237.818 92.0093 231.756 85.9473 224.278 85.9473C216.8 85.9473 210.738 92.0093 210.738 99.4872C210.738 106.965 216.8 113.027 224.278 113.027Z" fill="#1D70CC"/>
<path d="M221.237 98.646C221.237 98.646 222.379 98.2691 222.531 96.2916C222.683 94.3141 222.987 94.3141 224.508 94.466C226.029 94.618 226.106 95.5307 225.573 97.1284C225.04 98.7261 225.573 99.4864 227.247 98.954C228.92 98.4216 230.441 97.7368 231.05 100.323C231.659 102.91 230.365 104.735 228.236 104.963C226.106 105.192 220.705 104.431 220.705 104.431L221.237 98.646Z" fill="white"/>
<path d="M220.356 105.264H219.226C218.742 105.264 218.346 104.868 218.346 104.384V98.0055C218.346 97.521 218.742 97.125 219.226 97.125H220.356C220.84 97.125 221.236 97.5216 221.236 98.0055V104.384C221.237 104.868 220.84 105.264 220.356 105.264Z" fill="#0F2A6B"/>
<path d="M60.7985 52.969C66.3319 52.969 70.8177 48.4833 70.8177 42.9498C70.8177 37.4164 66.3319 32.9307 60.7985 32.9307C55.265 32.9307 50.7793 37.4164 50.7793 42.9498C50.7793 48.4833 55.265 52.969 60.7985 52.969Z" fill="#1D70CC"/>
<path d="M58.5465 42.3303C58.5465 42.3303 59.3905 42.0515 59.5036 40.5878C59.616 39.1241 59.8416 39.1241 60.9673 39.2372C62.093 39.3496 62.1493 40.025 61.7551 41.2075C61.3609 42.3895 61.7551 42.9524 62.9933 42.5582C64.2314 42.164 65.3572 41.6573 65.8076 43.5715C66.258 45.485 65.301 46.8362 63.7248 47.0049C62.1487 47.1736 58.1523 46.6107 58.1523 46.6107L58.5465 42.3303Z" fill="white"/>
<path d="M57.4777 47.2289C56.8897 47.2289 56.4082 46.7474 56.4082 46.1594V42.2756C56.4082 41.6876 56.8891 41.2061 57.4777 41.2061C58.0657 41.2061 58.5472 41.6876 58.5472 42.2756V46.1594C58.5472 46.7474 58.0657 47.2289 57.4777 47.2289Z" fill="#0F2A6B"/>
<path d="M168.115 82.8359C167.316 85.5073 164.502 87.0254 161.83 86.2263C159.159 85.4271 157.641 82.6134 158.44 79.9414C159.239 77.2694 162.053 75.7519 164.725 76.551C167.396 77.3508 168.915 80.1645 168.115 82.8359Z" fill="#1D70CC"/>
<path d="M162.281 80.7611C162.281 80.7611 162.729 80.7486 162.995 80.0583C163.261 79.368 163.369 79.4003 163.897 79.6174C164.425 79.8346 164.354 80.1683 163.993 80.6828C163.631 81.1966 163.741 81.525 164.395 81.5136C165.05 81.5022 165.667 81.4203 165.608 82.4091C165.549 83.3978 164.892 83.9122 164.106 83.7657C163.321 83.6197 161.473 82.7703 161.473 82.7703L162.281 80.7611Z" fill="white"/>
<path d="M161.15 82.9988L160.963 82.9432C160.731 82.8738 160.597 82.6262 160.667 82.3935L161.284 80.3317C161.353 80.099 161.601 79.9656 161.833 80.035L162.02 80.0906C162.253 80.16 162.386 80.4076 162.317 80.6403L161.7 82.7022C161.63 82.9354 161.383 83.0688 161.15 82.9988Z" fill="#0F2A6B"/>
<path d="M147.346 30.7625C151.319 26.7893 151.319 20.3475 147.346 16.3743C143.373 12.4011 136.931 12.4011 132.958 16.3743C128.985 20.3475 128.985 26.7893 132.958 30.7625C136.931 34.7357 143.373 34.7357 147.346 30.7625Z" fill="#1D70CC"/>
<path d="M137.867 22.9303C137.867 22.9303 138.724 22.6473 138.839 21.1609C138.953 19.6751 139.182 19.6751 140.325 19.7893C141.468 19.9036 141.525 20.5897 141.125 21.7896C140.725 22.9901 141.125 23.5613 142.382 23.1612C143.64 22.761 144.783 22.2466 145.24 24.19C145.697 26.1334 144.726 27.505 143.125 27.6767C141.525 27.8483 137.467 27.2765 137.467 27.2765L137.867 22.9303Z" fill="white"/>
<path d="M136.782 27.9066C136.184 27.9066 135.695 27.4179 135.695 26.8203V22.8767C135.695 22.2797 136.184 21.791 136.782 21.791C137.379 21.791 137.867 22.2797 137.867 22.8767V26.8203C137.867 27.4179 137.379 27.9066 136.782 27.9066Z" fill="#0F2A6B"/>
<path d="M14.2721 95.97C20.6386 95.2628 25.2264 89.5285 24.5192 83.162C23.812 76.7955 18.0777 72.2077 11.7112 72.9149C5.34467 73.622 0.756873 79.3564 1.46405 85.7229C2.17122 92.0894 7.90557 96.6772 14.2721 95.97Z" fill="#1D70CC"/>
<path d="M10.3047 84.7174C10.3047 84.7174 11.0973 84.0607 10.6014 82.4355C10.1055 80.8103 10.3484 80.7151 11.6093 80.3616C12.8702 80.0081 13.2159 80.7128 13.2895 82.1531C13.3631 83.5935 14.0252 84.0343 15.194 83.0868C16.3628 82.14 17.363 81.1189 18.6556 82.9917C19.9482 84.8652 19.4864 86.7249 17.8588 87.5718C16.2313 88.4188 11.6852 89.4979 11.6852 89.4979L10.3047 84.7174Z" fill="white"/>
<path d="M11.218 90.4469C10.584 90.6952 9.86199 90.3793 9.61375 89.7453L7.97539 85.5582C7.72715 84.9241 8.04298 84.2021 8.67703 83.9539C9.31108 83.7057 10.0331 84.0215 10.2813 84.6555L11.9197 88.8427C12.1685 89.4767 11.8527 90.1987 11.218 90.4469Z" fill="#0F2A6B"/>
<path opacity="0.37" d="M34.4246 38.2089C30.3571 40.3384 25.3326 38.7652 23.2031 34.6977C21.7556 31.9282 22.0248 28.7042 23.6398 26.2637C23.5142 26.7362 22.1683 32.1017 28.4071 34.3867C28.8797 34.5661 29.406 34.7217 29.9743 34.8592C30.6682 35.0207 31.3022 35.1164 31.8824 35.1583C32.7976 35.2241 33.5872 35.1463 34.2691 34.9609C34.6699 34.8652 35.0288 34.7217 35.3577 34.5542C38.4084 32.993 38.4801 29.0631 38.4801 29.0631C38.4801 29.0631 38.6297 29.3801 38.8271 29.9304C39.1919 33.2322 37.541 36.5759 34.4246 38.2089Z" fill="#420005"/>
<path opacity="0.49" d="M28.3253 24.6457C29.4397 22.9044 35.5128 24.9579 34.5318 27.9098C33.5508 30.8612 26.6887 27.2034 28.3253 24.6457Z" fill="#FFFF57"/>
<path opacity="0.37" d="M110.046 28.5661C103.997 31.7334 96.5243 29.3934 93.3571 23.3442C91.2043 19.2253 91.6045 14.4304 94.0067 10.8008C93.82 11.5036 91.818 19.4837 101.097 22.8818C101.799 23.1486 102.582 23.3801 103.428 23.5847C104.46 23.8251 105.403 23.9675 106.265 24.0297C107.626 24.1278 108.801 24.0117 109.815 23.736C110.411 23.5936 110.945 23.3801 111.434 23.1312C115.971 20.8092 116.078 14.9646 116.078 14.9646C116.078 14.9646 116.3 15.4359 116.594 16.2548C117.137 21.1645 114.681 26.1376 110.046 28.5661Z" fill="#420005"/>
<path opacity="0.49" d="M100.977 8.39505C102.634 5.80502 111.666 8.85982 110.207 13.2491C108.749 17.639 98.5434 12.1993 100.977 8.39505Z" fill="#FFFF57"/>
<path opacity="0.37" d="M164.252 62.7927C170.447 66.0359 178.1 63.6396 181.343 57.4451C183.548 53.2269 183.137 48.3166 180.678 44.5996C180.869 45.3192 182.919 53.4913 173.417 56.9714C172.697 57.2447 171.895 57.4816 171.03 57.6909C169.973 57.9368 169.008 58.0827 168.123 58.1467C166.73 58.2472 165.527 58.1288 164.488 57.8459C163.878 57.6999 163.332 57.4816 162.83 57.2262C158.184 54.8485 158.075 48.8627 158.075 48.8627C158.075 48.8627 157.847 49.3454 157.547 50.1834C156.991 55.2128 159.506 60.3055 164.252 62.7927Z" fill="#420005"/>
<path opacity="0.49" d="M173.541 42.1347C171.844 39.4824 162.594 42.6108 164.088 47.106C165.583 51.6011 176.034 46.0305 173.541 42.1347Z" fill="#FFFF57"/>
<path opacity="0.37" d="M204.833 71.2664C207.925 72.8857 211.745 71.6893 213.364 68.5968C214.465 66.4913 214.26 64.0401 213.032 62.1846C213.128 62.5441 214.151 66.6229 209.408 68.3606C209.048 68.497 208.648 68.6154 208.216 68.7201C207.688 68.8427 207.206 68.9157 206.766 68.9474C206.07 68.9976 205.469 68.9384 204.951 68.7972C204.646 68.7242 204.373 68.6154 204.123 68.488C201.804 67.3012 201.749 64.3128 201.749 64.3128C201.749 64.3128 201.635 64.5539 201.485 64.9726C201.209 67.4825 202.464 70.0247 204.833 71.2664Z" fill="#420005"/>
<path opacity="0.49" d="M209.469 60.9515C208.622 59.6272 204.005 61.189 204.751 63.4327C205.496 65.677 210.714 62.8955 209.469 60.9515Z" fill="#FFFF57"/>
<path opacity="0.37" d="M191.283 108.877C195.502 111.086 200.714 109.454 202.923 105.235C204.425 102.362 204.146 99.0174 202.471 96.4854C202.601 96.9758 203.997 102.542 197.525 104.912C197.035 105.098 196.489 105.259 195.899 105.402C195.18 105.569 194.522 105.668 193.92 105.712C192.971 105.78 192.152 105.699 191.444 105.507C191.028 105.408 190.656 105.259 190.315 105.086C187.151 103.466 187.076 99.3894 187.076 99.3894C187.076 99.3894 186.921 99.7184 186.716 100.289C186.338 103.714 188.05 107.183 191.283 108.877Z" fill="#420005"/>
<path opacity="0.49" d="M197.609 94.8063C196.454 92.9999 190.153 95.1305 191.171 98.1925C192.189 101.254 199.307 97.4598 197.609 94.8063Z" fill="#FFFF57"/>
<path opacity="0.37" d="M222.161 112.946C229.636 114.021 236.567 108.829 237.642 101.354C238.37 96.266 236.187 91.4132 232.345 88.5127C232.799 89.1767 237.825 96.7613 229.4 103.722C228.766 104.259 228.035 104.789 227.228 105.313C226.241 105.944 225.31 106.44 224.433 106.822C223.049 107.426 221.782 107.738 220.623 107.824C219.949 107.895 219.314 107.869 218.712 107.789C213.126 107.039 210.862 100.983 210.862 100.983C210.862 100.983 210.804 101.557 210.799 102.519C212.042 107.839 216.433 112.121 222.161 112.946Z" fill="#420005"/>
<path opacity="0.49" d="M224.191 88.5697C221.509 86.4791 213.215 92.9913 216.353 97.0313C219.491 101.072 228.13 91.64 224.191 88.5697Z" fill="#FFFED4"/>
<path opacity="0.37" d="M138.663 33.4429C144.201 34.239 149.335 30.3929 150.13 24.8557C150.669 21.0867 149.052 17.4917 146.206 15.3438C146.542 15.836 150.265 21.454 144.025 26.6101C143.555 27.0079 143.014 27.4003 142.417 27.7891C141.685 28.2562 140.996 28.6235 140.346 28.907C139.321 29.3539 138.383 29.5847 137.524 29.6487C137.024 29.7014 136.554 29.6822 136.108 29.623C131.97 29.0673 130.293 24.5817 130.293 24.5817C130.293 24.5817 130.25 25.0064 130.246 25.7188C131.167 29.6595 134.421 32.831 138.663 33.4429Z" fill="#420005"/>
<path opacity="0.49" d="M140.165 15.3869C138.179 13.8383 132.035 18.6624 134.359 21.655C136.684 24.6476 143.083 17.6611 140.165 15.3869Z" fill="#FFFED4"/>
<path opacity="0.37" d="M162.533 86.2619C165.152 86.6387 167.581 84.8191 167.957 82.1992C168.213 80.4161 167.447 78.7155 166.101 77.6992C166.26 77.9319 168.022 80.5895 165.07 83.0294C164.847 83.2178 164.591 83.4033 164.309 83.5869C163.962 83.8076 163.636 83.9817 163.329 84.1157C162.844 84.3274 162.4 84.4363 161.994 84.4668C161.758 84.4919 161.535 84.4823 161.324 84.4548C159.366 84.1916 158.573 82.0694 158.573 82.0694C158.573 82.0694 158.553 82.2703 158.551 82.6071C158.986 84.4722 160.525 85.9724 162.533 86.2619Z" fill="#420005"/>
<path opacity="0.49" d="M163.243 77.7177C162.304 76.9849 159.397 79.2675 160.497 80.6833C161.597 82.0986 164.624 78.7937 163.243 77.7177Z" fill="#FFFED4"/>
<path d="M138.922 52.5365C140.184 54.8801 139.308 57.8027 136.964 59.0642C134.62 60.3257 131.698 59.4494 130.436 57.1058C129.175 54.7622 130.051 51.8402 132.395 50.5781C134.738 49.316 137.66 50.1929 138.922 52.5365Z" fill="#FBCC0A"/>
<path d="M136.577 56.8572C136.878 57.4165 136.669 58.1145 136.109 58.416C135.55 58.7175 134.851 58.5081 134.55 57.9482C134.249 57.389 134.458 56.6909 135.018 56.3894C135.578 56.0886 136.276 56.2979 136.577 56.8572Z" fill="#420005"/>
<path d="M132.575 56.9048C132.667 57.0759 132.645 57.2667 132.527 57.3301C132.408 57.3941 132.238 57.3068 132.145 57.1357C132.053 56.9647 132.074 56.7738 132.193 56.7104C132.312 56.6464 132.482 56.7338 132.575 56.9048Z" fill="#260005"/>
<path d="M138.117 54.5669C138.163 54.7553 138.095 54.9347 137.964 54.967C137.834 54.9993 137.69 54.8725 137.644 54.6835C137.597 54.4951 137.665 54.3156 137.796 54.2833C137.927 54.251 138.07 54.3779 138.117 54.5669Z" fill="#260005"/>
<path d="M131.207 56.1353C131.207 56.1353 131.288 55.6 131.907 55.6658" stroke="#28000C" stroke-width="0.5431" stroke-miterlimit="10" stroke-linecap="round" stroke-linejoin="round"/>
<path d="M137.16 53.4816C137.16 53.4816 137.51 53.0468 137.969 53.3841" stroke="#28000C" stroke-width="0.5431" stroke-miterlimit="10" stroke-linecap="round" stroke-linejoin="round"/>
<path opacity="0.37" d="M132.275 59.0154C134.67 60.2698 137.629 59.3432 138.884 56.9476C139.736 55.3164 139.578 53.4178 138.626 51.9805C138.701 52.2586 139.493 55.4187 135.819 56.7646C135.541 56.8704 135.23 56.9619 134.896 57.0427C134.487 57.1378 134.114 57.194 133.772 57.2186C133.233 57.2574 132.768 57.2114 132.366 57.1025C132.13 57.0463 131.919 56.9613 131.725 56.8632C129.928 55.9439 129.886 53.629 129.886 53.629C129.886 53.629 129.798 53.8156 129.682 54.1398C129.467 56.0844 130.439 58.0536 132.275 59.0154Z" fill="#420005"/>
<path opacity="0.49" d="M135.867 51.0254C135.21 49.9995 131.634 51.2096 132.211 52.9478C132.789 54.6861 136.83 52.5315 135.867 51.0254Z" fill="#FFFF57"/>
<path opacity="0.37" d="M105.534 55.887C108.089 57.225 111.246 56.2363 112.584 53.6809C113.493 51.9409 113.325 49.9149 112.31 48.3818C112.389 48.6785 113.234 52.0498 109.314 53.4853C109.017 53.5984 108.687 53.6959 108.33 53.782C107.893 53.8837 107.495 53.9435 107.131 53.9699C106.556 54.0111 106.059 53.9621 105.631 53.846C105.379 53.7856 105.154 53.6959 104.948 53.5906C103.031 52.6096 102.986 50.1404 102.986 50.1404C102.986 50.1404 102.892 50.3396 102.768 50.6853C102.538 52.7604 103.575 54.8611 105.534 55.887Z" fill="#420005"/>
<path opacity="0.37" d="M198.956 43.9752C204.172 44.8198 209.086 41.2733 209.93 36.0574C210.503 32.5067 209.035 29.0846 206.384 27.0078C206.693 27.478 210.115 32.8464 204.135 37.612C203.684 37.9799 203.166 38.3411 202.596 38.6982C201.897 39.1271 201.24 39.4621 200.621 39.7193C199.646 40.1243 198.755 40.3264 197.944 40.3725C197.471 40.4138 197.027 40.3875 196.607 40.3246C192.708 39.7301 191.2 35.4658 191.2 35.4658C191.2 35.4658 191.152 35.8666 191.137 36.5389C191.94 40.2768 194.96 43.3268 198.956 43.9752Z" fill="#420005"/>
<path opacity="0.37" d="M186.518 153.451C188.468 153.767 190.305 152.441 190.621 150.491C190.835 149.163 190.287 147.884 189.296 147.107C189.411 147.283 190.69 149.29 188.455 151.071C188.286 151.209 188.093 151.344 187.879 151.478C187.618 151.638 187.372 151.763 187.141 151.859C186.777 152.011 186.444 152.086 186.14 152.103C185.964 152.119 185.798 152.109 185.641 152.085C184.183 151.863 183.619 150.269 183.619 150.269C183.619 150.269 183.601 150.418 183.596 150.67C183.895 152.068 185.024 153.208 186.518 153.451Z" fill="#420005"/>
<path opacity="0.37" d="M57.9113 52.5433C52.5536 50.8679 49.57 45.1638 51.2454 39.8067C52.3885 36.1609 55.4086 33.6062 58.9144 32.8926C58.397 33.1929 51.3986 36.6676 54.817 44.0369C55.0707 44.6004 55.3913 45.1902 55.7633 45.8003C56.2233 46.5396 56.6887 47.1707 57.1547 47.7084C57.8892 48.5566 58.6387 49.1721 59.3888 49.601C59.8183 49.8648 60.2525 50.0508 60.6814 50.1902C64.6681 51.478 69.3242 48.1421 69.3242 48.1421C69.3242 48.1421 69.1795 48.5452 68.8744 49.1918C66.3352 52.3621 62.0171 53.8258 57.9113 52.5433Z" fill="#420005"/>
<path opacity="0.49" d="M64.3658 35.5424C66.8344 35.0005 70.3091 42.0265 66.9097 43.73C63.5098 45.4336 60.7397 36.3386 64.3658 35.5424Z" fill="#FCFAB6"/>
<path d="M40.4852 139.743C41.3538 141.432 40.6886 143.505 39 144.373C37.3114 145.241 35.2382 144.576 34.3697 142.887C33.5011 141.199 34.1663 139.126 35.8549 138.257C37.5441 137.389 39.6173 138.054 40.4852 139.743Z" fill="#1D70CC"/>
<path d="M36.643 141.485C36.643 141.485 36.8572 141.267 36.6616 140.803C36.4666 140.339 36.5348 140.303 36.896 140.161C37.2573 140.019 37.3806 140.216 37.4458 140.638C37.511 141.061 37.7197 141.171 38.0355 140.856C38.3514 140.542 38.6158 140.21 39.0536 140.723C39.4915 141.237 39.4113 141.799 38.9567 142.098C38.5021 142.397 37.1945 142.852 37.1945 142.852L36.643 141.485Z" fill="white"/>
<path d="M37.0853 143.147C36.9059 143.239 36.6834 143.168 36.5912 142.988L35.9817 141.803C35.8896 141.623 35.9608 141.401 36.1402 141.309C36.3197 141.217 36.5422 141.288 36.6343 141.467L37.2438 142.652C37.3359 142.832 37.2648 143.055 37.0853 143.147Z" fill="#0F2A6B"/>
<path opacity="0.37" d="M36.4247 144.686C34.6206 144.122 33.6163 142.201 34.1804 140.397C34.565 139.17 35.5819 138.31 36.7626 138.069C36.5886 138.17 34.2324 139.34 35.3833 141.822C35.4688 142.011 35.5765 142.21 35.7021 142.416C35.857 142.664 36.0137 142.877 36.1705 143.058C36.4175 143.343 36.6699 143.551 36.9223 143.695C37.0671 143.784 37.213 143.846 37.3578 143.894C38.7001 144.327 40.2679 143.204 40.2679 143.204C40.2679 143.204 40.2188 143.34 40.1165 143.557C39.2611 144.625 37.807 145.117 36.4247 144.686Z" fill="#420005"/>
<path opacity="0.49" d="M38.5984 138.963C39.4298 138.781 40.5992 141.146 39.4549 141.719C38.3101 142.294 37.3775 139.232 38.5984 138.963Z" fill="#FCFAB6"/>
<path opacity="0.37" d="M35.0771 71.7215C29.8516 70.0874 26.9416 64.5239 28.5757 59.2983C29.6901 55.7423 32.6361 53.2509 36.0557 52.5547C35.5515 52.8472 28.7253 56.237 32.0594 63.4239C32.3065 63.9736 32.6193 64.5484 32.9824 65.1436C33.4316 65.8649 33.885 66.4804 34.339 67.0044C35.055 67.8317 35.7866 68.4316 36.5181 68.8504C36.9368 69.1076 37.3603 69.2894 37.779 69.4252C41.6677 70.6813 46.2089 67.4279 46.2089 67.4279C46.2089 67.4279 46.0677 67.8215 45.7699 68.452C43.2941 71.5445 39.0824 72.9723 35.0771 71.7215Z" fill="#420005"/>
<path opacity="0.49" d="M41.3723 55.1423C43.7805 54.6135 47.169 61.466 43.8534 63.1277C40.5378 64.7894 37.8359 55.9193 41.3723 55.1423Z" fill="#FCFAB6"/>
<path opacity="0.37" d="M9.30543 95.5071C3.24847 93.6127 -0.125157 87.164 1.76922 81.1064C3.06124 76.9845 6.47614 74.096 10.4401 73.2891C9.85514 73.6282 1.94268 77.5569 5.8074 85.8887C6.09391 86.5257 6.4564 87.1927 6.8775 87.8824C7.3979 88.7186 7.92428 89.4316 8.45007 90.0399C9.28031 90.9988 10.1279 91.6944 10.9761 92.1796C11.4612 92.478 11.9523 92.688 12.438 92.8459C16.9457 94.3018 22.2101 90.5304 22.2101 90.5304C22.2101 90.5304 22.0462 90.9862 21.7017 91.7172C18.8299 95.3019 13.9478 96.9571 9.30543 95.5071Z" fill="#420005"/>
<path opacity="0.49" d="M16.6045 76.2885C19.3955 75.6754 23.3242 83.6196 19.4805 85.5457C15.6367 87.4717 12.5047 77.1888 16.6045 76.2885Z" fill="#FCFAB6"/>
<path opacity="0.37" d="M29.9483 127.288C24.1874 125.487 20.9789 119.353 22.7805 113.593C24.0091 109.672 27.2566 106.926 31.0268 106.158C30.4705 106.481 22.9456 110.217 26.6207 118.141C26.8935 118.747 27.238 119.381 27.6382 120.037C28.1329 120.832 28.6335 121.511 29.1342 122.089C29.9237 123.001 30.7301 123.663 31.5364 124.124C31.9982 124.407 32.4647 124.608 32.9265 124.758C37.2135 126.143 42.2201 122.556 42.2201 122.556C42.2201 122.556 42.0646 122.99 41.7362 123.685C39.0068 127.094 34.3633 128.667 29.9483 127.288Z" fill="#420005"/>
<path opacity="0.37" d="M55.2588 157.906C49.4979 156.104 46.2894 149.971 48.0911 144.21C49.3203 140.29 52.5677 137.543 56.3373 136.775C55.781 137.098 48.2562 140.834 51.9313 148.758C52.2034 149.364 52.5486 149.998 52.9487 150.654C53.4434 151.449 53.9441 152.128 54.4447 152.706C55.2343 153.618 56.0406 154.28 56.8469 154.741C57.3087 155.025 57.7753 155.225 58.2371 155.375C62.5241 156.76 67.5307 153.173 67.5307 153.173C67.5307 153.173 67.3751 153.607 67.0468 154.302C64.3173 157.711 59.6738 159.285 55.2588 157.906Z" fill="#420005"/>
<path opacity="0.49" d="M62.1992 139.627C64.8538 139.044 68.5906 146.599 64.9346 148.43C61.2792 150.263 58.3004 140.483 62.1992 139.627Z" fill="#FCFAB6"/>
<path opacity="0.37" d="M73.1808 115.222C68.95 113.899 66.5938 109.394 67.9169 105.163C68.8196 102.284 71.2044 100.267 73.9733 99.7031C73.5648 99.94 68.0384 102.684 70.7373 108.504C70.9371 108.949 71.1907 109.414 71.4844 109.896C71.8481 110.48 72.2153 110.978 72.5832 111.403C73.1628 112.073 73.755 112.559 74.3472 112.898C74.6863 113.106 75.0291 113.253 75.3682 113.363C78.5169 114.38 82.1938 111.746 82.1938 111.746C82.1938 111.746 82.0796 112.065 81.8385 112.575C79.8335 115.079 76.4234 116.234 73.1808 115.222Z" fill="#420005"/>
<path opacity="0.49" d="M78.2781 101.801C80.2275 101.373 82.9719 106.921 80.2867 108.266C77.6022 109.612 75.4147 102.43 78.2781 101.801Z" fill="#FCFAB6"/>
<path opacity="0.37" d="M77.2195 24.2614C74.0086 25.9423 70.0428 24.7005 68.3614 21.4895C67.2189 19.3033 67.4312 16.7581 68.7059 14.832C68.6066 15.2053 67.5443 19.4403 72.4689 21.2443C72.8422 21.3861 73.2573 21.5087 73.7059 21.6176C74.2538 21.745 74.7539 21.8209 75.2121 21.8538C75.9347 21.9059 76.558 21.8443 77.0957 21.6977C77.4121 21.6223 77.6957 21.5087 77.9553 21.3765C80.3635 20.1443 80.4197 17.0422 80.4197 17.0422C80.4197 17.0422 80.5375 17.2923 80.6936 17.7271C80.9831 20.3327 79.6798 22.9724 77.2195 24.2614Z" fill="#420005"/>
<path d="M97.9243 81.2038L91.3087 81.5626C91.3087 81.5626 91.1053 82.8846 90.7404 84.0809C90.5371 84.7389 89.8193 85.1875 89.0177 85.1576C85.6621 85.032 76.6119 84.6491 72.1795 84.1228C71.5275 84.045 70.9952 83.6562 70.7978 83.1418C70.7978 83.1418 70.7918 83.1238 70.7798 83.088C70.7499 82.9982 70.732 82.9085 70.72 82.8068C70.403 79.2597 69.5476 68.1938 70.6482 61.7994C70.7439 61.2252 71.2464 60.7646 71.9044 60.627C74.9251 59.975 83.8616 58.5155 93.7013 61.1893C93.8269 61.2192 93.9466 61.2491 94.0722 61.285C94.5926 61.4286 94.9874 61.7755 95.1489 62.1942C95.2147 62.3617 95.2446 62.5471 95.2326 62.7326C95.0651 65.2149 94.5268 71.4836 93.2168 76.7953L97.9243 81.2038Z" fill="#3381FF"/>
<path opacity="0.21" d="M97.9234 81.2029L91.3078 81.5618C91.3078 81.5618 91.1044 82.8837 90.7395 84.0801C90.5361 84.738 89.8184 85.1867 89.0168 85.1568C85.6611 85.0311 76.611 84.6483 72.1786 84.1219C71.5266 84.0442 70.9943 83.6554 70.7969 83.1409C75.2711 83.452 88.5861 84.3373 89.3279 83.7929C90.2251 83.1469 90.4823 80.6048 90.4823 80.6048H95.9973L91.888 77.0218C94.6276 67.0684 93.7542 61.4876 93.7004 61.1885C93.826 61.2184 93.9457 61.2483 94.0713 61.2842C94.801 61.4876 95.2796 62.0857 95.2317 62.7317C95.0642 65.2141 94.5259 71.4828 93.2159 76.7945L97.9234 81.2029Z" fill="#420005"/>
<path opacity="0.28" d="M95.1489 62.1942C95.1489 62.1882 95.1429 62.1882 95.1429 62.1882C91.53 60.4117 80.805 61.1714 75.2242 62.4275C69.6373 63.6836 70.7978 83.1418 70.7978 83.1418C70.7978 83.1418 70.7918 83.1238 70.7798 83.088C70.7499 82.9982 70.732 82.9085 70.72 82.8068C70.403 79.2597 69.5476 68.1938 70.6482 61.7994C70.7439 61.2252 71.2464 60.7646 71.9044 60.627C74.9251 59.975 83.8616 58.5155 93.7013 61.1893C93.8269 61.2192 93.9466 61.2491 94.0722 61.285C94.5926 61.4286 94.9874 61.7755 95.1489 62.1942Z" fill="#08FCFC"/>
<path d="M204.093 140.712C203.925 141.34 203.387 141.795 202.741 141.867C199.84 142.184 191.274 142.973 182.822 142.303C182.822 142.303 182.643 141.609 182.475 140.85C182.391 140.467 182.308 140.072 182.248 139.737C182.248 139.737 178.97 140.413 176.428 139.528L181.53 136.124C181.53 136.124 181.081 127.301 181.147 123.204C181.159 122.414 181.757 121.756 182.541 121.667C186.297 121.224 197.136 120.147 203.71 121.463C203.817 121.481 203.919 121.499 204.021 121.523C204.739 121.679 205.253 122.301 205.271 123.037C205.337 126.362 205.397 135.759 204.093 140.712Z" fill="#3381FF"/>
<path opacity="0.28" d="M205.271 123.034C200.928 122.693 185.484 122.777 183.594 123.04C181.709 123.297 182.744 135.799 182.744 135.799C182.744 135.799 180.699 138.527 180.567 138.58C180.717 138.539 182.744 137.934 182.744 137.934L182.822 142.301C182.822 142.301 182.421 140.74 182.248 139.735C182.248 139.735 178.97 140.411 176.428 139.526L181.53 136.122C181.53 136.122 181.081 127.299 181.147 123.202C181.159 122.412 181.757 121.754 182.541 121.664C186.357 121.216 197.483 120.109 204.021 121.521C204.739 121.676 205.253 122.298 205.271 123.034Z" fill="#08FCFC"/>
<path opacity="0.21" d="M204.092 140.712C203.925 141.34 203.386 141.794 202.74 141.866C199.839 142.183 191.274 142.973 182.822 142.303C182.822 142.303 182.642 141.609 182.475 140.849C190.191 141.531 201.933 142.07 202.932 139.18C204.104 135.789 203.865 125.698 203.709 121.463C203.817 121.481 203.919 121.499 204.02 121.523C204.738 121.678 205.253 122.3 205.27 123.036C205.336 126.362 205.396 135.759 204.092 140.712Z" fill="#420005"/>
<defs>
<linearGradient id="paint0_linear_3448_49916" x1="73.8662" y1="172.456" x2="73.8662" y2="222.516" gradientUnits="userSpaceOnUse">
<stop stop-color="#FF6501"/>
<stop offset="1" stop-color="#33A721"/>
</linearGradient>
</defs>
</svg>
