<svg width="198" height="198" viewBox="0 0 198 198" fill="none" xmlns="http://www.w3.org/2000/svg">
<path opacity="0.5" d="M98.5445 197.072C152.936 197.072 197.028 195.437 197.028 193.42C197.028 191.403 152.936 189.768 98.5445 189.768C44.1533 189.768 0.0605469 191.403 0.0605469 193.42C0.0605469 195.437 44.1533 197.072 98.5445 197.072Z" fill="#E6E6E6"/>
<path d="M187.244 92.207C186.193 90.9375 184.376 90.8238 182.765 90.8041C162.902 90.5617 143.125 91.758 123.262 91.5156C121.599 110.258 118.704 137.675 117.042 156.417C115.95 168.73 114.856 181.061 114.781 193.42C137.436 193.172 160.092 192.924 182.746 192.676C183.794 170.496 184.834 148.286 185.881 126.105C186.21 119.143 186.539 112.181 186.867 105.218C186.939 103.704 188.192 93.3509 187.244 92.207Z" fill="#F3F3F3"/>
<path d="M179.446 108.904H133.277V109.335H179.446V108.904Z" fill="#424D5E"/>
<path d="M179.446 118.441H133.277V118.872H179.446V118.441Z" fill="#424D5E"/>
<path d="M176.313 127.98H130.145V128.411H176.313V127.98Z" fill="#424D5E"/>
<path d="M176.971 137.518H130.803V137.948H176.971V137.518Z" fill="#424D5E"/>
<path d="M174.992 147.145H128.824V147.575H174.992V147.145Z" fill="#424D5E"/>
<path d="M174.664 156.594H128.496V157.024H174.664V156.594Z" fill="#424D5E"/>
<path d="M174.334 166.133H128.166V166.563H174.334V166.133Z" fill="#424D5E"/>
<path d="M173.016 175.67H126.848V176.1H173.016V175.67Z" fill="#424D5E"/>
<path d="M173.016 183.762H126.848V184.192H173.016V183.762Z" fill="#424D5E"/>
<path d="M180.119 1.43568C179.068 0.166165 177.251 0.0523514 175.64 0.0326255C155.777 -0.209824 136 0.986525 116.138 0.744195C114.474 19.4863 111.579 46.9039 109.917 65.6461C108.825 77.9585 107.731 90.2893 107.656 102.649C130.311 102.401 152.967 102.153 175.621 101.904C176.669 79.7242 177.709 57.5143 178.757 35.334C179.085 28.3716 179.414 21.4093 179.743 14.4469C179.814 12.9327 181.067 2.57966 180.119 1.43568Z" fill="#F3F3F3"/>
<path d="M171.146 12.8691H124.979V13.2996H171.146V12.8691Z" fill="#424D5E"/>
<path d="M171.146 22.4082H124.979V22.8387H171.146V22.4082Z" fill="#424D5E"/>
<path d="M168.014 31.9453H121.846V32.3758H168.014V31.9453Z" fill="#424D5E"/>
<path d="M168.674 41.4844H122.506V41.9149H168.674V41.4844Z" fill="#424D5E"/>
<path d="M166.695 51.1074H120.527V51.5379H166.695V51.1074Z" fill="#424D5E"/>
<path d="M166.365 60.5605H120.197V60.9911H166.365V60.5605Z" fill="#424D5E"/>
<path d="M166.035 70.0977H119.867V70.5282H166.035V70.0977Z" fill="#424D5E"/>
<path d="M164.717 79.6367H118.549V80.0672H164.717V79.6367Z" fill="#424D5E"/>
<path d="M164.717 87.7285H118.549V88.159H164.717V87.7285Z" fill="#424D5E"/>
<path d="M102.475 78.4577L105.251 74.916L106.366 75.3214L103.424 79.1246L102.475 79.276V78.4577Z" fill="#0D1719"/>
<path d="M118.421 71.0038C113.867 75.9591 107.828 77.8197 104.933 75.1591C104.822 75.057 104.717 74.9506 104.619 74.8379C107.627 77.0708 113.382 75.1688 117.765 70.4007C122.146 65.6337 123.558 59.7391 121.082 56.9297C121.201 57.019 121.316 57.1137 121.426 57.2148C124.321 59.8753 122.975 66.0496 118.421 71.0038Z" fill="#FFA300"/>
<path d="M117.756 70.4075C122.311 65.4526 123.656 59.279 120.762 56.6184C117.867 53.9577 111.828 55.8176 107.274 60.7725C102.719 65.7274 101.374 71.901 104.268 74.5617C107.163 77.2223 113.202 75.3625 117.756 70.4075Z" fill="#000C51"/>
<path d="M107.728 74.4922C106.644 74.4922 105.773 74.1971 105.14 73.6153C104.087 72.6482 103.765 70.9354 104.232 68.7925C104.752 66.4056 106.169 63.8617 108.221 61.6292C110.988 58.6189 114.558 56.6738 117.317 56.6738C118.402 56.6738 119.272 56.9689 119.905 57.5507C120.958 58.5178 121.28 60.2306 120.813 62.3735C120.293 64.7604 118.876 67.3043 116.824 69.5368C114.057 72.5471 110.487 74.4922 107.728 74.4922Z" fill="white"/>
<g opacity="0.49">
<path d="M108.324 63.5505C108.278 63.5505 108.231 63.5381 108.188 63.5124C108.062 63.4368 108.021 63.2735 108.097 63.1475C110.094 59.8207 113.995 58.292 114.16 58.2286C114.297 58.1762 114.451 58.2443 114.503 58.3814C114.556 58.5184 114.488 58.6723 114.351 58.7251C114.312 58.7401 110.454 60.2547 108.553 63.4215C108.503 63.5045 108.415 63.5505 108.324 63.5505Z" fill="#000C51"/>
</g>
<g opacity="0.49">
<path d="M107.988 73.7835C107.063 73.7835 106.523 73.5616 106.471 73.5392C106.336 73.4809 106.274 73.3244 106.332 73.1896C106.39 73.055 106.547 72.9929 106.681 73.0503C106.718 73.0658 109.606 74.2121 113.834 70.66C113.947 70.5656 114.115 70.58 114.209 70.6925C114.303 70.805 114.289 70.9727 114.176 71.0672C111.504 73.3124 109.336 73.7835 107.988 73.7835Z" fill="#000C51"/>
</g>
<path d="M90.8848 91.9333C90.8848 91.9333 92.2453 94.7378 94.7085 93.379C97.1717 92.0202 103.711 80.4891 103.711 80.4891C103.711 80.4891 103.711 77.8528 101.216 78.5401L90.8848 91.9333Z" fill="#424D5E"/>
<path d="M22.6646 188.381C22.6646 188.381 21.5803 192.448 21.9041 193.003C22.228 193.558 32.9639 193.558 33.3341 193.003C33.7043 192.447 33.3341 191.342 32.8019 190.9C32.2698 190.458 28.9675 188.581 28.9675 188.581L25.6293 187.932L22.6646 188.381Z" fill="#050505"/>
<path d="M46.1861 188.381C46.1861 188.381 45.1018 192.448 45.4256 193.003C45.7495 193.558 56.4854 193.558 56.8555 193.003C57.2257 192.447 56.8555 191.342 56.3234 190.9C55.7913 190.458 52.4889 188.581 52.4889 188.581L49.1508 187.932L46.1861 188.381Z" fill="#050505"/>
<path d="M62.5278 137.726C61.5431 144.357 53.1611 188.334 52.3721 188.739C51.5819 189.144 45.9645 189.074 46.0478 188.05C46.13 187.027 50.6406 140.221 50.2249 138.531C49.8093 136.842 42.5438 117.139 41.6654 118.273C40.7858 119.407 29.7215 188.27 28.9686 188.581C28.2158 188.891 22.636 188.837 22.2215 188.118C21.8929 187.545 24.5258 127.848 25.6108 103.576C25.8888 97.3738 26.0651 93.4844 26.0651 93.4844L45.422 96.6186L53.3267 97.8994L55.2322 98.2075C55.2322 98.2075 55.7023 100.074 56.4055 103.009C58.6516 112.388 63.2781 132.675 62.5278 137.726Z" fill="#424D5E"/>
<path d="M68.936 46.7585C68.4612 50.6565 52.6603 83.3698 45.4226 96.6187C43.7056 99.7615 42.4708 101.808 42.0357 102.116C40.6739 103.081 32.0395 103.658 25.6114 103.576C22.1956 103.534 19.4021 103.303 18.654 102.847C16.4972 101.533 20.8109 92.624 22.6994 90.8781C24.588 89.1322 33.475 63.3798 33.7903 62.6657C34.1056 61.9528 27.0891 64.4733 25.3769 65.5222C23.6648 66.5698 16.3002 90.2499 16.3002 90.2499L12.2754 89.647C12.2754 89.647 16.9237 61.0951 18.9596 58.5491C20.9956 56.0045 39.2589 41.0422 44.0112 40.8077C48.7633 40.5733 67.9813 43.2122 67.9813 43.2122L67.9861 43.2316L68.9346 46.755L68.936 46.7585Z" fill="#000C51"/>
<path d="M93.1227 84.074L92.5295 89.2298C92.5295 89.2298 74.7217 91.1654 71.8907 88.5942C69.0597 86.0217 68.9618 75.1278 68.9618 75.1278C68.9618 75.1278 60.5413 87.0041 59.5866 93.4841C58.7106 99.4301 57.6231 102.515 56.4053 103.009C56.2953 103.053 56.1854 103.077 56.073 103.079C54.7209 103.112 51.6603 103.544 52.2149 101.014C52.2886 100.679 52.6873 99.5702 53.3265 97.8991C57.5072 86.9677 71.9897 51.9695 73.2923 51.874C73.2935 51.874 73.2935 51.874 73.2947 51.874C73.3782 51.8716 74.8414 51.6577 75.6569 51.874C75.6569 51.874 75.6569 51.874 75.6581 51.8752C75.7331 51.9779 80.2617 58.1148 80.0466 63.1305C79.8303 68.1884 78.6147 80.4067 79.2045 81.3938C79.7953 82.3813 93.1227 84.074 93.1227 84.074Z" fill="#000C51"/>
<path d="M73.2905 51.8736C71.988 51.969 57.5053 86.9673 53.3246 97.8988L45.4199 96.618C52.6577 83.3691 68.4585 50.6558 68.9334 46.7578C69.4614 48.5522 70.1211 50.5023 70.6721 51.2369C71.1603 51.8881 72.1801 51.9172 73.2905 51.8736Z" fill="white"/>
<path d="M9.08852 96.168L9.05469 98.9583L19.2325 99.0819L19.2664 96.2916C19.2806 95.1197 18.3388 94.1547 17.1668 94.1405L11.2396 94.0685C10.0678 94.0542 9.10274 94.996 9.08852 96.168ZM17.9076 97.7244L10.4119 97.6334L10.4295 96.1842C10.4348 95.7518 10.7908 95.4044 11.2232 95.4096L17.1504 95.4816C17.5829 95.4869 17.9303 95.8429 17.9251 96.2753L17.9076 97.7244Z" fill="black"/>
<path d="M-0.000921609 116.721L27.8926 117.059L27.9974 108.395L0.103914 108.058L-0.000921609 116.721Z" fill="#1C1E16"/>
<path d="M0.0605469 108.048L14.0351 112.26L28.0002 108.387L28.1325 97.4974L0.192773 97.1582L0.0605469 108.048Z" fill="#000C51"/>
<path d="M12.1132 111.225L15.95 111.271C16.314 111.276 16.6055 111.574 16.6011 111.938L16.5925 112.644C16.588 113.008 16.2894 113.299 15.9254 113.295L12.0886 113.248C11.7246 113.244 11.4331 112.945 11.4375 112.581L11.4462 111.876C11.4506 111.512 11.7492 111.22 12.1132 111.225Z" fill="#FFA300"/>
<path d="M93.1229 84.0754C93.2253 83.9432 94.0667 82.8419 95.7385 82.6055C97.4103 82.3692 97.6154 79.3591 98.969 79.2563C100.323 79.1536 99.3588 82.3706 99.6459 82.3591C99.9331 82.3477 103.18 81.8166 103.331 82.8646C103.481 83.9126 102.466 84.3629 102.235 84.4057C102.235 84.4057 102.579 85.9885 101.553 86.6333C101.553 86.6333 101.718 88.3715 100.59 88.693C100.59 88.693 100.59 89.8442 99.2973 89.9439C98.0051 90.0435 93.808 90.1524 92.5293 89.2309L93.1229 84.0754Z" fill="#FFB188"/>
<path d="M16.2988 90.2511C16.2988 90.2511 18.9433 92.6273 17.9947 93.8908C17.046 95.1544 16.1174 93.0258 16.1174 93.0258C16.1174 93.0258 16.375 96.6133 15.2876 96.8215C14.2001 97.0298 10.7979 97.3488 10.9069 94.7534C11.0293 91.8357 12.2738 89.6484 12.2738 89.6484L16.2988 90.2511Z" fill="#FFB188"/>
<path d="M71.704 51.6781C71.704 51.6781 64.9963 67.9784 60.4732 71.1395C55.9501 74.3005 30.4588 81.0483 30.4588 81.0483L24.668 77.8275L27.7759 71.5482C27.7759 71.5482 53.2627 68.3451 58.4086 66.9405C63.5546 65.5359 70.4332 50.0742 70.4332 50.0742L70.9464 51.5483L71.704 51.6781Z" fill="#FFA300"/>
<path d="M91.2051 45.1373C91.2039 45.1385 91.2039 45.1397 91.2039 45.1397C88.9903 47.7242 83.6592 54.9027 81.2765 55.2699C78.8925 55.6372 78.472 54.1463 77.097 52.5452C76.7501 52.1416 76.2426 51.9544 75.6579 51.8747C74.9342 51.7756 74.0907 51.8432 73.2945 51.8735C73.2933 51.8735 73.2933 51.8735 73.2921 51.8735C72.1817 51.917 71.162 51.888 70.6737 51.2368C70.1227 50.5021 69.463 48.5519 68.935 46.7577L68.9338 46.7541C68.4203 45.0117 68.0311 43.4192 67.9852 43.2307L67.9805 43.2113C67.9805 43.2113 71.4918 43.0385 74.4871 40.0806C74.7916 41.1729 76.2089 43.3055 77.4874 42.9309C78.8298 42.5382 81.0676 38.3031 83.1083 40.3331C85.1492 42.3631 82.5719 44.6201 82.5719 44.6201C84.562 45.3379 85.7183 40.2932 89.1692 40.3464C92.5728 40.3983 91.2426 45.0067 91.2051 45.1373Z" fill="#FFB188"/>
<path d="M91.2044 45.1384C91.2418 45.0078 92.5721 40.3995 89.1684 40.3475C85.7176 40.2943 84.5611 45.339 82.5711 44.6212C82.5711 44.6212 85.1484 42.3641 83.1075 40.3342C81.0667 38.3042 78.8289 42.5393 77.4866 42.932C76.2082 43.3066 74.7908 41.1739 74.4863 40.0817C77.4805 37.125 83.3564 32.4587 87.7534 33.0095C92.1504 33.5618 94.5826 37.8343 94.7664 39.1706C94.9489 40.507 93.6597 42.2734 91.2044 45.1384Z" fill="#050505"/>
</svg>
