<svg width="12" height="13" viewBox="0 0 12 13" fill="none" xmlns="http://www.w3.org/2000/svg">
<path d="M11.9908 5.33104C12.0507 5.03127 11.8109 4.67155 11.5111 4.67155L8.09376 4.19192L6.53496 1.07432C6.47501 0.954415 6.41505 0.894461 6.29515 0.834507C5.99538 0.654646 5.63566 0.774554 5.45579 1.07432L3.95695 4.19192L0.539584 4.67155C0.359723 4.67155 0.239815 4.7315 0.179861 4.85141C-0.0599538 5.09123 -0.0599538 5.45095 0.179861 5.69076L2.63797 8.08891L2.03843 11.5063C2.03843 11.6262 2.03843 11.7461 2.09838 11.866C2.27824 12.1658 2.63797 12.2857 2.93774 12.1058L5.99538 10.4871L9.05302 12.1058C9.11298 12.1658 9.23288 12.1658 9.35279 12.1658C9.41274 12.1658 9.41274 12.1658 9.4727 12.1658C9.77247 12.1058 10.0123 11.806 9.95233 11.4463L9.35279 8.02896L11.8109 5.63081C11.9308 5.57086 11.9908 5.45095 11.9908 5.33104Z" fill="#FDD25A"/>
</svg>
