<svg width="22" height="22" viewBox="0 0 22 22" fill="none" xmlns="http://www.w3.org/2000/svg">
<path d="M20.0521 9.31316C20.6275 8.14608 20.7706 6.81278 20.4557 5.55021C20.1409 4.28763 19.3887 3.17757 18.3326 2.4173C17.2766 1.65702 15.9852 1.29579 14.688 1.39779C13.3908 1.49979 12.1717 2.05843 11.2475 2.97441C10.8993 3.32226 10.5974 3.71354 10.3492 4.13857C11.2081 4.95511 11.752 6.04814 11.8853 7.22576C12.0185 8.40339 11.7327 9.59032 11.0779 10.5782C11.8705 11.4568 12.9274 12.0537 14.0892 12.2786C14.4292 12.3426 14.7744 12.3748 15.1204 12.3748C15.8407 12.3742 16.5538 12.2325 17.2196 11.9577C17.3103 11.9178 17.4106 11.9051 17.5083 11.9211L19.0208 12.2419C19.1596 12.2704 19.3031 12.2661 19.4399 12.2295C19.5767 12.1929 19.7031 12.125 19.8092 12.0311C19.9177 11.939 20.0026 11.8223 20.0568 11.6908C20.111 11.5592 20.133 11.4166 20.1208 11.2748L19.9971 9.55607C19.9938 9.47167 20.0127 9.38789 20.0521 9.31316ZM13.2917 7.56232C13.1557 7.56232 13.0228 7.522 12.9097 7.44646C12.7967 7.37091 12.7085 7.26354 12.6565 7.13792C12.6045 7.01229 12.5908 6.87406 12.6174 6.7407C12.6439 6.60734 12.7094 6.48484 12.8055 6.38869C12.9017 6.29254 13.0242 6.22706 13.1575 6.20053C13.2909 6.17401 13.4291 6.18762 13.5548 6.23966C13.6804 6.29169 13.7878 6.37981 13.8633 6.49287C13.9388 6.60593 13.9792 6.73885 13.9792 6.87482C13.9792 7.05716 13.9067 7.23203 13.7778 7.36096C13.6489 7.48989 13.474 7.56232 13.2917 7.56232ZM15.5833 7.56232C15.4474 7.56232 15.3144 7.522 15.2014 7.44646C15.0883 7.37091 15.0002 7.26354 14.9482 7.13792C14.8961 7.01229 14.8825 6.87406 14.909 6.7407C14.9356 6.60734 15.001 6.48484 15.0972 6.38869C15.1933 6.29254 15.3158 6.22706 15.4492 6.20053C15.5826 6.17401 15.7208 6.18762 15.8464 6.23966C15.9721 6.29169 16.0794 6.37981 16.155 6.49287C16.2305 6.60593 16.2708 6.73885 16.2708 6.87482C16.2708 7.05716 16.1984 7.23203 16.0695 7.36096C15.9405 7.48989 15.7657 7.56232 15.5833 7.56232ZM17.875 7.56232C17.739 7.56232 17.6061 7.522 17.493 7.44646C17.38 7.37091 17.2919 7.26354 17.2398 7.13792C17.1878 7.01229 17.1742 6.87406 17.2007 6.7407C17.2272 6.60734 17.2927 6.48484 17.3889 6.38869C17.485 6.29254 17.6075 6.22706 17.7409 6.20053C17.8742 6.17401 18.0125 6.18762 18.1381 6.23966C18.2637 6.29169 18.3711 6.37981 18.4466 6.49287C18.5222 6.60593 18.5625 6.73885 18.5625 6.87482C18.5625 7.05716 18.4901 7.23203 18.3611 7.36096C18.2322 7.48989 18.0573 7.56232 17.875 7.56232ZM7.33333 12.3748H6.41667C5.08002 12.3764 3.79857 12.9081 2.85341 13.8532C1.90826 14.7984 1.37658 16.0798 1.375 17.4165V19.2498C1.375 19.6145 1.51987 19.9642 1.77773 20.2221C2.03559 20.48 2.38533 20.6248 2.75 20.6248H11C11.3647 20.6248 11.7144 20.48 11.9723 20.2221C12.2301 19.9642 12.375 19.6145 12.375 19.2498V17.4165C12.3734 16.0798 11.8417 14.7984 10.8966 13.8532C9.95143 12.9081 8.66998 12.3764 7.33333 12.3748Z" fill="#000C51"/>
<path d="M6.875 11.917C9.15317 11.917 11 10.0702 11 7.79199C11 5.51382 9.15317 3.66699 6.875 3.66699C4.59683 3.66699 2.75 5.51382 2.75 7.79199C2.75 10.0702 4.59683 11.917 6.875 11.917Z" fill="#000C51"/>
</svg>
