<svg width="28" height="29" viewBox="0 0 28 29" fill="none" xmlns="http://www.w3.org/2000/svg">
<path d="M8.05673 9.10048C7.57152 9.09552 7.08711 9.14106 6.61133 9.23637L7.84672 6.27144L7.89613 6.16026L7.97026 5.96259C7.99856 5.8865 8.03157 5.81223 8.06909 5.74022C9.50214 2.41703 11.1081 1.3793 14.0113 2.16995L11.034 9.10048H8.05673Z" fill="white"/>
<path d="M20.1134 9.09834C20.8782 9.10024 21.6391 9.20833 22.3742 9.41954L22.3989 9.43189C22.5717 8.72471 22.5632 7.98534 22.3742 7.28232C22.3483 7.17171 22.311 7.06408 22.263 6.96112C22.2089 6.77222 22.1255 6.59298 22.0159 6.4299C21.9171 6.2693 21.8183 6.13341 21.7071 5.98516C20.8085 5.04584 19.6989 4.33434 18.4704 3.90971L15.7402 2.7608C15.5548 2.69903 15.3695 2.61255 15.1966 2.55078L15.1595 2.63726L12.3799 9.09834H20.1134ZM21.8553 11.1985C21.2893 11.0344 20.7028 10.9512 20.1134 10.9514H8.05604C7.24059 10.9464 6.43296 11.1105 5.68409 11.4332C4.59898 11.9 3.67438 12.6745 3.02452 13.6609C2.37465 14.6474 2.02798 15.8026 2.02734 16.9838V19.3928C2.02947 19.6862 2.0501 19.9792 2.08911 20.27C2.3609 24.1985 4.46106 26.2945 8.38959 26.5581C8.68029 26.598 8.9733 26.6186 9.26672 26.6198H18.9027C23.4737 26.6198 25.8827 24.4456 26.1174 20.1217C26.1298 19.887 26.1421 19.6399 26.1421 19.3928V16.9838C26.1411 15.6876 25.7241 14.4259 24.9524 13.3845C24.1807 12.343 23.0951 11.5768 21.8553 11.1985ZM17.1732 19.4385H15.0113V21.6783C15.0113 21.924 14.9137 22.1597 14.7399 22.3335C14.5661 22.5072 14.3305 22.6048 14.0847 22.6048C13.839 22.6048 13.6033 22.5072 13.4296 22.3335C13.2558 22.1597 13.1582 21.924 13.1582 21.6783V19.4422H10.9963C10.7505 19.4422 10.5149 19.3446 10.3411 19.1709C10.1673 18.9971 10.0697 18.7614 10.0697 18.5157C10.0697 18.27 10.1673 18.0343 10.3411 17.8605C10.5149 17.6868 10.7505 17.5892 10.9963 17.5892H13.1582V15.5014C13.1582 15.2556 13.2558 15.02 13.4296 14.8462C13.6033 14.6724 13.839 14.5748 14.0847 14.5748C14.3305 14.5748 14.5661 14.6724 14.7399 14.8462C14.9137 15.02 15.0113 15.2556 15.0113 15.5014V17.5892H17.1732C17.4189 17.5892 17.6546 17.6868 17.8284 17.8605C18.0021 18.0343 18.0997 18.27 18.0997 18.5157C18.0997 18.7614 18.0021 18.9971 17.8284 19.1709C17.6546 19.3446 17.4189 19.4422 17.1732 19.4422V19.4385Z" fill="white"/>
</svg>
