<svg width="21" height="22" viewBox="0 0 21 22" fill="none" xmlns="http://www.w3.org/2000/svg">
<circle cx="10.4891" cy="11.3817" r="9.99928" stroke="#E2E2E2" stroke-width="0.952312"/>
<path d="M15.0676 14.9769L13.0182 11.9389C12.97 11.8665 12.8976 11.7942 12.8253 11.746L12.6565 11.6254C12.4636 11.4807 12.4636 11.2155 12.6565 11.0708L12.8012 10.9744C12.8735 10.9262 12.9458 10.8538 12.9941 10.7815L15.0918 7.79171C15.2605 7.52648 15.2846 7.18892 15.0918 6.94781C14.8506 6.63436 14.4166 6.56203 14.1032 6.77903L11.0652 8.82849C10.9928 8.87672 10.9205 8.94905 10.8723 9.02138L10.7517 9.19016C10.607 9.38305 10.3418 9.38305 10.1972 9.19016L10.1007 9.04549C10.0525 8.97316 9.98015 8.90083 9.90781 8.8526L6.91801 6.75492C6.65278 6.58614 6.31522 6.56203 6.07411 6.75492C5.76066 6.99603 5.68833 7.43004 5.90533 7.74348L7.95479 10.7815C8.00302 10.8538 8.07535 10.9262 8.14769 10.9744L8.31646 11.095C8.50936 11.2396 8.50936 11.5049 8.31646 11.6495L8.1718 11.746C8.09946 11.7942 8.02713 11.8665 7.97891 11.9389L5.85711 14.9528C5.66422 15.2421 5.68833 15.6279 5.92944 15.869C6.17056 16.1101 6.55634 16.1583 6.84567 15.9654L9.8837 13.916C9.95604 13.8678 10.0284 13.7954 10.0766 13.7231L10.1972 13.5543C10.3418 13.3614 10.607 13.3614 10.7517 13.5543L10.8482 13.699C10.8964 13.7713 10.9687 13.8437 11.041 13.8919L14.0791 16.0137C14.3684 16.2066 14.7542 16.1825 14.9953 15.9413C15.2364 15.652 15.2605 15.2662 15.0676 14.9769Z" fill="#E2E2E2"/>
</svg>
