<svg width="19" height="19" viewBox="0 0 19 19" fill="none" xmlns="http://www.w3.org/2000/svg">
<path d="M13.0156 2.27734H8.51562C6.86562 2.27734 5.51562 3.62734 5.51562 5.27734C3.86562 5.27734 2.51562 6.62734 2.51562 8.27734V12.7773C2.51562 14.4273 3.86562 15.7773 5.51562 15.7773H10.0156C11.6656 15.7773 13.0156 14.4273 13.0156 12.7773C14.6656 12.7773 16.0156 11.4273 16.0156 9.77734V5.27734C16.0156 3.62734 14.6656 2.27734 13.0156 2.27734ZM11.5156 12.7773C11.5156 13.6023 10.8406 14.2773 10.0156 14.2773H5.51562C4.69062 14.2773 4.01562 13.6023 4.01562 12.7773V8.27734C4.01562 7.45234 4.69062 6.77734 5.51562 6.77734H10.0156C10.8406 6.77734 11.5156 7.45234 11.5156 8.27734V12.7773ZM14.5156 9.77734C14.5156 10.6023 13.8406 11.2773 13.0156 11.2773V8.27734C13.0156 6.62734 11.6656 5.27734 10.0156 5.27734H7.01562C7.01562 4.45234 7.69062 3.77734 8.51562 3.77734H13.0156C13.8406 3.77734 14.5156 4.45234 14.5156 5.27734V9.77734Z" fill="white"/>
</svg>
