<svg width="33" height="33" viewBox="0 0 33 33" fill="none" xmlns="http://www.w3.org/2000/svg">
<g clip-path="url(#clip0_58_82)">
<path d="M16.0625 32.1938C24.6402 32.1938 31.5938 25.2403 31.5938 16.6626C31.5938 8.08492 24.6402 1.13135 16.0625 1.13135C7.48483 1.13135 0.53125 8.08492 0.53125 16.6626C0.53125 25.2403 7.48483 32.1938 16.0625 32.1938Z" fill="#4956FC"/>
<path d="M16.0625 29.0688C22.9143 29.0688 28.4688 23.5144 28.4688 16.6626C28.4688 9.81081 22.9143 4.25635 16.0625 4.25635C9.21072 4.25635 3.65625 9.81081 3.65625 16.6626C3.65625 23.5144 9.21072 29.0688 16.0625 29.0688Z" fill="#5E8DF7"/>
<path d="M21.9 15.9201L20.9287 16.4713L15.9906 18.3351L10.225 15.9201L15.9906 6.0401L21.9 15.9201Z" fill="#FEFEFE"/>
<path d="M21.9 15.9201L15.9906 19.2726L10.225 15.9201L15.9906 13.2282L21.9 15.9201Z" fill="#C0CBF8"/>
<path d="M21.9 18.2776L15.9906 27.2851L10.225 18.2776L15.9906 21.6295L21.9 18.2776Z" fill="#FEFEFE"/>
<path d="M21.9 18.2776L15.9906 27.2851V21.6295L21.9 18.2776ZM21.9 15.9201L20.9287 16.4713L15.9906 13.6476V6.0401L21.9 15.9201Z" fill="#C0CBF8"/>
<path d="M21.9 15.9201L15.9906 19.2726V13.2282L21.9 15.9201Z" fill="#8095F0"/>
</g>
<defs>
<clipPath id="clip0_58_82">
<rect width="32" height="32" fill="white" transform="translate(0.0625 0.662598)"/>
</clipPath>
</defs>
</svg>
