<svg width="23" height="24" viewBox="0 0 23 24" fill="none" xmlns="http://www.w3.org/2000/svg">
<path d="M21.0662 11.9723C19.1958 7.42282 15.6772 4.60001 11.8809 4.60001C8.08449 4.60001 4.5659 7.42282 2.69549 11.9723C2.64451 12.0947 2.61819 12.2268 2.61819 12.3603C2.61819 12.4938 2.64451 12.6259 2.69549 12.7483C4.5659 17.2978 8.08449 20.1206 11.8809 20.1206C15.6772 20.1206 19.1958 17.2978 21.0662 12.7483C21.1172 12.6259 21.1435 12.4938 21.1435 12.3603C21.1435 12.2268 21.1172 12.0947 21.0662 11.9723ZM11.8809 18.1805C8.94562 18.1805 6.16778 15.9591 4.5659 12.3603C6.16778 8.76147 8.94562 6.54009 11.8809 6.54009C14.8161 6.54009 17.5939 8.76147 19.1958 12.3603C17.5939 15.9591 14.8161 18.1805 11.8809 18.1805ZM11.8809 8.48016C11.1483 8.48016 10.4322 8.70773 9.82315 9.13408C9.21407 9.56044 8.73935 10.1664 8.45902 10.8754C8.17869 11.5844 8.10534 12.3646 8.24825 13.1173C8.39116 13.87 8.74391 14.5613 9.26189 15.104C9.77988 15.6466 10.4398 16.0162 11.1583 16.1659C11.8768 16.3156 12.6215 16.2388 13.2982 15.9451C13.975 15.6514 14.5535 15.1541 14.9604 14.516C15.3674 13.8779 15.5846 13.1277 15.5846 12.3603C15.5846 11.3312 15.1944 10.3443 14.4998 9.61663C13.8052 8.88896 12.8632 8.48016 11.8809 8.48016ZM11.8809 14.3004C11.5146 14.3004 11.1565 14.1866 10.852 13.9734C10.5475 13.7602 10.3101 13.4572 10.1699 13.1027C10.0298 12.7482 9.9931 12.3582 10.0646 11.9818C10.136 11.6055 10.3124 11.2598 10.5714 10.9885C10.8304 10.7171 11.1603 10.5324 11.5196 10.4575C11.8788 10.3827 12.2512 10.4211 12.5895 10.5679C12.9279 10.7148 13.2172 10.9634 13.4206 11.2825C13.6241 11.6015 13.7327 11.9766 13.7327 12.3603C13.7327 12.8748 13.5376 13.3683 13.1903 13.7321C12.843 14.096 12.372 14.3004 11.8809 14.3004Z" fill="#323232"/>
</svg>
