<svg width="22" height="22" viewBox="0 0 22 22" fill="none" xmlns="http://www.w3.org/2000/svg">
<path d="M10.8145 0.418457C16.6068 0.418457 21.3025 5.13473 21.3027 10.9526C21.3027 16.7707 16.607 21.4878 10.8145 21.4878C5.02193 21.4878 0.326172 16.7707 0.326172 10.9526C0.32642 5.13473 5.02209 0.418464 10.8145 0.418457ZM10.8145 1.65771C5.70356 1.65772 1.5608 5.81921 1.56055 10.9526C1.56055 16.0862 5.7034 20.2485 10.8145 20.2485C15.9255 20.2485 20.0684 16.0862 20.0684 10.9526C20.0681 5.81921 15.9253 1.65771 10.8145 1.65771Z" fill="#55555F"/>
<path d="M10.8145 0.418457C16.6068 0.418457 21.3025 5.13473 21.3027 10.9526C21.3027 16.7707 16.607 21.4878 10.8145 21.4878C5.02193 21.4878 0.326172 16.7707 0.326172 10.9526C0.32642 5.13473 5.02209 0.418464 10.8145 0.418457ZM10.8145 1.65771C5.70356 1.65772 1.5608 5.81921 1.56055 10.9526C1.56055 16.0862 5.7034 20.2485 10.8145 20.2485C15.9255 20.2485 20.0684 16.0862 20.0684 10.9526C20.0681 5.81921 15.9253 1.65771 10.8145 1.65771Z" stroke=""/>
<path d="M15.6812 12.0407C15.6812 11.7406 15.4389 11.4973 15.1402 11.4973H6.48435C6.26563 11.4973 6.06831 11.6297 5.98457 11.8327C5.90083 12.036 5.94706 12.2694 6.10186 12.4249L8.8068 15.1418C8.91246 15.2479 9.05088 15.301 9.1893 15.301C9.32772 15.301 9.46613 15.2479 9.57179 15.1418C9.78312 14.9296 9.78312 14.5857 9.57179 14.3734L7.79033 12.5841H15.1402C15.4389 12.5841 15.6812 12.3408 15.6812 12.0407ZM5.94336 9.86721C5.94336 10.1673 6.18559 10.4106 6.48435 10.4106H15.1402C15.3589 10.4106 15.5562 10.2782 15.64 10.0752C15.7237 9.87198 15.6775 9.6385 15.5227 9.48302L12.8177 6.76612C12.6064 6.55387 12.2641 6.55387 12.0527 6.76612C11.8414 6.97838 11.8414 7.32224 12.0527 7.5345L13.8342 9.32383H6.48435C6.18559 9.32383 5.94336 9.56713 5.94336 9.86721Z" fill="#55555F"/>
</svg>
