<svg width="324" height="302" viewBox="0 0 324 302" fill="none" xmlns="http://www.w3.org/2000/svg">
<rect x="35.2508" y="45.5" width="288.249" height="198" rx="9.5" fill="#131517" stroke="#282A2C"/>
<path d="M19.9156 239.048C19.9156 238.131 20.0649 237.416 20.3636 236.904C20.6622 236.387 21.1849 236.128 21.9316 236.128C22.6729 236.128 23.1929 236.387 23.4916 236.904C23.7902 237.416 23.9396 238.131 23.9396 239.048C23.9396 239.981 23.7902 240.707 23.4916 241.224C23.1929 241.741 22.6729 242 21.9316 242C21.1849 242 20.6622 241.741 20.3636 241.224C20.0649 240.707 19.9156 239.981 19.9156 239.048ZM23.2196 239.048C23.2196 238.584 23.1876 238.192 23.1236 237.872C23.0649 237.547 22.9396 237.285 22.7476 237.088C22.5609 236.891 22.2889 236.792 21.9316 236.792C21.5689 236.792 21.2916 236.891 21.0996 237.088C20.9129 237.285 20.7876 237.547 20.7236 237.872C20.6649 238.192 20.6356 238.584 20.6356 239.048C20.6356 239.528 20.6649 239.931 20.7236 240.256C20.7876 240.581 20.9129 240.843 21.0996 241.04C21.2916 241.237 21.5689 241.336 21.9316 241.336C22.2889 241.336 22.5609 241.237 22.7476 241.04C22.9396 240.843 23.0649 240.581 23.1236 240.256C23.1876 239.931 23.2196 239.528 23.2196 239.048Z" fill="#E1E1E2"/>
<path d="M4.49633 203.416C5.17366 202.872 5.70433 202.427 6.08833 202.08C6.47233 201.728 6.79499 201.363 7.05633 200.984C7.32299 200.6 7.45633 200.224 7.45633 199.856C7.45633 199.509 7.37099 199.237 7.20033 199.04C7.03499 198.837 6.76566 198.736 6.39233 198.736C6.02966 198.736 5.74699 198.851 5.54433 199.08C5.34699 199.304 5.24033 199.605 5.22433 199.984H4.52033C4.54166 199.387 4.72299 198.925 5.06433 198.6C5.40566 198.275 5.84566 198.112 6.38433 198.112C6.93366 198.112 7.36833 198.264 7.68833 198.568C8.01366 198.872 8.17633 199.291 8.17633 199.824C8.17633 200.267 8.04299 200.699 7.77633 201.12C7.51499 201.536 7.21633 201.904 6.88033 202.224C6.54433 202.539 6.11499 202.907 5.59233 203.328H8.34433V203.936H4.49633V203.416ZM10.1379 204.048C9.99922 204.048 9.88189 204 9.78589 203.904C9.68989 203.808 9.64189 203.691 9.64189 203.552C9.64189 203.413 9.68989 203.296 9.78589 203.2C9.88189 203.104 9.99922 203.056 10.1379 203.056C10.2712 203.056 10.3832 203.104 10.4739 203.2C10.5699 203.296 10.6179 203.413 10.6179 203.552C10.6179 203.691 10.5699 203.808 10.4739 203.904C10.3832 204 10.2712 204.048 10.1379 204.048ZM15.7536 198.848H12.9456V200.672C13.0682 200.501 13.2496 200.363 13.4896 200.256C13.7296 200.144 13.9882 200.088 14.2656 200.088C14.7082 200.088 15.0682 200.181 15.3456 200.368C15.6229 200.549 15.8202 200.787 15.9376 201.08C16.0602 201.368 16.1216 201.675 16.1216 202C16.1216 202.384 16.0496 202.728 15.9056 203.032C15.7616 203.336 15.5402 203.576 15.2416 203.752C14.9482 203.928 14.5829 204.016 14.1456 204.016C13.5856 204.016 13.1322 203.872 12.7856 203.584C12.4389 203.296 12.2282 202.912 12.1536 202.432H12.8656C12.9349 202.736 13.0816 202.973 13.3056 203.144C13.5296 203.315 13.8122 203.4 14.1536 203.4C14.5749 203.4 14.8922 203.275 15.1056 203.024C15.3189 202.768 15.4256 202.432 15.4256 202.016C15.4256 201.6 15.3189 201.28 15.1056 201.056C14.8922 200.827 14.5776 200.712 14.1616 200.712C13.8789 200.712 13.6309 200.781 13.4176 200.92C13.2096 201.053 13.0576 201.237 12.9616 201.472H12.2736V198.208H15.7536V198.848ZM23.465 198.464V204H22.737V199.872L20.897 204H20.385L18.537 199.864V204H17.809V198.464H18.593L20.641 203.04L22.689 198.464H23.465Z" fill="#E1E1E2"/>
<path d="M15.4269 160.848H12.6189V162.672C12.7416 162.501 12.9229 162.363 13.1629 162.256C13.4029 162.144 13.6616 162.088 13.9389 162.088C14.3816 162.088 14.7416 162.181 15.0189 162.368C15.2962 162.549 15.4936 162.787 15.6109 163.08C15.7336 163.368 15.7949 163.675 15.7949 164C15.7949 164.384 15.7229 164.728 15.5789 165.032C15.4349 165.336 15.2136 165.576 14.9149 165.752C14.6216 165.928 14.2562 166.016 13.8189 166.016C13.2589 166.016 12.8056 165.872 12.4589 165.584C12.1122 165.296 11.9016 164.912 11.8269 164.432H12.5389C12.6082 164.736 12.7549 164.973 12.9789 165.144C13.2029 165.315 13.4856 165.4 13.8269 165.4C14.2482 165.4 14.5656 165.275 14.7789 165.024C14.9922 164.768 15.0989 164.432 15.0989 164.016C15.0989 163.6 14.9922 163.28 14.7789 163.056C14.5656 162.827 14.2509 162.712 13.8349 162.712C13.5522 162.712 13.3042 162.781 13.0909 162.92C12.8829 163.053 12.7309 163.237 12.6349 163.472H11.9469V160.208H15.4269V160.848ZM23.1383 160.464V166H22.4103V161.872L20.5703 166H20.0583L18.2103 161.864V166H17.4823V160.464H18.2663L20.3143 165.04L22.3623 160.464H23.1383Z" fill="#E1E1E2"/>
<path d="M8.14433 122.784L5.92033 128H5.18433L7.44033 122.856H4.35233V122.232H8.14433V122.784ZM9.90352 128.048C9.76485 128.048 9.64752 128 9.55152 127.904C9.45552 127.808 9.40752 127.691 9.40752 127.552C9.40752 127.413 9.45552 127.296 9.55152 127.2C9.64752 127.104 9.76485 127.056 9.90352 127.056C10.0368 127.056 10.1488 127.104 10.2395 127.2C10.3355 127.296 10.3835 127.413 10.3835 127.552C10.3835 127.691 10.3355 127.808 10.2395 127.904C10.1488 128 10.0368 128.048 9.90352 128.048ZM15.5192 122.848H12.7112V124.672C12.8339 124.501 13.0152 124.363 13.2552 124.256C13.4952 124.144 13.7539 124.088 14.0312 124.088C14.4739 124.088 14.8339 124.181 15.1112 124.368C15.3885 124.549 15.5859 124.787 15.7032 125.08C15.8259 125.368 15.8872 125.675 15.8872 126C15.8872 126.384 15.8152 126.728 15.6712 127.032C15.5272 127.336 15.3059 127.576 15.0072 127.752C14.7139 127.928 14.3485 128.016 13.9112 128.016C13.3512 128.016 12.8979 127.872 12.5512 127.584C12.2045 127.296 11.9939 126.912 11.9192 126.432H12.6312C12.7005 126.736 12.8472 126.973 13.0712 127.144C13.2952 127.315 13.5779 127.4 13.9192 127.4C14.3405 127.4 14.6579 127.275 14.8712 127.024C15.0845 126.768 15.1912 126.432 15.1912 126.016C15.1912 125.6 15.0845 125.28 14.8712 125.056C14.6579 124.827 14.3432 124.712 13.9272 124.712C13.6445 124.712 13.3965 124.781 13.1832 124.92C12.9752 125.053 12.8232 125.237 12.7272 125.472H12.0392V122.208H15.5192V122.848ZM23.2306 122.464V128H22.5026V123.872L20.6626 128H20.1506L18.3026 123.864V128H17.5746V122.464H18.3586L20.4066 127.04L22.4546 122.464H23.2306Z" fill="#E1E1E2"/>
<path d="M8.48066 84.88V84.216H9.98466V90H9.24866V84.88H8.48066ZM11.8352 87.048C11.8352 86.1307 11.9845 85.416 12.2832 84.904C12.5818 84.3867 13.1045 84.128 13.8512 84.128C14.5925 84.128 15.1125 84.3867 15.4112 84.904C15.7098 85.416 15.8592 86.1307 15.8592 87.048C15.8592 87.9813 15.7098 88.7067 15.4112 89.224C15.1125 89.7413 14.5925 90 13.8512 90C13.1045 90 12.5818 89.7413 12.2832 89.224C11.9845 88.7067 11.8352 87.9813 11.8352 87.048ZM15.1392 87.048C15.1392 86.584 15.1072 86.192 15.0432 85.872C14.9845 85.5467 14.8592 85.2853 14.6672 85.088C14.4805 84.8907 14.2085 84.792 13.8512 84.792C13.4885 84.792 13.2112 84.8907 13.0192 85.088C12.8325 85.2853 12.7072 85.5467 12.6432 85.872C12.5845 86.192 12.5552 86.584 12.5552 87.048C12.5552 87.528 12.5845 87.9307 12.6432 88.256C12.7072 88.5813 12.8325 88.8427 13.0192 89.04C13.2112 89.2373 13.4885 89.336 13.8512 89.336C14.2085 89.336 14.4805 89.2373 14.6672 89.04C14.8592 88.8427 14.9845 88.5813 15.0432 88.256C15.1072 87.9307 15.1392 87.528 15.1392 87.048ZM23.2346 84.464V90H22.5066V85.872L20.6666 90H20.1546L18.3066 85.864V90H17.5786V84.464H18.3626L20.4106 89.04L22.4586 84.464H23.2346Z" fill="#E1E1E2"/>
<path d="M1.67616 46.88V46.216H3.18016V52H2.44416V46.88H1.67616ZM4.94266 51.416C5.61999 50.872 6.15066 50.4267 6.53466 50.08C6.91866 49.728 7.24132 49.3627 7.50266 48.984C7.76932 48.6 7.90266 48.224 7.90266 47.856C7.90266 47.5093 7.81732 47.2373 7.64666 47.04C7.48132 46.8373 7.21199 46.736 6.83866 46.736C6.47599 46.736 6.19332 46.8507 5.99066 47.08C5.79332 47.304 5.68666 47.6053 5.67066 47.984H4.96666C4.98799 47.3867 5.16932 46.9253 5.51066 46.6C5.85199 46.2747 6.29199 46.112 6.83066 46.112C7.37999 46.112 7.81466 46.264 8.13466 46.568C8.45999 46.872 8.62266 47.2907 8.62266 47.824C8.62266 48.2667 8.48932 48.6987 8.22266 49.12C7.96132 49.536 7.66266 49.904 7.32666 50.224C6.99066 50.5387 6.56132 50.9067 6.03866 51.328H8.79066V51.936H4.94266V51.416ZM10.5842 52.048C10.4456 52.048 10.3282 52 10.2322 51.904C10.1362 51.808 10.0882 51.6907 10.0882 51.552C10.0882 51.4133 10.1362 51.296 10.2322 51.2C10.3282 51.104 10.4456 51.056 10.5842 51.056C10.7176 51.056 10.8296 51.104 10.9202 51.2C11.0162 51.296 11.0642 51.4133 11.0642 51.552C11.0642 51.6907 11.0162 51.808 10.9202 51.904C10.8296 52 10.7176 52.048 10.5842 52.048ZM16.1999 46.848H13.3919V48.672C13.5146 48.5013 13.6959 48.3627 13.9359 48.256C14.1759 48.144 14.4346 48.088 14.7119 48.088C15.1546 48.088 15.5146 48.1813 15.7919 48.368C16.0692 48.5493 16.2666 48.7867 16.3839 49.08C16.5066 49.368 16.5679 49.6747 16.5679 50C16.5679 50.384 16.4959 50.728 16.3519 51.032C16.2079 51.336 15.9866 51.576 15.6879 51.752C15.3946 51.928 15.0292 52.016 14.5919 52.016C14.0319 52.016 13.5786 51.872 13.2319 51.584C12.8852 51.296 12.6746 50.912 12.5999 50.432H13.3119C13.3812 50.736 13.5279 50.9733 13.7519 51.144C13.9759 51.3147 14.2586 51.4 14.5999 51.4C15.0212 51.4 15.3386 51.2747 15.5519 51.024C15.7652 50.768 15.8719 50.432 15.8719 50.016C15.8719 49.6 15.7652 49.28 15.5519 49.056C15.3386 48.8267 15.0239 48.712 14.6079 48.712C14.3252 48.712 14.0772 48.7813 13.8639 48.92C13.6559 49.0533 13.5039 49.2373 13.4079 49.472H12.7199V46.208H16.1999V46.848ZM23.9113 46.464V52H23.1833V47.872L21.3433 52H20.8313L18.9833 47.864V52H18.2553V46.464H19.0393L21.0873 51.04L23.1353 46.464H23.9113Z" fill="#E1E1E2"/>
<path d="M41.473 257.76V258.376H38.281V257.76H41.473ZM43.3193 258.048C43.3193 257.131 43.4686 256.416 43.7673 255.904C44.066 255.387 44.5886 255.128 45.3353 255.128C46.0766 255.128 46.5966 255.387 46.8953 255.904C47.194 256.416 47.3433 257.131 47.3433 258.048C47.3433 258.981 47.194 259.707 46.8953 260.224C46.5966 260.741 46.0766 261 45.3353 261C44.5886 261 44.066 260.741 43.7673 260.224C43.4686 259.707 43.3193 258.981 43.3193 258.048ZM46.6233 258.048C46.6233 257.584 46.5913 257.192 46.5273 256.872C46.4686 256.547 46.3433 256.285 46.1513 256.088C45.9646 255.891 45.6926 255.792 45.3353 255.792C44.9726 255.792 44.6953 255.891 44.5033 256.088C44.3166 256.285 44.1913 256.547 44.1273 256.872C44.0686 257.192 44.0393 257.584 44.0393 258.048C44.0393 258.528 44.0686 258.931 44.1273 259.256C44.1913 259.581 44.3166 259.843 44.5033 260.04C44.6953 260.237 44.9726 260.336 45.3353 260.336C45.6926 260.336 45.9646 260.237 46.1513 260.04C46.3433 259.843 46.4686 259.581 46.5273 259.256C46.5913 258.931 46.6233 258.528 46.6233 258.048ZM48.9427 258.048C48.9427 257.131 49.0921 256.416 49.3907 255.904C49.6894 255.387 50.2121 255.128 50.9587 255.128C51.7001 255.128 52.2201 255.387 52.5187 255.904C52.8174 256.416 52.9667 257.131 52.9667 258.048C52.9667 258.981 52.8174 259.707 52.5187 260.224C52.2201 260.741 51.7001 261 50.9587 261C50.2121 261 49.6894 260.741 49.3907 260.224C49.0921 259.707 48.9427 258.981 48.9427 258.048ZM52.2467 258.048C52.2467 257.584 52.2147 257.192 52.1507 256.872C52.0921 256.547 51.9667 256.285 51.7747 256.088C51.5881 255.891 51.3161 255.792 50.9587 255.792C50.5961 255.792 50.3187 255.891 50.1267 256.088C49.9401 256.285 49.8147 256.547 49.7507 256.872C49.6921 257.192 49.6627 257.584 49.6627 258.048C49.6627 258.528 49.6921 258.931 49.7507 259.256C49.8147 259.581 49.9401 259.843 50.1267 260.04C50.3187 260.237 50.5961 260.336 50.9587 260.336C51.3161 260.336 51.5881 260.237 51.7747 260.04C51.9667 259.843 52.0921 259.581 52.1507 259.256C52.2147 258.931 52.2467 258.528 52.2467 258.048Z" fill="#E1E1E2"/>
<path d="M73.9979 260.416C74.6752 259.872 75.2059 259.427 75.5899 259.08C75.9739 258.728 76.2966 258.363 76.5579 257.984C76.8246 257.6 76.9579 257.224 76.9579 256.856C76.9579 256.509 76.8726 256.237 76.7019 256.04C76.5366 255.837 76.2672 255.736 75.8939 255.736C75.5312 255.736 75.2486 255.851 75.0459 256.08C74.8486 256.304 74.7419 256.605 74.7259 256.984H74.0219C74.0432 256.387 74.2246 255.925 74.5659 255.6C74.9072 255.275 75.3472 255.112 75.8859 255.112C76.4352 255.112 76.8699 255.264 77.1899 255.568C77.5152 255.872 77.6779 256.291 77.6779 256.824C77.6779 257.267 77.5446 257.699 77.2779 258.12C77.0166 258.536 76.7179 258.904 76.3819 259.224C76.0459 259.539 75.6166 259.907 75.0939 260.328H77.8459V260.936H73.9979V260.416ZM79.1995 260.416C79.8768 259.872 80.4075 259.427 80.7915 259.08C81.1755 258.728 81.4981 258.363 81.7595 257.984C82.0261 257.6 82.1595 257.224 82.1595 256.856C82.1595 256.509 82.0741 256.237 81.9035 256.04C81.7381 255.837 81.4688 255.736 81.0955 255.736C80.7328 255.736 80.4501 255.851 80.2475 256.08C80.0501 256.304 79.9435 256.605 79.9275 256.984H79.2235C79.2448 256.387 79.4261 255.925 79.7675 255.6C80.1088 255.275 80.5488 255.112 81.0875 255.112C81.6368 255.112 82.0715 255.264 82.3915 255.568C82.7168 255.872 82.8795 256.291 82.8795 256.824C82.8795 257.267 82.7461 257.699 82.4795 258.12C82.2181 258.536 81.9195 258.904 81.5835 259.224C81.2475 259.539 80.8181 259.907 80.2955 260.328H83.0475V260.936H79.1995V260.416ZM84.401 260.416C85.0784 259.872 85.609 259.427 85.993 259.08C86.377 258.728 86.6997 258.363 86.961 257.984C87.2277 257.6 87.361 257.224 87.361 256.856C87.361 256.509 87.2757 256.237 87.105 256.04C86.9397 255.837 86.6704 255.736 86.297 255.736C85.9344 255.736 85.6517 255.851 85.449 256.08C85.2517 256.304 85.145 256.605 85.129 256.984H84.425C84.4464 256.387 84.6277 255.925 84.969 255.6C85.3104 255.275 85.7504 255.112 86.289 255.112C86.8384 255.112 87.273 255.264 87.593 255.568C87.9184 255.872 88.081 256.291 88.081 256.824C88.081 257.267 87.9477 257.699 87.681 258.12C87.4197 258.536 87.121 258.904 86.785 259.224C86.449 259.539 86.0197 259.907 85.497 260.328H88.249V260.936H84.401V260.416ZM90.5626 259.992L89.6666 262.144H89.1786L89.7626 259.992H90.5626ZM91.8765 258.048C91.8765 257.131 92.0259 256.416 92.3245 255.904C92.6232 255.387 93.1459 255.128 93.8925 255.128C94.6339 255.128 95.1539 255.387 95.4525 255.904C95.7512 256.416 95.9005 257.131 95.9005 258.048C95.9005 258.981 95.7512 259.707 95.4525 260.224C95.1539 260.741 94.6339 261 93.8925 261C93.1459 261 92.6232 260.741 92.3245 260.224C92.0259 259.707 91.8765 258.981 91.8765 258.048ZM95.1805 258.048C95.1805 257.584 95.1485 257.192 95.0845 256.872C95.0259 256.547 94.9005 256.285 94.7085 256.088C94.5219 255.891 94.2499 255.792 93.8925 255.792C93.5299 255.792 93.2525 255.891 93.0605 256.088C92.8739 256.285 92.7485 256.547 92.6845 256.872C92.6259 257.192 92.5965 257.584 92.5965 258.048C92.5965 258.528 92.6259 258.931 92.6845 259.256C92.7485 259.581 92.8739 259.843 93.0605 260.04C93.2525 260.237 93.5299 260.336 93.8925 260.336C94.2499 260.336 94.5219 260.237 94.7085 260.04C94.9005 259.843 95.0259 259.581 95.0845 259.256C95.1485 258.931 95.1805 258.528 95.1805 258.048ZM97.5 258.048C97.5 257.131 97.6493 256.416 97.948 255.904C98.2466 255.387 98.7693 255.128 99.516 255.128C100.257 255.128 100.777 255.387 101.076 255.904C101.375 256.416 101.524 257.131 101.524 258.048C101.524 258.981 101.375 259.707 101.076 260.224C100.777 260.741 100.257 261 99.516 261C98.7693 261 98.2466 260.741 97.948 260.224C97.6493 259.707 97.5 258.981 97.5 258.048ZM100.804 258.048C100.804 257.584 100.772 257.192 100.708 256.872C100.649 256.547 100.524 256.285 100.332 256.088C100.145 255.891 99.8733 255.792 99.516 255.792C99.1533 255.792 98.876 255.891 98.684 256.088C98.4973 256.285 98.372 256.547 98.308 256.872C98.2493 257.192 98.22 257.584 98.22 258.048C98.22 258.528 98.2493 258.931 98.308 259.256C98.372 259.581 98.4973 259.843 98.684 260.04C98.876 260.237 99.1533 260.336 99.516 260.336C99.8733 260.336 100.145 260.237 100.332 260.04C100.524 259.843 100.649 259.581 100.708 259.256C100.772 258.931 100.804 258.528 100.804 258.048ZM103.123 258.048C103.123 257.131 103.273 256.416 103.571 255.904C103.87 255.387 104.393 255.128 105.139 255.128C105.881 255.128 106.401 255.387 106.699 255.904C106.998 256.416 107.147 257.131 107.147 258.048C107.147 258.981 106.998 259.707 106.699 260.224C106.401 260.741 105.881 261 105.139 261C104.393 261 103.87 260.741 103.571 260.224C103.273 259.707 103.123 258.981 103.123 258.048ZM106.427 258.048C106.427 257.584 106.395 257.192 106.331 256.872C106.273 256.547 106.147 256.285 105.955 256.088C105.769 255.891 105.497 255.792 105.139 255.792C104.777 255.792 104.499 255.891 104.307 256.088C104.121 256.285 103.995 256.547 103.931 256.872C103.873 257.192 103.843 257.584 103.843 258.048C103.843 258.528 103.873 258.931 103.931 259.256C103.995 259.581 104.121 259.843 104.307 260.04C104.499 260.237 104.777 260.336 105.139 260.336C105.497 260.336 105.769 260.237 105.955 260.04C106.147 259.843 106.273 259.581 106.331 259.256C106.395 258.931 106.427 258.528 106.427 258.048Z" fill="#E1E1E2"/>
<path d="M127.146 260.416C127.824 259.872 128.354 259.427 128.738 259.08C129.122 258.728 129.445 258.363 129.706 257.984C129.973 257.6 130.106 257.224 130.106 256.856C130.106 256.509 130.021 256.237 129.85 256.04C129.685 255.837 129.416 255.736 129.042 255.736C128.68 255.736 128.397 255.851 128.194 256.08C127.997 256.304 127.89 256.605 127.874 256.984H127.17C127.192 256.387 127.373 255.925 127.714 255.6C128.056 255.275 128.496 255.112 129.034 255.112C129.584 255.112 130.018 255.264 130.338 255.568C130.664 255.872 130.826 256.291 130.826 256.824C130.826 257.267 130.693 257.699 130.426 258.12C130.165 258.536 129.866 258.904 129.53 259.224C129.194 259.539 128.765 259.907 128.242 260.328H130.994V260.936H127.146V260.416ZM132.348 260.416C133.025 259.872 133.556 259.427 133.94 259.08C134.324 258.728 134.646 258.363 134.908 257.984C135.174 257.6 135.308 257.224 135.308 256.856C135.308 256.509 135.222 256.237 135.052 256.04C134.886 255.837 134.617 255.736 134.244 255.736C133.881 255.736 133.598 255.851 133.396 256.08C133.198 256.304 133.092 256.605 133.076 256.984H132.372C132.393 256.387 132.574 255.925 132.916 255.6C133.257 255.275 133.697 255.112 134.236 255.112C134.785 255.112 135.22 255.264 135.54 255.568C135.865 255.872 136.028 256.291 136.028 256.824C136.028 257.267 135.894 257.699 135.628 258.12C135.366 258.536 135.068 258.904 134.732 259.224C134.396 259.539 133.966 259.907 133.444 260.328H136.196V260.936H132.348V260.416ZM137.621 256.672C137.659 256.181 137.848 255.797 138.189 255.52C138.531 255.243 138.973 255.104 139.517 255.104C139.88 255.104 140.192 255.171 140.453 255.304C140.72 255.432 140.92 255.608 141.053 255.832C141.192 256.056 141.261 256.309 141.261 256.592C141.261 256.923 141.165 257.208 140.973 257.448C140.787 257.688 140.541 257.843 140.237 257.912V257.952C140.584 258.037 140.859 258.205 141.061 258.456C141.264 258.707 141.365 259.035 141.365 259.44C141.365 259.744 141.296 260.019 141.157 260.264C141.019 260.504 140.811 260.693 140.533 260.832C140.256 260.971 139.923 261.04 139.533 261.04C138.968 261.04 138.504 260.893 138.141 260.6C137.779 260.301 137.576 259.88 137.533 259.336H138.237C138.275 259.656 138.405 259.917 138.629 260.12C138.853 260.323 139.152 260.424 139.525 260.424C139.899 260.424 140.181 260.328 140.373 260.136C140.571 259.939 140.669 259.685 140.669 259.376C140.669 258.976 140.536 258.688 140.269 258.512C140.003 258.336 139.6 258.248 139.061 258.248H138.877V257.64H139.069C139.56 257.635 139.931 257.555 140.181 257.4C140.432 257.24 140.557 256.995 140.557 256.664C140.557 256.381 140.464 256.155 140.277 255.984C140.096 255.813 139.835 255.728 139.493 255.728C139.163 255.728 138.896 255.813 138.693 255.984C138.491 256.155 138.371 256.384 138.333 256.672H137.621ZM143.82 259.992L142.924 262.144H142.436L143.02 259.992H143.82ZM146.19 257.992C145.891 257.875 145.662 257.704 145.502 257.48C145.342 257.256 145.262 256.984 145.262 256.664C145.262 256.376 145.334 256.117 145.478 255.888C145.622 255.653 145.835 255.469 146.118 255.336C146.406 255.197 146.753 255.128 147.158 255.128C147.564 255.128 147.908 255.197 148.19 255.336C148.478 255.469 148.694 255.653 148.838 255.888C148.988 256.117 149.062 256.376 149.062 256.664C149.062 256.973 148.979 257.245 148.814 257.48C148.649 257.709 148.422 257.88 148.134 257.992C148.465 258.093 148.726 258.272 148.918 258.528C149.115 258.779 149.214 259.083 149.214 259.44C149.214 259.787 149.129 260.091 148.958 260.352C148.787 260.608 148.545 260.808 148.23 260.952C147.921 261.091 147.564 261.16 147.158 261.16C146.753 261.16 146.395 261.091 146.086 260.952C145.782 260.808 145.545 260.608 145.374 260.352C145.203 260.091 145.118 259.787 145.118 259.44C145.118 259.083 145.214 258.776 145.406 258.52C145.598 258.264 145.859 258.088 146.19 257.992ZM148.358 256.752C148.358 256.427 148.251 256.176 148.038 256C147.825 255.824 147.531 255.736 147.158 255.736C146.79 255.736 146.499 255.824 146.286 256C146.073 256.176 145.966 256.429 145.966 256.76C145.966 257.059 146.075 257.299 146.294 257.48C146.518 257.661 146.806 257.752 147.158 257.752C147.515 257.752 147.803 257.661 148.022 257.48C148.246 257.293 148.358 257.051 148.358 256.752ZM147.158 258.312C146.763 258.312 146.441 258.405 146.19 258.592C145.939 258.773 145.814 259.048 145.814 259.416C145.814 259.757 145.934 260.032 146.174 260.24C146.419 260.448 146.747 260.552 147.158 260.552C147.569 260.552 147.894 260.448 148.134 260.24C148.374 260.032 148.494 259.757 148.494 259.416C148.494 259.059 148.371 258.787 148.126 258.6C147.881 258.408 147.558 258.312 147.158 258.312ZM150.781 258.048C150.781 257.131 150.93 256.416 151.229 255.904C151.528 255.387 152.05 255.128 152.797 255.128C153.538 255.128 154.058 255.387 154.357 255.904C154.656 256.416 154.805 257.131 154.805 258.048C154.805 258.981 154.656 259.707 154.357 260.224C154.058 260.741 153.538 261 152.797 261C152.05 261 151.528 260.741 151.229 260.224C150.93 259.707 150.781 258.981 150.781 258.048ZM154.085 258.048C154.085 257.584 154.053 257.192 153.989 256.872C153.93 256.547 153.805 256.285 153.613 256.088C153.426 255.891 153.154 255.792 152.797 255.792C152.434 255.792 152.157 255.891 151.965 256.088C151.778 256.285 151.653 256.547 151.589 256.872C151.53 257.192 151.501 257.584 151.501 258.048C151.501 258.528 151.53 258.931 151.589 259.256C151.653 259.581 151.778 259.843 151.965 260.04C152.157 260.237 152.434 260.336 152.797 260.336C153.154 260.336 153.426 260.237 153.613 260.04C153.805 259.843 153.93 259.581 153.989 259.256C154.053 258.931 154.085 258.528 154.085 258.048ZM156.404 258.048C156.404 257.131 156.554 256.416 156.852 255.904C157.151 255.387 157.674 255.128 158.42 255.128C159.162 255.128 159.682 255.387 159.98 255.904C160.279 256.416 160.428 257.131 160.428 258.048C160.428 258.981 160.279 259.707 159.98 260.224C159.682 260.741 159.162 261 158.42 261C157.674 261 157.151 260.741 156.852 260.224C156.554 259.707 156.404 258.981 156.404 258.048ZM159.708 258.048C159.708 257.584 159.676 257.192 159.612 256.872C159.554 256.547 159.428 256.285 159.236 256.088C159.05 255.891 158.778 255.792 158.42 255.792C158.058 255.792 157.78 255.891 157.588 256.088C157.402 256.285 157.276 256.547 157.212 256.872C157.154 257.192 157.124 257.584 157.124 258.048C157.124 258.528 157.154 258.931 157.212 259.256C157.276 259.581 157.402 259.843 157.588 260.04C157.78 260.237 158.058 260.336 158.42 260.336C158.778 260.336 159.05 260.237 159.236 260.04C159.428 259.843 159.554 259.581 159.612 259.256C159.676 258.931 159.708 258.528 159.708 258.048Z" fill="#E1E1E2"/>
<path d="M181.317 260.416C181.994 259.872 182.525 259.427 182.909 259.08C183.293 258.728 183.615 258.363 183.877 257.984C184.143 257.6 184.277 257.224 184.277 256.856C184.277 256.509 184.191 256.237 184.021 256.04C183.855 255.837 183.586 255.736 183.213 255.736C182.85 255.736 182.567 255.851 182.365 256.08C182.167 256.304 182.061 256.605 182.045 256.984H181.341C181.362 256.387 181.543 255.925 181.885 255.6C182.226 255.275 182.666 255.112 183.205 255.112C183.754 255.112 184.189 255.264 184.509 255.568C184.834 255.872 184.997 256.291 184.997 256.824C184.997 257.267 184.863 257.699 184.597 258.12C184.335 258.536 184.037 258.904 183.701 259.224C183.365 259.539 182.935 259.907 182.413 260.328H185.165V260.936H181.317V260.416ZM186.518 260.416C187.195 259.872 187.726 259.427 188.11 259.08C188.494 258.728 188.817 258.363 189.078 257.984C189.345 257.6 189.478 257.224 189.478 256.856C189.478 256.509 189.393 256.237 189.222 256.04C189.057 255.837 188.787 255.736 188.414 255.736C188.051 255.736 187.769 255.851 187.566 256.08C187.369 256.304 187.262 256.605 187.246 256.984H186.542C186.563 256.387 186.745 255.925 187.086 255.6C187.427 255.275 187.867 255.112 188.406 255.112C188.955 255.112 189.39 255.264 189.71 255.568C190.035 255.872 190.198 256.291 190.198 256.824C190.198 257.267 190.065 257.699 189.798 258.12C189.537 258.536 189.238 258.904 188.902 259.224C188.566 259.539 188.137 259.907 187.614 260.328H190.366V260.936H186.518V260.416ZM191.632 259.712V259.16L194.44 255.272H195.312V259.08H196.112V259.712H195.312V261H194.592V259.712H191.632ZM194.624 256.032L192.472 259.08H194.624V256.032ZM198.311 259.992L197.415 262.144H196.927L197.511 259.992H198.311ZM202.849 256.592C202.732 256 202.366 255.704 201.753 255.704C201.278 255.704 200.924 255.888 200.689 256.256C200.454 256.619 200.34 257.219 200.345 258.056C200.468 257.779 200.67 257.563 200.953 257.408C201.241 257.248 201.561 257.168 201.913 257.168C202.462 257.168 202.9 257.339 203.225 257.68C203.556 258.021 203.721 258.493 203.721 259.096C203.721 259.459 203.649 259.784 203.505 260.072C203.366 260.36 203.153 260.589 202.865 260.76C202.582 260.931 202.238 261.016 201.833 261.016C201.284 261.016 200.854 260.893 200.545 260.648C200.236 260.403 200.02 260.064 199.897 259.632C199.774 259.2 199.713 258.667 199.713 258.032C199.713 256.075 200.396 255.096 201.761 255.096C202.284 255.096 202.694 255.237 202.993 255.52C203.292 255.803 203.468 256.16 203.521 256.592H202.849ZM201.761 257.784C201.532 257.784 201.316 257.832 201.113 257.928C200.91 258.019 200.745 258.16 200.617 258.352C200.494 258.539 200.433 258.768 200.433 259.04C200.433 259.445 200.55 259.776 200.785 260.032C201.02 260.283 201.356 260.408 201.793 260.408C202.166 260.408 202.462 260.293 202.681 260.064C202.905 259.829 203.017 259.515 203.017 259.12C203.017 258.704 202.91 258.379 202.697 258.144C202.484 257.904 202.172 257.784 201.761 257.784ZM205.303 258.048C205.303 257.131 205.452 256.416 205.751 255.904C206.05 255.387 206.572 255.128 207.319 255.128C208.06 255.128 208.58 255.387 208.879 255.904C209.178 256.416 209.327 257.131 209.327 258.048C209.327 258.981 209.178 259.707 208.879 260.224C208.58 260.741 208.06 261 207.319 261C206.572 261 206.05 260.741 205.751 260.224C205.452 259.707 205.303 258.981 205.303 258.048ZM208.607 258.048C208.607 257.584 208.575 257.192 208.511 256.872C208.452 256.547 208.327 256.285 208.135 256.088C207.948 255.891 207.676 255.792 207.319 255.792C206.956 255.792 206.679 255.891 206.487 256.088C206.3 256.285 206.175 256.547 206.111 256.872C206.052 257.192 206.023 257.584 206.023 258.048C206.023 258.528 206.052 258.931 206.111 259.256C206.175 259.581 206.3 259.843 206.487 260.04C206.679 260.237 206.956 260.336 207.319 260.336C207.676 260.336 207.948 260.237 208.135 260.04C208.327 259.843 208.452 259.581 208.511 259.256C208.575 258.931 208.607 258.528 208.607 258.048ZM210.926 258.048C210.926 257.131 211.076 256.416 211.374 255.904C211.673 255.387 212.196 255.128 212.942 255.128C213.684 255.128 214.204 255.387 214.502 255.904C214.801 256.416 214.95 257.131 214.95 258.048C214.95 258.981 214.801 259.707 214.502 260.224C214.204 260.741 213.684 261 212.942 261C212.196 261 211.673 260.741 211.374 260.224C211.076 259.707 210.926 258.981 210.926 258.048ZM214.23 258.048C214.23 257.584 214.198 257.192 214.134 256.872C214.076 256.547 213.95 256.285 213.758 256.088C213.572 255.891 213.3 255.792 212.942 255.792C212.58 255.792 212.302 255.891 212.11 256.088C211.924 256.285 211.798 256.547 211.734 256.872C211.676 257.192 211.646 257.584 211.646 258.048C211.646 258.528 211.676 258.931 211.734 259.256C211.798 259.581 211.924 259.843 212.11 260.04C212.302 260.237 212.58 260.336 212.942 260.336C213.3 260.336 213.572 260.237 213.758 260.04C213.95 259.843 214.076 259.581 214.134 259.256C214.198 258.931 214.23 258.528 214.23 258.048Z" fill="#E1E1E2"/>
<path d="M232.421 260.416C233.098 259.872 233.629 259.427 234.013 259.08C234.397 258.728 234.719 258.363 234.981 257.984C235.247 257.6 235.381 257.224 235.381 256.856C235.381 256.509 235.295 256.237 235.125 256.04C234.959 255.837 234.69 255.736 234.317 255.736C233.954 255.736 233.671 255.851 233.469 256.08C233.271 256.304 233.165 256.605 233.149 256.984H232.445C232.466 256.387 232.647 255.925 232.989 255.6C233.33 255.275 233.77 255.112 234.309 255.112C234.858 255.112 235.293 255.264 235.613 255.568C235.938 255.872 236.101 256.291 236.101 256.824C236.101 257.267 235.967 257.699 235.701 258.12C235.439 258.536 235.141 258.904 234.805 259.224C234.469 259.539 234.039 259.907 233.517 260.328H236.269V260.936H232.421V260.416ZM237.622 260.416C238.3 259.872 238.83 259.427 239.214 259.08C239.598 258.728 239.921 258.363 240.182 257.984C240.449 257.6 240.582 257.224 240.582 256.856C240.582 256.509 240.497 256.237 240.326 256.04C240.161 255.837 239.892 255.736 239.518 255.736C239.156 255.736 238.873 255.851 238.67 256.08C238.473 256.304 238.366 256.605 238.35 256.984H237.646C237.668 256.387 237.849 255.925 238.19 255.6C238.532 255.275 238.972 255.112 239.51 255.112C240.06 255.112 240.494 255.264 240.814 255.568C241.14 255.872 241.302 256.291 241.302 256.824C241.302 257.267 241.169 257.699 240.902 258.12C240.641 258.536 240.342 258.904 240.006 259.224C239.67 259.539 239.241 259.907 238.718 260.328H241.47V260.936H237.622V260.416ZM246.6 255.848H243.792V257.672C243.914 257.501 244.096 257.363 244.336 257.256C244.576 257.144 244.834 257.088 245.112 257.088C245.554 257.088 245.914 257.181 246.192 257.368C246.469 257.549 246.666 257.787 246.784 258.08C246.906 258.368 246.968 258.675 246.968 259C246.968 259.384 246.896 259.728 246.752 260.032C246.608 260.336 246.386 260.576 246.088 260.752C245.794 260.928 245.429 261.016 244.992 261.016C244.432 261.016 243.978 260.872 243.632 260.584C243.285 260.296 243.074 259.912 243 259.432H243.712C243.781 259.736 243.928 259.973 244.152 260.144C244.376 260.315 244.658 260.4 245 260.4C245.421 260.4 245.738 260.275 245.952 260.024C246.165 259.768 246.272 259.432 246.272 259.016C246.272 258.6 246.165 258.28 245.952 258.056C245.738 257.827 245.424 257.712 245.008 257.712C244.725 257.712 244.477 257.781 244.264 257.92C244.056 258.053 243.904 258.237 243.808 258.472H243.12V255.208H246.6V255.848ZM249.407 259.992L248.511 262.144H248.023L248.607 259.992H249.407ZM250.721 258.048C250.721 257.131 250.87 256.416 251.169 255.904C251.468 255.387 251.99 255.128 252.737 255.128C253.478 255.128 253.998 255.387 254.297 255.904C254.596 256.416 254.745 257.131 254.745 258.048C254.745 258.981 254.596 259.707 254.297 260.224C253.998 260.741 253.478 261 252.737 261C251.99 261 251.468 260.741 251.169 260.224C250.87 259.707 250.721 258.981 250.721 258.048ZM254.025 258.048C254.025 257.584 253.993 257.192 253.929 256.872C253.87 256.547 253.745 256.285 253.553 256.088C253.366 255.891 253.094 255.792 252.737 255.792C252.374 255.792 252.097 255.891 251.905 256.088C251.718 256.285 251.593 256.547 251.529 256.872C251.47 257.192 251.441 257.584 251.441 258.048C251.441 258.528 251.47 258.931 251.529 259.256C251.593 259.581 251.718 259.843 251.905 260.04C252.097 260.237 252.374 260.336 252.737 260.336C253.094 260.336 253.366 260.237 253.553 260.04C253.745 259.843 253.87 259.581 253.929 259.256C253.993 258.931 254.025 258.528 254.025 258.048ZM256.345 258.048C256.345 257.131 256.494 256.416 256.793 255.904C257.091 255.387 257.614 255.128 258.361 255.128C259.102 255.128 259.622 255.387 259.921 255.904C260.219 256.416 260.369 257.131 260.369 258.048C260.369 258.981 260.219 259.707 259.921 260.224C259.622 260.741 259.102 261 258.361 261C257.614 261 257.091 260.741 256.793 260.224C256.494 259.707 256.345 258.981 256.345 258.048ZM259.649 258.048C259.649 257.584 259.617 257.192 259.553 256.872C259.494 256.547 259.369 256.285 259.177 256.088C258.99 255.891 258.718 255.792 258.361 255.792C257.998 255.792 257.721 255.891 257.529 256.088C257.342 256.285 257.217 256.547 257.153 256.872C257.094 257.192 257.065 257.584 257.065 258.048C257.065 258.528 257.094 258.931 257.153 259.256C257.217 259.581 257.342 259.843 257.529 260.04C257.721 260.237 257.998 260.336 258.361 260.336C258.718 260.336 258.99 260.237 259.177 260.04C259.369 259.843 259.494 259.581 259.553 259.256C259.617 258.931 259.649 258.528 259.649 258.048ZM261.968 258.048C261.968 257.131 262.117 256.416 262.416 255.904C262.715 255.387 263.237 255.128 263.984 255.128C264.725 255.128 265.245 255.387 265.544 255.904C265.843 256.416 265.992 257.131 265.992 258.048C265.992 258.981 265.843 259.707 265.544 260.224C265.245 260.741 264.725 261 263.984 261C263.237 261 262.715 260.741 262.416 260.224C262.117 259.707 261.968 258.981 261.968 258.048ZM265.272 258.048C265.272 257.584 265.24 257.192 265.176 256.872C265.117 256.547 264.992 256.285 264.8 256.088C264.613 255.891 264.341 255.792 263.984 255.792C263.621 255.792 263.344 255.891 263.152 256.088C262.965 256.285 262.84 256.547 262.776 256.872C262.717 257.192 262.688 257.584 262.688 258.048C262.688 258.528 262.717 258.931 262.776 259.256C262.84 259.581 262.965 259.843 263.152 260.04C263.344 260.237 263.621 260.336 263.984 260.336C264.341 260.336 264.613 260.237 264.8 260.04C264.992 259.843 265.117 259.581 265.176 259.256C265.24 258.931 265.272 258.528 265.272 258.048Z" fill="#E1E1E2"/>
<path d="M288.635 260.416C289.312 259.872 289.843 259.427 290.227 259.08C290.611 258.728 290.934 258.363 291.195 257.984C291.462 257.6 291.595 257.224 291.595 256.856C291.595 256.509 291.51 256.237 291.339 256.04C291.174 255.837 290.904 255.736 290.531 255.736C290.168 255.736 289.886 255.851 289.683 256.08C289.486 256.304 289.379 256.605 289.363 256.984H288.659C288.68 256.387 288.862 255.925 289.203 255.6C289.544 255.275 289.984 255.112 290.523 255.112C291.072 255.112 291.507 255.264 291.827 255.568C292.152 255.872 292.315 256.291 292.315 256.824C292.315 257.267 292.182 257.699 291.915 258.12C291.654 258.536 291.355 258.904 291.019 259.224C290.683 259.539 290.254 259.907 289.731 260.328H292.483V260.936H288.635V260.416ZM293.837 260.416C294.514 259.872 295.045 259.427 295.429 259.08C295.813 258.728 296.135 258.363 296.397 257.984C296.663 257.6 296.797 257.224 296.797 256.856C296.797 256.509 296.711 256.237 296.541 256.04C296.375 255.837 296.106 255.736 295.733 255.736C295.37 255.736 295.087 255.851 294.885 256.08C294.687 256.304 294.581 256.605 294.565 256.984H293.861C293.882 256.387 294.063 255.925 294.405 255.6C294.746 255.275 295.186 255.112 295.725 255.112C296.274 255.112 296.709 255.264 297.029 255.568C297.354 255.872 297.517 256.291 297.517 256.824C297.517 257.267 297.383 257.699 297.117 258.12C296.855 258.536 296.557 258.904 296.221 259.224C295.885 259.539 295.455 259.907 294.933 260.328H297.685V260.936H293.837V260.416ZM302.35 256.592C302.233 256 301.868 255.704 301.254 255.704C300.78 255.704 300.425 255.888 300.19 256.256C299.956 256.619 299.841 257.219 299.846 258.056C299.969 257.779 300.172 257.563 300.454 257.408C300.742 257.248 301.062 257.168 301.414 257.168C301.964 257.168 302.401 257.339 302.726 257.68C303.057 258.021 303.222 258.493 303.222 259.096C303.222 259.459 303.15 259.784 303.006 260.072C302.868 260.36 302.654 260.589 302.366 260.76C302.084 260.931 301.74 261.016 301.334 261.016C300.785 261.016 300.356 260.893 300.046 260.648C299.737 260.403 299.521 260.064 299.398 259.632C299.276 259.2 299.214 258.667 299.214 258.032C299.214 256.075 299.897 255.096 301.262 255.096C301.785 255.096 302.196 255.237 302.494 255.52C302.793 255.803 302.969 256.16 303.022 256.592H302.35ZM301.262 257.784C301.033 257.784 300.817 257.832 300.614 257.928C300.412 258.019 300.246 258.16 300.118 258.352C299.996 258.539 299.934 258.768 299.934 259.04C299.934 259.445 300.052 259.776 300.286 260.032C300.521 260.283 300.857 260.408 301.294 260.408C301.668 260.408 301.964 260.293 302.182 260.064C302.406 259.829 302.518 259.515 302.518 259.12C302.518 258.704 302.412 258.379 302.198 258.144C301.985 257.904 301.673 257.784 301.262 257.784ZM305.676 259.992L304.78 262.144H304.292L304.876 259.992H305.676ZM308.046 257.992C307.748 257.875 307.518 257.704 307.358 257.48C307.198 257.256 307.118 256.984 307.118 256.664C307.118 256.376 307.19 256.117 307.334 255.888C307.478 255.653 307.692 255.469 307.974 255.336C308.262 255.197 308.609 255.128 309.014 255.128C309.42 255.128 309.764 255.197 310.046 255.336C310.334 255.469 310.55 255.653 310.694 255.888C310.844 256.117 310.918 256.376 310.918 256.664C310.918 256.973 310.836 257.245 310.67 257.48C310.505 257.709 310.278 257.88 309.99 257.992C310.321 258.093 310.582 258.272 310.774 258.528C310.972 258.779 311.07 259.083 311.07 259.44C311.07 259.787 310.985 260.091 310.814 260.352C310.644 260.608 310.401 260.808 310.086 260.952C309.777 261.091 309.42 261.16 309.014 261.16C308.609 261.16 308.252 261.091 307.942 260.952C307.638 260.808 307.401 260.608 307.23 260.352C307.06 260.091 306.974 259.787 306.974 259.44C306.974 259.083 307.07 258.776 307.262 258.52C307.454 258.264 307.716 258.088 308.046 257.992ZM310.214 256.752C310.214 256.427 310.108 256.176 309.894 256C309.681 255.824 309.388 255.736 309.014 255.736C308.646 255.736 308.356 255.824 308.142 256C307.929 256.176 307.822 256.429 307.822 256.76C307.822 257.059 307.932 257.299 308.15 257.48C308.374 257.661 308.662 257.752 309.014 257.752C309.372 257.752 309.66 257.661 309.878 257.48C310.102 257.293 310.214 257.051 310.214 256.752ZM309.014 258.312C308.62 258.312 308.297 258.405 308.046 258.592C307.796 258.773 307.67 259.048 307.67 259.416C307.67 259.757 307.79 260.032 308.03 260.24C308.276 260.448 308.604 260.552 309.014 260.552C309.425 260.552 309.75 260.448 309.99 260.24C310.23 260.032 310.35 259.757 310.35 259.416C310.35 259.059 310.228 258.787 309.982 258.6C309.737 258.408 309.414 258.312 309.014 258.312ZM312.637 258.048C312.637 257.131 312.787 256.416 313.085 255.904C313.384 255.387 313.907 255.128 314.653 255.128C315.395 255.128 315.915 255.387 316.213 255.904C316.512 256.416 316.661 257.131 316.661 258.048C316.661 258.981 316.512 259.707 316.213 260.224C315.915 260.741 315.395 261 314.653 261C313.907 261 313.384 260.741 313.085 260.224C312.787 259.707 312.637 258.981 312.637 258.048ZM315.941 258.048C315.941 257.584 315.909 257.192 315.845 256.872C315.787 256.547 315.661 256.285 315.469 256.088C315.283 255.891 315.011 255.792 314.653 255.792C314.291 255.792 314.013 255.891 313.821 256.088C313.635 256.285 313.509 256.547 313.445 256.872C313.387 257.192 313.357 257.584 313.357 258.048C313.357 258.528 313.387 258.931 313.445 259.256C313.509 259.581 313.635 259.843 313.821 260.04C314.013 260.237 314.291 260.336 314.653 260.336C315.011 260.336 315.283 260.237 315.469 260.04C315.661 259.843 315.787 259.581 315.845 259.256C315.909 258.931 315.941 258.528 315.941 258.048ZM318.261 258.048C318.261 257.131 318.41 256.416 318.709 255.904C319.007 255.387 319.53 255.128 320.277 255.128C321.018 255.128 321.538 255.387 321.837 255.904C322.135 256.416 322.285 257.131 322.285 258.048C322.285 258.981 322.135 259.707 321.837 260.224C321.538 260.741 321.018 261 320.277 261C319.53 261 319.007 260.741 318.709 260.224C318.41 259.707 318.261 258.981 318.261 258.048ZM321.565 258.048C321.565 257.584 321.533 257.192 321.469 256.872C321.41 256.547 321.285 256.285 321.093 256.088C320.906 255.891 320.634 255.792 320.277 255.792C319.914 255.792 319.637 255.891 319.445 256.088C319.258 256.285 319.133 256.547 319.069 256.872C319.01 257.192 318.981 257.584 318.981 258.048C318.981 258.528 319.01 258.931 319.069 259.256C319.133 259.581 319.258 259.843 319.445 260.04C319.637 260.237 319.914 260.336 320.277 260.336C320.634 260.336 320.906 260.237 321.093 260.04C321.285 259.843 321.41 259.581 321.469 259.256C321.533 258.931 321.565 258.528 321.565 258.048Z" fill="#E1E1E2"/>
<path d="M45.9934 186H42.9272V243H45.9934V186Z" fill="#138808"/>
<path d="M51.1038 135H48.0376V243H51.1038V135Z" fill="#FE6C02"/>
<path d="M111.407 186H108.341V243H111.407V186Z" fill="#138808"/>
<path d="M116.517 135H113.451V243H116.517V135Z" fill="#FE6C02"/>
<path d="M163.533 229H160.467V243H163.533V229Z" fill="#138808"/>
<path d="M168.644 216H165.577V243H168.644V216Z" fill="#FE6C02"/>
<path d="M220.77 233H217.703V243H220.77V233Z" fill="#138808"/>
<path d="M225.88 224H222.814V243H225.88V224Z" fill="#FE6C02"/>
<path d="M248.366 237H245.3V243H248.366V237Z" fill="#138808"/>
<path d="M253.476 232H250.41V243H253.476V232Z" fill="#FE6C02"/>
<path d="M88.9215 186H85.8553V243H88.9215V186Z" fill="#138808"/>
<path d="M94.0319 102H90.9657V243H94.0319V102Z" fill="#FE6C02"/>
<path d="M63.3691 207H60.3028V243H63.3691V207Z" fill="#138808"/>
<path d="M68.4796 194H65.4134V243H68.4796V194Z" fill="#FE6C02"/>
<path d="M137.981 207H134.915V243H137.981V207Z" fill="#138808"/>
<path d="M143.091 194H140.025V243H143.091V194Z" fill="#FE6C02"/>
<path d="M192.151 188H189.085V243H192.151V188Z" fill="#138808"/>
<path d="M197.262 168H194.196V243H197.262V168Z" fill="#FE6C02"/>
<path d="M273.918 189H270.852V244H273.918V189Z" fill="#138808"/>
<path d="M279.029 169H275.962V244H279.029V169Z" fill="#FE6C02"/>
<path d="M304.58 189H301.514V244H304.58V189Z" fill="#138808"/>
<path d="M309.691 169H306.625V244H309.691V169Z" fill="#FE6C02"/>
<rect x="257.5" y="0.5" width="66" height="28" rx="7.5" fill="#202225" stroke="#1E2022"/>
<path d="M309.532 17.3369C309.452 17.3346 309.38 17.3187 309.313 17.2891C309.247 17.2594 309.184 17.2139 309.122 17.1523L305.807 13.7275C305.709 13.6296 305.66 13.5088 305.66 13.3652C305.66 13.2695 305.682 13.1829 305.728 13.1055C305.774 13.0257 305.835 12.9631 305.913 12.9175C305.99 12.8696 306.077 12.8457 306.172 12.8457C306.314 12.8457 306.438 12.8993 306.545 13.0063L309.529 16.103L312.516 13.0063C312.625 12.8993 312.75 12.8457 312.889 12.8457C312.987 12.8457 313.074 12.8696 313.152 12.9175C313.229 12.9631 313.291 13.0257 313.336 13.1055C313.384 13.1829 313.408 13.2695 313.408 13.3652C313.408 13.5088 313.358 13.6296 313.258 13.7275L309.942 17.1523C309.881 17.2161 309.817 17.2629 309.751 17.2925C309.683 17.3221 309.61 17.3369 309.532 17.3369Z" fill="white"/>
<path d="M267.114 10.2727V19H266.057V10.2727H267.114ZM276.153 10.2727V19H275.13L270.375 12.1477H270.289V19H269.233V10.2727H270.255L275.028 17.142H275.113V10.2727H276.153ZM278.268 19V10.2727H281.217C281.898 10.2727 282.458 10.3892 282.896 10.6222C283.333 10.8523 283.657 11.169 283.867 11.5724C284.077 11.9759 284.183 12.4347 284.183 12.9489C284.183 13.4631 284.077 13.919 283.867 14.3168C283.657 14.7145 283.335 15.027 282.9 15.2543C282.465 15.4787 281.91 15.5909 281.234 15.5909H278.847V14.6364H281.2C281.665 14.6364 282.04 14.5682 282.325 14.4318C282.612 14.2955 282.819 14.1023 282.947 13.8523C283.077 13.5994 283.143 13.2983 283.143 12.9489C283.143 12.5994 283.077 12.294 282.947 12.0327C282.816 11.7713 282.607 11.5696 282.32 11.4276C282.033 11.2827 281.654 11.2102 281.183 11.2102H279.325V19H278.268ZM282.376 15.0795L284.523 19H283.296L281.183 15.0795H282.376Z" fill="white"/>
<rect x="0.5" y="0.5" width="76" height="28" rx="7.5" fill="#202225" stroke="#1E2022"/>
<path d="M61.5322 17.3369C61.4525 17.3346 61.3796 17.3187 61.3135 17.2891C61.2474 17.2594 61.1836 17.2139 61.1221 17.1523L57.8066 13.7275C57.7087 13.6296 57.6597 13.5088 57.6597 13.3652C57.6597 13.2695 57.6825 13.1829 57.728 13.1055C57.7736 13.0257 57.8351 12.9631 57.9126 12.9175C57.9901 12.8696 58.0767 12.8457 58.1724 12.8457C58.3136 12.8457 58.4378 12.8993 58.5449 13.0063L61.5288 16.103L64.5161 13.0063C64.6255 12.8993 64.7497 12.8457 64.8887 12.8457C64.9867 12.8457 65.0744 12.8696 65.1519 12.9175C65.2293 12.9631 65.2909 13.0257 65.3364 13.1055C65.3843 13.1829 65.4082 13.2695 65.4082 13.3652C65.4082 13.5088 65.3581 13.6296 65.2578 13.7275L61.9424 17.1523C61.8809 17.2161 61.8171 17.2629 61.751 17.2925C61.6826 17.3221 61.6097 17.3369 61.5322 17.3369Z" fill="white"/>
<path d="M11.75 19H9.05682V10.2727H11.8693C12.7159 10.2727 13.4403 10.4474 14.0426 10.7969C14.6449 11.1435 15.1065 11.642 15.4276 12.2926C15.7486 12.9403 15.9091 13.7159 15.9091 14.6193C15.9091 15.5284 15.7472 16.3111 15.4233 16.9673C15.0994 17.6207 14.6278 18.1236 14.0085 18.4759C13.3892 18.8253 12.6364 19 11.75 19ZM10.1136 18.0625H11.6818C12.4034 18.0625 13.0014 17.9233 13.4759 17.6449C13.9503 17.3665 14.304 16.9702 14.5369 16.456C14.7699 15.9418 14.8864 15.3295 14.8864 14.6193C14.8864 13.9148 14.7713 13.3082 14.5412 12.7997C14.3111 12.2884 13.9673 11.8963 13.5099 11.6236C13.0526 11.348 12.483 11.2102 11.8011 11.2102H10.1136V18.0625ZM20.5966 10.2727V19H19.5398V11.3807H19.4886L17.358 12.7955V11.7216L19.5398 10.2727H20.5966ZM24.108 17.8068L24.0398 18.267C23.9915 18.5909 23.9176 18.9375 23.8182 19.3068C23.7216 19.6761 23.6207 20.0241 23.5156 20.3509C23.4105 20.6776 23.3239 20.9375 23.2557 21.1307H22.4886C22.5256 20.9489 22.5739 20.7088 22.6335 20.4105C22.6932 20.1122 22.7528 19.7784 22.8125 19.4091C22.875 19.0426 22.9261 18.6676 22.9659 18.2841L23.017 17.8068H24.108ZM27.6928 19L25.3065 10.2727H26.3803L28.2042 17.3807H28.2894L30.1474 10.2727H31.3406L33.1985 17.3807H33.2837L35.1076 10.2727H36.1815L33.7951 19H32.7042L30.7781 12.0455H30.7099L28.7837 19H27.6928ZM40.413 10.2727V19H39.3562V11.3807H39.305L37.1744 12.7955V11.7216L39.3562 10.2727H40.413Z" fill="white"/>
<path d="M75.2168 280.194H317.783C321.109 280.194 323.806 282.891 323.806 286.217V295.783C323.806 299.109 321.109 301.806 317.783 301.806H75.2168C71.8907 301.806 69.1945 299.109 69.1943 295.783V286.217C69.1945 282.891 71.8907 280.194 75.2168 280.194Z" fill="#1B1D20" stroke="#2F2F2F" stroke-width="0.388566"/>
<path d="M78.7045 294V288.182H79.4091V293.375H82.1136V294H78.7045ZM84.3977 294.102C84.1212 294.102 83.8703 294.05 83.6449 293.946C83.4195 293.84 83.2405 293.688 83.108 293.489C82.9754 293.288 82.9091 293.045 82.9091 292.761C82.9091 292.511 82.9583 292.309 83.0568 292.153C83.1553 291.996 83.2869 291.873 83.4517 291.784C83.6165 291.695 83.7983 291.629 83.9972 291.585C84.1979 291.54 84.3996 291.504 84.6023 291.477C84.8674 291.443 85.0824 291.418 85.2472 291.401C85.4138 291.382 85.535 291.35 85.6108 291.307C85.6884 291.263 85.7273 291.188 85.7273 291.08V291.057C85.7273 290.777 85.6506 290.559 85.4972 290.403C85.3456 290.248 85.1155 290.17 84.8068 290.17C84.4867 290.17 84.2358 290.241 84.054 290.381C83.8722 290.521 83.7443 290.67 83.6705 290.83L83.0341 290.602C83.1477 290.337 83.2992 290.131 83.4886 289.983C83.6799 289.833 83.8883 289.729 84.1136 289.67C84.3409 289.61 84.5644 289.58 84.7841 289.58C84.9242 289.58 85.0852 289.597 85.267 289.631C85.4508 289.663 85.6278 289.73 85.7983 289.832C85.9706 289.935 86.1136 290.089 86.2273 290.295C86.3409 290.502 86.3977 290.778 86.3977 291.125V294H85.7273V293.409H85.6932C85.6477 293.504 85.572 293.605 85.4659 293.713C85.3598 293.821 85.2187 293.913 85.0426 293.989C84.8665 294.064 84.6515 294.102 84.3977 294.102ZM84.5 293.5C84.7652 293.5 84.9886 293.448 85.1705 293.344C85.3542 293.24 85.4924 293.105 85.5852 292.94C85.6799 292.776 85.7273 292.602 85.7273 292.42V291.807C85.6989 291.841 85.6364 291.872 85.5398 291.901C85.4451 291.927 85.3352 291.951 85.2102 291.972C85.0871 291.991 84.9669 292.008 84.8494 292.023C84.7339 292.036 84.6402 292.047 84.5682 292.057C84.3939 292.08 84.2311 292.116 84.0795 292.168C83.9299 292.217 83.8087 292.292 83.7159 292.392C83.625 292.491 83.5795 292.625 83.5795 292.795C83.5795 293.028 83.6657 293.205 83.8381 293.324C84.0123 293.441 84.233 293.5 84.5 293.5ZM90.7124 290.614L90.1101 290.784C90.0722 290.684 90.0163 290.586 89.9425 290.491C89.8705 290.395 89.772 290.315 89.647 290.253C89.522 290.19 89.362 290.159 89.1669 290.159C88.8999 290.159 88.6773 290.221 88.4993 290.344C88.3232 290.465 88.2351 290.619 88.2351 290.807C88.2351 290.973 88.2957 291.105 88.4169 291.202C88.5381 291.298 88.7275 291.379 88.9851 291.443L89.6328 291.602C90.023 291.697 90.3137 291.842 90.505 292.037C90.6963 292.23 90.7919 292.479 90.7919 292.784C90.7919 293.034 90.7199 293.258 90.576 293.455C90.4339 293.652 90.2351 293.807 89.9794 293.92C89.7237 294.034 89.4264 294.091 89.0874 294.091C88.6423 294.091 88.2739 293.994 87.9822 293.801C87.6906 293.608 87.5059 293.326 87.4283 292.955L88.0646 292.795C88.1252 293.03 88.2398 293.206 88.4084 293.324C88.5788 293.441 88.8014 293.5 89.076 293.5C89.3885 293.5 89.6366 293.434 89.8203 293.301C90.0059 293.167 90.0987 293.006 90.0987 292.818C90.0987 292.667 90.0457 292.54 89.9396 292.438C89.8336 292.333 89.6707 292.256 89.451 292.205L88.7237 292.034C88.3241 291.939 88.0305 291.793 87.843 291.594C87.6574 291.393 87.5646 291.142 87.5646 290.841C87.5646 290.595 87.6338 290.377 87.772 290.188C87.9122 289.998 88.1025 289.849 88.343 289.741C88.5855 289.634 88.8601 289.58 89.1669 289.58C89.5987 289.58 89.9377 289.674 90.1839 289.864C90.4321 290.053 90.6082 290.303 90.7124 290.614ZM93.6989 289.636V290.205H91.4375V289.636H93.6989ZM92.0966 288.591H92.767V292.75C92.767 292.939 92.7945 293.081 92.8494 293.176C92.9062 293.269 92.9782 293.331 93.0653 293.364C93.1544 293.394 93.2481 293.409 93.3466 293.409C93.4205 293.409 93.4811 293.405 93.5284 293.398C93.5758 293.388 93.6136 293.381 93.642 293.375L93.7784 293.977C93.733 293.994 93.6695 294.011 93.5881 294.028C93.5066 294.047 93.4034 294.057 93.2784 294.057C93.089 294.057 92.9034 294.016 92.7216 293.935C92.5417 293.853 92.392 293.729 92.2727 293.563C92.1553 293.396 92.0966 293.186 92.0966 292.932V288.591ZM97.0483 294V288.182H99.0142C99.4706 288.182 99.8437 288.264 100.134 288.429C100.425 288.592 100.641 288.813 100.781 289.091C100.921 289.369 100.991 289.68 100.991 290.023C100.991 290.366 100.921 290.677 100.781 290.957C100.643 291.238 100.429 291.461 100.139 291.628C99.8494 291.793 99.4782 291.875 99.0256 291.875H97.6165V291.25H99.0028C99.3153 291.25 99.5663 291.196 99.7557 291.088C99.9451 290.98 100.082 290.834 100.168 290.651C100.255 290.465 100.298 290.256 100.298 290.023C100.298 289.79 100.255 289.581 100.168 289.398C100.082 289.214 99.9441 289.07 99.7528 288.966C99.5616 288.86 99.3078 288.807 98.9915 288.807H97.7528V294H97.0483ZM102.036 294V289.636H102.683V290.295H102.729C102.808 290.08 102.952 289.904 103.161 289.77C103.369 289.635 103.604 289.568 103.865 289.568C103.914 289.568 103.976 289.569 104.05 289.571C104.124 289.573 104.179 289.576 104.217 289.58V290.261C104.195 290.256 104.143 290.247 104.061 290.236C103.982 290.223 103.897 290.216 103.808 290.216C103.596 290.216 103.407 290.26 103.24 290.349C103.075 290.437 102.945 290.558 102.848 290.713C102.753 290.866 102.706 291.042 102.706 291.239V294H102.036ZM105.012 294V289.636H105.683V294H105.012ZM105.353 288.909C105.222 288.909 105.11 288.865 105.015 288.776C104.922 288.687 104.876 288.58 104.876 288.455C104.876 288.33 104.922 288.223 105.015 288.134C105.11 288.045 105.222 288 105.353 288C105.484 288 105.595 288.045 105.688 288.134C105.783 288.223 105.83 288.33 105.83 288.455C105.83 288.58 105.783 288.687 105.688 288.776C105.595 288.865 105.484 288.909 105.353 288.909ZM108.683 294.091C108.274 294.091 107.922 293.994 107.626 293.801C107.331 293.608 107.104 293.342 106.945 293.003C106.786 292.664 106.706 292.277 106.706 291.841C106.706 291.398 106.787 291.007 106.95 290.668C107.115 290.327 107.344 290.061 107.638 289.869C107.933 289.676 108.278 289.58 108.672 289.58C108.979 289.58 109.255 289.636 109.501 289.75C109.748 289.864 109.949 290.023 110.107 290.227C110.264 290.432 110.361 290.67 110.399 290.943H109.729C109.678 290.744 109.564 290.568 109.388 290.415C109.214 290.259 108.979 290.182 108.683 290.182C108.422 290.182 108.193 290.25 107.996 290.386C107.801 290.521 107.648 290.711 107.538 290.957C107.43 291.202 107.376 291.489 107.376 291.818C107.376 292.155 107.429 292.449 107.536 292.699C107.643 292.949 107.795 293.143 107.99 293.281C108.187 293.42 108.418 293.489 108.683 293.489C108.857 293.489 109.016 293.458 109.158 293.398C109.3 293.337 109.42 293.25 109.518 293.136C109.617 293.023 109.687 292.886 109.729 292.727H110.399C110.361 292.985 110.268 293.217 110.118 293.423C109.97 293.628 109.774 293.791 109.53 293.912C109.287 294.031 109.005 294.091 108.683 294.091ZM113.209 294.091C112.788 294.091 112.426 293.998 112.121 293.813C111.818 293.625 111.584 293.364 111.419 293.028C111.256 292.691 111.175 292.299 111.175 291.852C111.175 291.405 111.256 291.011 111.419 290.67C111.584 290.328 111.813 290.061 112.107 289.869C112.402 289.676 112.747 289.58 113.141 289.58C113.368 289.58 113.592 289.617 113.814 289.693C114.036 289.769 114.237 289.892 114.419 290.063C114.601 290.231 114.746 290.455 114.854 290.733C114.962 291.011 115.016 291.354 115.016 291.761V292.045H111.652V291.466H114.334C114.334 291.22 114.285 291 114.186 290.807C114.089 290.614 113.951 290.461 113.771 290.349C113.593 290.238 113.383 290.182 113.141 290.182C112.874 290.182 112.643 290.248 112.447 290.381C112.254 290.511 112.106 290.682 112.001 290.892C111.897 291.102 111.845 291.328 111.845 291.568V291.955C111.845 292.284 111.902 292.563 112.016 292.793C112.131 293.02 112.291 293.193 112.496 293.313C112.7 293.43 112.938 293.489 113.209 293.489C113.385 293.489 113.544 293.464 113.686 293.415C113.83 293.364 113.954 293.288 114.058 293.188C114.162 293.085 114.243 292.958 114.3 292.807L114.947 292.989C114.879 293.208 114.765 293.402 114.604 293.568C114.443 293.733 114.244 293.862 114.007 293.955C113.77 294.045 113.504 294.091 113.209 294.091Z" fill="#9096A1"/>
<path d="M122.48 294.08C122.124 294.08 121.804 294.011 121.52 293.875C121.238 293.737 121.012 293.547 120.844 293.307C120.675 293.066 120.585 292.792 120.574 292.483H121.426C121.447 292.733 121.558 292.938 121.759 293.099C121.959 293.26 122.2 293.341 122.48 293.341C122.704 293.341 122.902 293.29 123.074 293.188C123.248 293.083 123.384 292.94 123.483 292.759C123.583 292.577 123.634 292.369 123.634 292.136C123.634 291.9 123.582 291.688 123.48 291.503C123.378 291.317 123.237 291.171 123.057 291.065C122.879 290.959 122.674 290.905 122.443 290.903C122.267 290.903 122.09 290.934 121.912 290.994C121.734 291.055 121.59 291.134 121.48 291.233L120.676 291.114L121.003 288.182H124.202V288.935H121.733L121.548 290.563H121.582C121.696 290.453 121.847 290.361 122.034 290.287C122.223 290.213 122.426 290.176 122.642 290.176C122.996 290.176 123.312 290.26 123.588 290.429C123.866 290.598 124.085 290.828 124.244 291.119C124.405 291.409 124.485 291.742 124.483 292.119C124.485 292.496 124.4 292.832 124.227 293.128C124.057 293.423 123.82 293.656 123.517 293.827C123.216 293.995 122.87 294.08 122.48 294.08ZM125.521 294V293.364L127.489 291.324C127.7 291.102 127.873 290.908 128.009 290.741C128.147 290.573 128.251 290.413 128.319 290.261C128.387 290.11 128.421 289.949 128.421 289.778C128.421 289.585 128.376 289.419 128.285 289.278C128.194 289.136 128.07 289.027 127.913 288.952C127.755 288.874 127.578 288.835 127.381 288.835C127.173 288.835 126.991 288.878 126.836 288.963C126.681 289.048 126.561 289.169 126.478 289.324C126.395 289.479 126.353 289.661 126.353 289.869H125.515C125.515 289.515 125.596 289.205 125.759 288.94C125.922 288.675 126.146 288.47 126.43 288.324C126.714 288.176 127.037 288.102 127.398 288.102C127.764 288.102 128.086 288.175 128.364 288.321C128.645 288.465 128.863 288.662 129.021 288.912C129.178 289.16 129.256 289.44 129.256 289.753C129.256 289.969 129.216 290.18 129.134 290.386C129.055 290.593 128.915 290.823 128.717 291.077C128.518 291.329 128.241 291.634 127.887 291.994L126.731 293.205V293.247H129.35V294H125.521ZM132.452 294.097C132.004 294.095 131.62 293.976 131.302 293.741C130.984 293.507 130.74 293.165 130.572 292.716C130.403 292.267 130.319 291.726 130.319 291.094C130.319 290.463 130.403 289.924 130.572 289.477C130.742 289.03 130.987 288.689 131.305 288.455C131.625 288.22 132.007 288.102 132.452 288.102C132.897 288.102 133.279 288.221 133.597 288.457C133.915 288.692 134.159 289.033 134.327 289.48C134.498 289.925 134.583 290.463 134.583 291.094C134.583 291.728 134.499 292.27 134.33 292.719C134.162 293.166 133.918 293.508 133.6 293.744C133.282 293.979 132.899 294.097 132.452 294.097ZM132.452 293.338C132.846 293.338 133.154 293.146 133.376 292.761C133.599 292.377 133.711 291.821 133.711 291.094C133.711 290.611 133.66 290.203 133.558 289.869C133.457 289.534 133.312 289.28 133.123 289.108C132.935 288.934 132.712 288.847 132.452 288.847C132.06 288.847 131.753 289.04 131.529 289.426C131.306 289.813 131.193 290.368 131.191 291.094C131.191 291.579 131.241 291.989 131.342 292.324C131.444 292.657 131.589 292.91 131.776 293.082C131.964 293.253 132.189 293.338 132.452 293.338ZM135.951 294.054C135.796 294.054 135.662 293.999 135.55 293.889C135.439 293.777 135.383 293.643 135.383 293.486C135.383 293.33 135.439 293.198 135.55 293.088C135.662 292.976 135.796 292.92 135.951 292.92C136.106 292.92 136.24 292.976 136.352 293.088C136.463 293.198 136.519 293.33 136.519 293.486C136.519 293.59 136.493 293.686 136.44 293.773C136.388 293.858 136.32 293.926 136.235 293.977C136.15 294.028 136.055 294.054 135.951 294.054ZM139.46 294.097C139.011 294.095 138.628 293.976 138.31 293.741C137.991 293.507 137.748 293.165 137.58 292.716C137.411 292.267 137.327 291.726 137.327 291.094C137.327 290.463 137.411 289.924 137.58 289.477C137.75 289.03 137.994 288.689 138.312 288.455C138.633 288.22 139.015 288.102 139.46 288.102C139.905 288.102 140.287 288.221 140.605 288.457C140.923 288.692 141.167 289.033 141.335 289.48C141.506 289.925 141.591 290.463 141.591 291.094C141.591 291.728 141.507 292.27 141.338 292.719C141.17 293.166 140.926 293.508 140.608 293.744C140.29 293.979 139.907 294.097 139.46 294.097ZM139.46 293.338C139.854 293.338 140.162 293.146 140.384 292.761C140.607 292.377 140.719 291.821 140.719 291.094C140.719 290.611 140.668 290.203 140.565 289.869C140.465 289.534 140.32 289.28 140.131 289.108C139.943 288.934 139.72 288.847 139.46 288.847C139.068 288.847 138.76 289.04 138.537 289.426C138.313 289.813 138.201 290.368 138.199 291.094C138.199 291.579 138.249 291.989 138.349 292.324C138.452 292.657 138.597 292.91 138.784 293.082C138.972 293.253 139.197 293.338 139.46 293.338ZM144.624 294.097C144.175 294.095 143.792 293.976 143.474 293.741C143.156 293.507 142.912 293.165 142.744 292.716C142.575 292.267 142.491 291.726 142.491 291.094C142.491 290.463 142.575 289.924 142.744 289.477C142.914 289.03 143.158 288.689 143.477 288.455C143.797 288.22 144.179 288.102 144.624 288.102C145.069 288.102 145.451 288.221 145.769 288.457C146.087 288.692 146.331 289.033 146.499 289.48C146.67 289.925 146.755 290.463 146.755 291.094C146.755 291.728 146.671 292.27 146.502 292.719C146.334 293.166 146.09 293.508 145.772 293.744C145.454 293.979 145.071 294.097 144.624 294.097ZM144.624 293.338C145.018 293.338 145.326 293.146 145.548 292.761C145.771 292.377 145.883 291.821 145.883 291.094C145.883 290.611 145.832 290.203 145.729 289.869C145.629 289.534 145.484 289.28 145.295 289.108C145.107 288.934 144.884 288.847 144.624 288.847C144.232 288.847 143.924 289.04 143.701 289.426C143.478 289.813 143.365 290.368 143.363 291.094C143.363 291.579 143.413 291.989 143.513 292.324C143.616 292.657 143.761 292.91 143.948 293.082C144.136 293.253 144.361 293.338 144.624 293.338Z" fill="white"/>
<path d="M150.138 291.091C150.138 290.379 150.232 289.723 150.42 289.125C150.607 288.527 150.881 287.974 151.241 287.469H152.019C151.879 287.656 151.748 287.886 151.627 288.159C151.506 288.432 151.4 288.731 151.309 289.057C151.218 289.381 151.147 289.717 151.096 290.065C151.045 290.412 151.019 290.754 151.019 291.091C151.019 291.542 151.064 291.998 151.153 292.46C151.242 292.922 151.362 293.351 151.513 293.747C151.665 294.143 151.834 294.466 152.019 294.716H151.241C150.881 294.21 150.607 293.658 150.42 293.06C150.232 292.461 150.138 291.805 150.138 291.091ZM154.929 294.097C154.48 294.095 154.097 293.976 153.778 293.741C153.46 293.507 153.217 293.165 153.048 292.716C152.88 292.267 152.795 291.726 152.795 291.094C152.795 290.463 152.88 289.924 153.048 289.477C153.219 289.03 153.463 288.689 153.781 288.455C154.101 288.22 154.484 288.102 154.929 288.102C155.374 288.102 155.756 288.221 156.074 288.457C156.392 288.692 156.635 289.033 156.804 289.48C156.974 289.925 157.06 290.463 157.06 291.094C157.06 291.728 156.975 292.27 156.807 292.719C156.638 293.166 156.395 293.508 156.077 293.744C155.759 293.979 155.376 294.097 154.929 294.097ZM154.929 293.338C155.323 293.338 155.631 293.146 155.852 292.761C156.076 292.377 156.187 291.821 156.187 291.094C156.187 290.611 156.136 290.203 156.034 289.869C155.934 289.534 155.789 289.28 155.599 289.108C155.412 288.934 155.188 288.847 154.929 288.847C154.537 288.847 154.229 289.04 154.006 289.426C153.782 289.813 153.67 290.368 153.668 291.094C153.668 291.579 153.718 291.989 153.818 292.324C153.92 292.657 154.065 292.91 154.253 293.082C154.44 293.253 154.666 293.338 154.929 293.338ZM158.428 294.054C158.272 294.054 158.139 293.999 158.027 293.889C157.915 293.777 157.859 293.643 157.859 293.486C157.859 293.33 157.915 293.198 158.027 293.088C158.139 292.976 158.272 292.92 158.428 292.92C158.583 292.92 158.716 292.976 158.828 293.088C158.94 293.198 158.996 293.33 158.996 293.486C158.996 293.59 158.969 293.686 158.916 293.773C158.865 293.858 158.797 293.926 158.712 293.977C158.626 294.028 158.532 294.054 158.428 294.054ZM161.893 294.08C161.486 294.08 161.126 294.009 160.813 293.869C160.503 293.729 160.259 293.536 160.083 293.29C159.907 293.044 159.82 292.763 159.822 292.449C159.82 292.203 159.87 291.976 159.972 291.77C160.076 291.562 160.218 291.388 160.396 291.25C160.574 291.11 160.772 291.021 160.992 290.983V290.949C160.702 290.879 160.47 290.723 160.296 290.483C160.122 290.242 160.036 289.966 160.038 289.653C160.036 289.356 160.114 289.091 160.273 288.858C160.434 288.623 160.655 288.438 160.935 288.304C161.216 288.17 161.535 288.102 161.893 288.102C162.247 288.102 162.563 288.17 162.842 288.307C163.122 288.441 163.343 288.626 163.504 288.861C163.665 289.094 163.746 289.358 163.748 289.653C163.746 289.966 163.657 290.242 163.481 290.483C163.305 290.723 163.076 290.879 162.793 290.949V290.983C163.011 291.021 163.207 291.11 163.381 291.25C163.558 291.388 163.698 291.562 163.802 291.77C163.908 291.976 163.962 292.203 163.964 292.449C163.962 292.763 163.873 293.044 163.697 293.29C163.521 293.536 163.276 293.729 162.964 293.869C162.653 294.009 162.296 294.08 161.893 294.08ZM161.893 293.361C162.133 293.361 162.342 293.321 162.518 293.241C162.694 293.16 162.83 293.047 162.927 292.903C163.023 292.758 163.073 292.587 163.075 292.392C163.073 292.189 163.02 292.01 162.915 291.855C162.813 291.7 162.674 291.578 162.498 291.489C162.322 291.4 162.12 291.355 161.893 291.355C161.664 291.355 161.46 291.4 161.282 291.489C161.104 291.578 160.964 291.7 160.862 291.855C160.759 292.01 160.709 292.189 160.711 292.392C160.709 292.587 160.755 292.758 160.85 292.903C160.947 293.047 161.084 293.16 161.262 293.241C161.44 293.321 161.65 293.361 161.893 293.361ZM161.893 290.653C162.086 290.653 162.257 290.615 162.407 290.537C162.557 290.459 162.674 290.351 162.759 290.213C162.846 290.075 162.891 289.913 162.893 289.727C162.891 289.545 162.847 289.386 162.762 289.25C162.679 289.114 162.562 289.009 162.413 288.935C162.263 288.859 162.09 288.821 161.893 288.821C161.692 288.821 161.516 288.859 161.364 288.935C161.215 289.009 161.098 289.114 161.015 289.25C160.932 289.386 160.891 289.545 160.893 289.727C160.891 289.913 160.933 290.075 161.018 290.213C161.103 290.351 161.22 290.459 161.37 290.537C161.522 290.615 161.696 290.653 161.893 290.653ZM165.178 294L167.717 288.977V288.935H164.78V288.182H168.626V288.96L166.095 294H165.178ZM174.768 292.909V292.602C174.768 292.383 174.814 292.182 174.905 292C174.998 291.816 175.132 291.67 175.308 291.56C175.486 291.448 175.701 291.392 175.953 291.392C176.211 291.392 176.427 291.447 176.601 291.557C176.775 291.667 176.907 291.813 176.996 291.997C177.087 292.181 177.132 292.383 177.132 292.602V292.909C177.132 293.129 177.087 293.33 176.996 293.514C176.905 293.696 176.771 293.843 176.595 293.955C176.421 294.064 176.207 294.119 175.953 294.119C175.697 294.119 175.482 294.064 175.305 293.955C175.129 293.843 174.996 293.696 174.905 293.514C174.814 293.33 174.768 293.129 174.768 292.909ZM175.43 292.602V292.909C175.43 293.072 175.469 293.22 175.547 293.352C175.625 293.485 175.76 293.551 175.953 293.551C176.144 293.551 176.278 293.485 176.354 293.352C176.429 293.22 176.467 293.072 176.467 292.909V292.602C176.467 292.439 176.43 292.292 176.357 292.159C176.285 292.027 176.15 291.96 175.953 291.96C175.764 291.96 175.629 292.027 175.55 292.159C175.47 292.292 175.43 292.439 175.43 292.602ZM171.842 289.58V289.273C171.842 289.053 171.888 288.851 171.979 288.668C172.071 288.484 172.206 288.337 172.382 288.227C172.56 288.117 172.775 288.063 173.027 288.063C173.285 288.063 173.5 288.117 173.675 288.227C173.849 288.337 173.981 288.484 174.07 288.668C174.159 288.851 174.203 289.053 174.203 289.273V289.58C174.203 289.799 174.158 290.001 174.067 290.185C173.978 290.366 173.845 290.513 173.669 290.625C173.495 290.735 173.281 290.79 173.027 290.79C172.769 290.79 172.553 290.735 172.376 290.625C172.202 290.513 172.07 290.366 171.979 290.185C171.888 290.001 171.842 289.799 171.842 289.58ZM172.507 289.273V289.58C172.507 289.742 172.545 289.89 172.621 290.023C172.698 290.155 172.834 290.222 173.027 290.222C173.216 290.222 173.349 290.155 173.425 290.023C173.502 289.89 173.541 289.742 173.541 289.58V289.273C173.541 289.11 173.504 288.962 173.43 288.83C173.357 288.697 173.222 288.631 173.027 288.631C172.838 288.631 172.703 288.697 172.624 288.83C172.546 288.962 172.507 289.11 172.507 289.273ZM172.112 294L176.112 288.182H176.791L172.791 294H172.112ZM180.001 291.091C180.001 291.805 179.908 292.461 179.72 293.06C179.533 293.658 179.259 294.21 178.899 294.716H178.121C178.261 294.528 178.392 294.298 178.513 294.026C178.634 293.753 178.74 293.455 178.831 293.131C178.922 292.805 178.993 292.468 179.044 292.119C179.095 291.771 179.121 291.428 179.121 291.091C179.121 290.642 179.076 290.187 178.987 289.724C178.898 289.262 178.778 288.833 178.626 288.438C178.475 288.042 178.306 287.719 178.121 287.469H178.899C179.259 287.974 179.533 288.527 179.72 289.125C179.908 289.723 180.001 290.379 180.001 291.091Z" fill="#1DF81F"/>
<path d="M274.5 294H272.705V288.182H274.58C275.144 288.182 275.627 288.298 276.028 288.531C276.43 288.762 276.738 289.095 276.952 289.528C277.166 289.96 277.273 290.477 277.273 291.08C277.273 291.686 277.165 292.207 276.949 292.645C276.733 293.08 276.419 293.416 276.006 293.651C275.593 293.884 275.091 294 274.5 294ZM273.409 293.375H274.455C274.936 293.375 275.334 293.282 275.651 293.097C275.967 292.911 276.203 292.647 276.358 292.304C276.513 291.961 276.591 291.553 276.591 291.08C276.591 290.61 276.514 290.205 276.361 289.866C276.207 289.526 275.978 289.264 275.673 289.082C275.368 288.899 274.989 288.807 274.534 288.807H273.409V293.375ZM280.193 294.091C279.773 294.091 279.41 293.998 279.105 293.813C278.802 293.625 278.568 293.364 278.403 293.028C278.241 292.691 278.159 292.299 278.159 291.852C278.159 291.405 278.241 291.011 278.403 290.67C278.568 290.328 278.797 290.061 279.091 289.869C279.386 289.676 279.731 289.58 280.125 289.58C280.352 289.58 280.577 289.617 280.798 289.693C281.02 289.769 281.222 289.892 281.403 290.063C281.585 290.231 281.73 290.455 281.838 290.733C281.946 291.011 282 291.354 282 291.761V292.045H278.636V291.466H281.318C281.318 291.22 281.269 291 281.17 290.807C281.074 290.614 280.936 290.461 280.756 290.349C280.578 290.238 280.367 290.182 280.125 290.182C279.858 290.182 279.627 290.248 279.432 290.381C279.239 290.511 279.09 290.682 278.986 290.892C278.882 291.102 278.83 291.328 278.83 291.568V291.955C278.83 292.284 278.886 292.563 279 292.793C279.116 293.02 279.276 293.193 279.48 293.313C279.685 293.43 279.922 293.489 280.193 293.489C280.369 293.489 280.528 293.464 280.67 293.415C280.814 293.364 280.938 293.288 281.043 293.188C281.147 293.085 281.227 292.958 281.284 292.807L281.932 292.989C281.864 293.208 281.749 293.402 281.588 293.568C281.427 293.733 281.228 293.862 280.991 293.955C280.755 294.045 280.489 294.091 280.193 294.091ZM283.69 288.182V294H283.02V288.182H283.69ZM286.816 289.636V290.205H284.555V289.636H286.816ZM285.214 288.591H285.884V292.75C285.884 292.939 285.912 293.081 285.967 293.176C286.023 293.269 286.095 293.331 286.183 293.364C286.272 293.394 286.365 293.409 286.464 293.409C286.538 293.409 286.598 293.405 286.646 293.398C286.693 293.388 286.731 293.381 286.759 293.375L286.896 293.977C286.85 293.994 286.787 294.011 286.705 294.028C286.624 294.047 286.521 294.057 286.396 294.057C286.206 294.057 286.021 294.016 285.839 293.935C285.659 293.853 285.509 293.729 285.39 293.563C285.272 293.396 285.214 293.186 285.214 292.932V288.591ZM289.109 294.102C288.832 294.102 288.581 294.05 288.356 293.946C288.13 293.84 287.951 293.688 287.819 293.489C287.686 293.288 287.62 293.045 287.62 292.761C287.62 292.511 287.669 292.309 287.768 292.153C287.866 291.996 287.998 291.873 288.163 291.784C288.327 291.695 288.509 291.629 288.708 291.585C288.909 291.54 289.111 291.504 289.313 291.477C289.578 291.443 289.793 291.418 289.958 291.401C290.125 291.382 290.246 291.35 290.322 291.307C290.399 291.263 290.438 291.188 290.438 291.08V291.057C290.438 290.777 290.362 290.559 290.208 290.403C290.057 290.248 289.826 290.17 289.518 290.17C289.198 290.17 288.947 290.241 288.765 290.381C288.583 290.521 288.455 290.67 288.381 290.83L287.745 290.602C287.859 290.337 288.01 290.131 288.2 289.983C288.391 289.833 288.599 289.729 288.825 289.67C289.052 289.61 289.275 289.58 289.495 289.58C289.635 289.58 289.796 289.597 289.978 289.631C290.162 289.663 290.339 289.73 290.509 289.832C290.682 289.935 290.825 290.089 290.938 290.295C291.052 290.502 291.109 290.778 291.109 291.125V294H290.438V293.409H290.404C290.359 293.504 290.283 293.605 290.177 293.713C290.071 293.821 289.93 293.913 289.754 293.989C289.577 294.064 289.362 294.102 289.109 294.102ZM289.211 293.5C289.476 293.5 289.7 293.448 289.881 293.344C290.065 293.24 290.203 293.105 290.296 292.94C290.391 292.776 290.438 292.602 290.438 292.42V291.807C290.41 291.841 290.347 291.872 290.251 291.901C290.156 291.927 290.046 291.951 289.921 291.972C289.798 291.991 289.678 292.008 289.56 292.023C289.445 292.036 289.351 292.047 289.279 292.057C289.105 292.08 288.942 292.116 288.79 292.168C288.641 292.217 288.52 292.292 288.427 292.392C288.336 292.491 288.29 292.625 288.29 292.795C288.29 293.028 288.377 293.205 288.549 293.324C288.723 293.441 288.944 293.5 289.211 293.5Z" fill="#9096A1"/>
<path d="M298.585 294.097C298.136 294.095 297.753 293.976 297.435 293.741C297.116 293.507 296.873 293.165 296.705 292.716C296.536 292.267 296.452 291.726 296.452 291.094C296.452 290.463 296.536 289.924 296.705 289.477C296.875 289.03 297.119 288.689 297.437 288.455C297.758 288.22 298.14 288.102 298.585 288.102C299.03 288.102 299.412 288.221 299.73 288.457C300.048 288.692 300.292 289.033 300.46 289.48C300.631 289.925 300.716 290.463 300.716 291.094C300.716 291.728 300.632 292.27 300.463 292.719C300.295 293.166 300.051 293.508 299.733 293.744C299.415 293.979 299.032 294.097 298.585 294.097ZM298.585 293.338C298.979 293.338 299.287 293.146 299.509 292.761C299.732 292.377 299.844 291.821 299.844 291.094C299.844 290.611 299.793 290.203 299.69 289.869C299.59 289.534 299.445 289.28 299.256 289.108C299.068 288.934 298.845 288.847 298.585 288.847C298.193 288.847 297.885 289.04 297.662 289.426C297.438 289.813 297.326 290.368 297.324 291.094C297.324 291.579 297.374 291.989 297.474 292.324C297.577 292.657 297.722 292.91 297.909 293.082C298.097 293.253 298.322 293.338 298.585 293.338ZM302.084 294.054C301.929 294.054 301.795 293.999 301.683 293.889C301.571 293.777 301.516 293.643 301.516 293.486C301.516 293.33 301.571 293.198 301.683 293.088C301.795 292.976 301.929 292.92 302.084 292.92C302.239 292.92 302.373 292.976 302.484 293.088C302.596 293.198 302.652 293.33 302.652 293.486C302.652 293.59 302.625 293.686 302.572 293.773C302.521 293.858 302.453 293.926 302.368 293.977C302.283 294.028 302.188 294.054 302.084 294.054ZM303.656 292.864V292.153L306.17 288.182H306.73V289.227H306.375L304.577 292.074V292.119H308.023V292.864H303.656ZM306.415 294V292.648L306.42 292.324V288.182H307.253V294H306.415ZM308.891 292.864V292.153L311.405 288.182H311.964V289.227H311.609L309.811 292.074V292.119H313.257V292.864H308.891ZM311.649 294V292.648L311.655 292.324V288.182H312.487V294H311.649Z" fill="white"/>
<path d="M202.386 288.807V288.182H206.75V288.807H204.92V294H204.216V288.807H202.386ZM208.417 291.375V294H207.746V288.182H208.417V290.318H208.474C208.576 290.093 208.729 289.914 208.934 289.781C209.14 289.647 209.415 289.58 209.758 289.58C210.055 289.58 210.316 289.639 210.539 289.759C210.763 289.876 210.936 290.057 211.059 290.301C211.184 290.544 211.246 290.852 211.246 291.227V294H210.576V291.273C210.576 290.926 210.486 290.658 210.306 290.469C210.128 290.277 209.881 290.182 209.565 290.182C209.345 290.182 209.148 290.228 208.974 290.321C208.801 290.414 208.665 290.549 208.565 290.727C208.466 290.905 208.417 291.121 208.417 291.375ZM214.303 294.091C213.882 294.091 213.519 293.998 213.214 293.813C212.911 293.625 212.678 293.364 212.513 293.028C212.35 292.691 212.268 292.299 212.268 291.852C212.268 291.405 212.35 291.011 212.513 290.67C212.678 290.328 212.907 290.061 213.2 289.869C213.496 289.676 213.84 289.58 214.234 289.58C214.462 289.58 214.686 289.617 214.908 289.693C215.129 289.769 215.331 289.892 215.513 290.063C215.695 290.231 215.839 290.455 215.947 290.733C216.055 291.011 216.109 291.354 216.109 291.761V292.045H212.746V291.466H215.428C215.428 291.22 215.378 291 215.28 290.807C215.183 290.614 215.045 290.461 214.865 290.349C214.687 290.238 214.477 290.182 214.234 290.182C213.967 290.182 213.736 290.248 213.541 290.381C213.348 290.511 213.199 290.682 213.095 290.892C212.991 291.102 212.939 291.328 212.939 291.568V291.955C212.939 292.284 212.996 292.563 213.109 292.793C213.225 293.02 213.385 293.193 213.589 293.313C213.794 293.43 214.032 293.489 214.303 293.489C214.479 293.489 214.638 293.464 214.78 293.415C214.924 293.364 215.048 293.288 215.152 293.188C215.256 293.085 215.337 292.958 215.393 292.807L216.041 292.989C215.973 293.208 215.858 293.402 215.697 293.568C215.536 293.733 215.338 293.862 215.101 293.955C214.864 294.045 214.598 294.091 214.303 294.091ZM219.027 289.636V290.205H216.766V289.636H219.027ZM217.425 288.591H218.095V292.75C218.095 292.939 218.123 293.081 218.178 293.176C218.234 293.269 218.306 293.331 218.393 293.364C218.482 293.394 218.576 293.409 218.675 293.409C218.749 293.409 218.809 293.405 218.857 293.398C218.904 293.388 218.942 293.381 218.97 293.375L219.107 293.977C219.061 293.994 218.998 294.011 218.916 294.028C218.835 294.047 218.732 294.057 218.607 294.057C218.417 294.057 218.232 294.016 218.05 293.935C217.87 293.853 217.72 293.729 217.601 293.563C217.483 293.396 217.425 293.186 217.425 292.932V288.591ZM221.32 294.102C221.043 294.102 220.792 294.05 220.567 293.946C220.341 293.84 220.162 293.688 220.03 293.489C219.897 293.288 219.831 293.045 219.831 292.761C219.831 292.511 219.88 292.309 219.979 292.153C220.077 291.996 220.209 291.873 220.374 291.784C220.538 291.695 220.72 291.629 220.919 291.585C221.12 291.54 221.321 291.504 221.524 291.477C221.789 291.443 222.004 291.418 222.169 291.401C222.336 291.382 222.457 291.35 222.533 291.307C222.61 291.263 222.649 291.188 222.649 291.08V291.057C222.649 290.777 222.572 290.559 222.419 290.403C222.268 290.248 222.037 290.17 221.729 290.17C221.409 290.17 221.158 290.241 220.976 290.381C220.794 290.521 220.666 290.67 220.592 290.83L219.956 290.602C220.07 290.337 220.221 290.131 220.411 289.983C220.602 289.833 220.81 289.729 221.036 289.67C221.263 289.61 221.486 289.58 221.706 289.58C221.846 289.58 222.007 289.597 222.189 289.631C222.373 289.663 222.55 289.73 222.72 289.832C222.893 289.935 223.036 290.089 223.149 290.295C223.263 290.502 223.32 290.778 223.32 291.125V294H222.649V293.409H222.615C222.57 293.504 222.494 293.605 222.388 293.713C222.282 293.821 222.141 293.913 221.964 293.989C221.788 294.064 221.573 294.102 221.32 294.102ZM221.422 293.5C221.687 293.5 221.911 293.448 222.092 293.344C222.276 293.24 222.414 293.105 222.507 292.94C222.602 292.776 222.649 292.602 222.649 292.42V291.807C222.621 291.841 222.558 291.872 222.462 291.901C222.367 291.927 222.257 291.951 222.132 291.972C222.009 291.991 221.889 292.008 221.771 292.023C221.656 292.036 221.562 292.047 221.49 292.057C221.316 292.08 221.153 292.116 221.001 292.168C220.852 292.217 220.731 292.292 220.638 292.392C220.547 292.491 220.501 292.625 220.501 292.795C220.501 293.028 220.588 293.205 220.76 293.324C220.934 293.441 221.155 293.5 221.422 293.5Z" fill="#9096A1"/>
<path d="M230.585 294.097C230.136 294.095 229.753 293.976 229.435 293.741C229.116 293.507 228.873 293.165 228.705 292.716C228.536 292.267 228.452 291.726 228.452 291.094C228.452 290.463 228.536 289.924 228.705 289.477C228.875 289.03 229.119 288.689 229.437 288.455C229.758 288.22 230.14 288.102 230.585 288.102C231.03 288.102 231.412 288.221 231.73 288.457C232.048 288.692 232.292 289.033 232.46 289.48C232.631 289.925 232.716 290.463 232.716 291.094C232.716 291.728 232.632 292.27 232.463 292.719C232.295 293.166 232.051 293.508 231.733 293.744C231.415 293.979 231.032 294.097 230.585 294.097ZM230.585 293.338C230.979 293.338 231.287 293.146 231.509 292.761C231.732 292.377 231.844 291.821 231.844 291.094C231.844 290.611 231.793 290.203 231.69 289.869C231.59 289.534 231.445 289.28 231.256 289.108C231.068 288.934 230.845 288.847 230.585 288.847C230.193 288.847 229.885 289.04 229.662 289.426C229.438 289.813 229.326 290.368 229.324 291.094C229.324 291.579 229.374 291.989 229.474 292.324C229.577 292.657 229.722 292.91 229.909 293.082C230.097 293.253 230.322 293.338 230.585 293.338ZM234.084 294.054C233.929 294.054 233.795 293.999 233.683 293.889C233.571 293.777 233.516 293.643 233.516 293.486C233.516 293.33 233.571 293.198 233.683 293.088C233.795 292.976 233.929 292.92 234.084 292.92C234.239 292.92 234.373 292.976 234.484 293.088C234.596 293.198 234.652 293.33 234.652 293.486C234.652 293.59 234.625 293.686 234.572 293.773C234.521 293.858 234.453 293.926 234.368 293.977C234.283 294.028 234.188 294.054 234.084 294.054ZM235.656 292.864V292.153L238.17 288.182H238.73V289.227H238.375L236.577 292.074V292.119H240.023V292.864H235.656ZM238.415 294V292.648L238.42 292.324V288.182H239.253V294H238.415ZM240.891 292.864V292.153L243.405 288.182H243.964V289.227H243.609L241.811 292.074V292.119H245.257V292.864H240.891ZM243.649 294V292.648L243.655 292.324V288.182H244.487V294H243.649Z" fill="white"/>
<path d="M6.2168 280.194H50.2129C53.5391 280.194 56.2362 282.891 56.2363 286.217V295.543C56.2362 298.869 53.5391 301.565 50.2129 301.565H6.2168C2.89074 301.565 0.194509 298.869 0.194336 295.543V286.217C0.194478 282.891 2.89072 280.194 6.2168 280.194Z" fill="white" stroke="#2F2F2F" stroke-width="0.388566"/>
<path d="M23.8431 289.423H22.8098C22.7701 289.203 22.6961 289.008 22.588 288.84C22.4798 288.673 22.3473 288.53 22.1906 288.413C22.0338 288.296 21.8583 288.208 21.664 288.148C21.4719 288.089 21.2677 288.059 21.0514 288.059C20.6606 288.059 20.3106 288.157 20.0016 288.354C19.6947 288.55 19.4518 288.838 19.273 289.218C19.0964 289.598 19.0081 290.061 19.0081 290.609C19.0081 291.161 19.0964 291.627 19.273 292.006C19.4518 292.386 19.6958 292.673 20.0049 292.867C20.314 293.062 20.6617 293.159 21.048 293.159C21.2622 293.159 21.4653 293.13 21.6574 293.073C21.8517 293.013 22.0272 292.926 22.1839 292.811C22.3407 292.696 22.4732 292.556 22.5813 292.391C22.6917 292.223 22.7679 292.031 22.8098 291.814L23.8431 291.818C23.7879 292.151 23.6808 292.458 23.5218 292.738C23.3651 293.016 23.1631 293.257 22.9158 293.46C22.6707 293.661 22.3904 293.817 22.0747 293.927C21.7589 294.038 21.4145 294.093 21.0414 294.093C20.4542 294.093 19.9309 293.954 19.4717 293.675C19.0125 293.395 18.6504 292.994 18.3855 292.473C18.1228 291.952 17.9914 291.331 17.9914 290.609C17.9914 289.885 18.1239 289.263 18.3888 288.744C18.6537 288.223 19.0158 287.824 19.475 287.546C19.9342 287.265 20.4564 287.125 21.0414 287.125C21.4013 287.125 21.7369 287.177 22.0482 287.281C22.3617 287.382 22.6432 287.532 22.8926 287.731C23.1421 287.928 23.3485 288.168 23.5119 288.453C23.6753 288.736 23.7857 289.059 23.8431 289.423ZM26.4684 294.113C26.146 294.113 25.8546 294.053 25.5941 293.934C25.3336 293.812 25.1272 293.637 24.9748 293.407C24.8247 293.178 24.7496 292.896 24.7496 292.563C24.7496 292.276 24.8048 292.04 24.9152 291.854C25.0256 291.669 25.1746 291.522 25.3623 291.414C25.5499 291.305 25.7597 291.224 25.9915 291.169C26.2233 291.113 26.4595 291.071 26.7002 291.043C27.0049 291.007 27.2521 290.979 27.442 290.957C27.6319 290.932 27.7699 290.894 27.856 290.841C27.9421 290.788 27.9851 290.702 27.9851 290.582V290.559C27.9851 290.27 27.9034 290.046 27.74 289.887C27.5789 289.728 27.3382 289.648 27.0181 289.648C26.6847 289.648 26.422 289.722 26.2299 289.87C26.0401 290.016 25.9087 290.178 25.8359 290.357L24.9053 290.145C25.0157 289.836 25.1768 289.587 25.3888 289.397C25.6029 289.205 25.8491 289.066 26.1273 288.98C26.4055 288.891 26.698 288.847 27.0049 288.847C27.208 288.847 27.4232 288.871 27.6506 288.92C27.8802 288.966 28.0944 289.052 28.2931 289.178C28.494 289.304 28.6585 289.484 28.7865 289.718C28.9146 289.95 28.9786 290.251 28.9786 290.622V294H28.0116V293.305H27.9719C27.9078 293.433 27.8118 293.558 27.6837 293.682C27.5557 293.806 27.3912 293.908 27.1903 293.99C26.9894 294.072 26.7488 294.113 26.4684 294.113ZM26.6836 293.318C26.9574 293.318 27.1914 293.264 27.3857 293.156C27.5822 293.047 27.7312 292.906 27.8328 292.732C27.9365 292.555 27.9884 292.366 27.9884 292.165V291.51C27.9531 291.545 27.8847 291.578 27.7831 291.609C27.6837 291.638 27.57 291.663 27.442 291.685C27.3139 291.705 27.1892 291.724 27.0678 291.741C26.9464 291.757 26.8448 291.77 26.7631 291.781C26.571 291.805 26.3955 291.846 26.2366 291.904C26.0798 291.961 25.954 292.044 25.859 292.152C25.7663 292.258 25.7199 292.399 25.7199 292.576C25.7199 292.821 25.8105 293.007 25.9915 293.132C26.1725 293.256 26.4032 293.318 26.6836 293.318ZM31.2876 287.218V294H30.2975V287.218H31.2876ZM33.6099 287.218V294H32.6198V287.218H33.6099Z" fill="#131517"/>
<circle cx="8.2905" cy="290.726" r="2.2905" fill="#138808"/>
<path d="M46.5322 293.337C46.4525 293.335 46.3796 293.319 46.3135 293.289C46.2474 293.259 46.1836 293.214 46.1221 293.152L42.8066 289.728C42.7087 289.63 42.6597 289.509 42.6597 289.365C42.6597 289.27 42.6825 289.183 42.728 289.105C42.7736 289.026 42.8351 288.963 42.9126 288.917C42.9901 288.87 43.0767 288.846 43.1724 288.846C43.3136 288.846 43.4378 288.899 43.5449 289.006L46.5288 292.103L49.5161 289.006C49.6255 288.899 49.7497 288.846 49.8887 288.846C49.9867 288.846 50.0744 288.87 50.1519 288.917C50.2293 288.963 50.2909 289.026 50.3364 289.105C50.3843 289.183 50.4082 289.27 50.4082 289.365C50.4082 289.509 50.3581 289.63 50.2578 289.728L46.9424 293.152C46.8809 293.216 46.8171 293.263 46.751 293.292C46.6826 293.322 46.6097 293.337 46.5322 293.337Z" fill="#131517"/>
</svg>
