<svg width="23" height="23" viewBox="0 0 23 23" fill="none" xmlns="http://www.w3.org/2000/svg">
<path d="M19.6269 7.81115L13.6081 2.97485C12.4319 2.03344 10.5941 2.02421 9.42715 2.96562L3.40837 7.81115C2.54461 8.50337 2.02084 9.88781 2.20462 10.9769L3.36243 17.936C3.62891 19.4958 5.07158 20.7233 6.64289 20.7233H16.3832C17.9361 20.7233 19.4064 19.4681 19.6729 17.9268L20.8307 10.9677C20.9961 9.88781 20.4723 8.50337 19.6269 7.81115ZM12.2022 17.0315C12.2022 17.4099 11.8898 17.7237 11.513 17.7237C11.1363 17.7237 10.8239 17.4099 10.8239 17.0315V14.2626C10.8239 13.8842 11.1363 13.5704 11.513 13.5704C11.8898 13.5704 12.2022 13.8842 12.2022 14.2626V17.0315Z" fill="#A2A2A2"/>
</svg>
