<svg width="81" height="80" viewBox="0 0 81 80" fill="none" xmlns="http://www.w3.org/2000/svg">
<path opacity="0.5" d="M81 20H61V0L81 20Z" fill="#AEB4BC"/>
<path opacity="0.2" fill-rule="evenodd" clip-rule="evenodd" d="M21 0H61V20H81V80H21V0ZM31 30H71V34H31V30ZM71 38H31V42H71V38ZM31 46H71V50H31V46Z" fill="#55555F"/>
<path fill-rule="evenodd" clip-rule="evenodd" d="M19.137 56.105C26.965 61.886 38.053 61.232 45.142 54.142C52.952 46.332 52.952 33.668 45.142 25.858C37.332 18.048 24.668 18.048 16.858 25.858C9.76799 32.948 9.11399 44.035 14.894 51.863L0.593994 66.163L4.83699 70.406L19.137 56.105ZM40.9 49.9C35.433 55.368 26.569 55.368 21.101 49.9C15.634 44.433 15.634 35.569 21.101 30.101C26.569 24.634 35.433 24.634 40.901 30.101C46.368 35.569 46.368 44.433 40.901 49.901L40.9 49.9Z" fill="#AEB4BC"/>
</svg>
