<svg width="23" height="23" viewBox="0 0 23 23" fill="none" xmlns="http://www.w3.org/2000/svg">
<path fill-rule="evenodd" clip-rule="evenodd" d="M4.79341 7.94745C6.20296 4.69319 9.71892 2.72113 13.3516 3.39523C17.2818 4.12454 19.9723 7.69563 19.6944 11.5918C19.6601 12.0668 20.0185 12.4806 20.4946 12.5151C20.9707 12.5496 21.3848 12.1901 21.418 11.7149C21.7589 6.9523 18.4706 2.58668 13.6671 1.6953C9.2269 0.871355 4.92924 3.28307 3.2065 7.25954C3.01633 7.69793 3.21862 8.20696 3.65597 8.39692C4.09352 8.58582 4.60344 8.38479 4.79341 7.94745Z" fill="#55555F"/>
<path fill-rule="evenodd" clip-rule="evenodd" d="M4.81674 7.31073L4.13699 5.38986C3.97751 4.94124 3.48341 4.70544 3.03432 4.86363C2.58437 5.0214 2.34439 5.52421 2.50473 5.97324L3.18448 7.8941C3.34396 8.34272 3.83807 8.57852 4.28715 8.42034C4.73711 8.26256 4.97708 7.75976 4.81674 7.31073Z" fill="#55555F"/>
<path fill-rule="evenodd" clip-rule="evenodd" d="M4.28368 8.42184L6.20462 7.74211C6.65458 7.58434 6.89455 7.08153 6.73421 6.6325C6.57473 6.18389 6.08063 5.94808 5.63154 6.10627L3.7106 6.78599C3.26065 6.94377 3.02067 7.44657 3.18101 7.8956C3.34049 8.34422 3.83459 8.58002 4.28368 8.42184Z" fill="#55555F"/>
<path fill-rule="evenodd" clip-rule="evenodd" d="M19.0319 14.7008L19.5593 16.669C19.6832 17.1287 20.1573 17.4024 20.6174 17.2799C21.0783 17.1578 21.3569 16.6753 21.2322 16.2151L20.7048 14.2469C20.5809 13.7872 20.1068 13.5135 19.6467 13.636C19.1857 13.7581 18.9072 14.2406 19.0319 14.7008Z" fill="#55555F"/>
<path fill-rule="evenodd" clip-rule="evenodd" d="M19.6464 13.6279L17.6782 14.1553C17.2173 14.2774 16.9387 14.7599 17.0634 15.2201C17.1873 15.6798 17.6615 15.9535 18.1215 15.8309L20.0898 15.3036C20.5507 15.1815 20.8293 14.699 20.7045 14.2388C20.5807 13.7791 20.1065 13.5053 19.6464 13.6279Z" fill="#55555F"/>
<path fill-rule="evenodd" clip-rule="evenodd" d="M19.0727 14.1276C17.6673 17.3892 14.147 19.3671 10.509 18.692C6.57245 17.9615 3.8794 14.3801 4.16847 10.4771C4.20277 10.0021 3.84558 9.58745 3.36969 9.5519C2.89379 9.51634 2.4789 9.87456 2.44334 10.3504C2.0911 15.1209 5.38255 19.4992 10.1935 20.3919C14.6401 21.217 18.9423 18.7985 20.6602 14.8123C20.8493 14.3737 20.647 13.8647 20.2095 13.6758C19.7707 13.4878 19.2616 13.6901 19.0727 14.1276Z" fill="#55555F"/>
<path fill-rule="evenodd" clip-rule="evenodd" d="M4.06652 11.7536H19.7969C20.1873 11.7536 20.504 11.4364 20.504 11.0465C20.504 10.6566 20.1873 10.3394 19.7969 10.3394H4.06652C3.67613 10.3394 3.35938 10.6566 3.35938 11.0465C3.35938 11.4364 3.67613 11.7536 4.06652 11.7536Z" fill="#55555F"/>
<path fill-rule="evenodd" clip-rule="evenodd" d="M12.4466 18.9297C10.3701 17.3624 9.02245 14.4438 9.02245 11.0435C9.02245 7.64323 10.3783 4.74095 12.4541 3.17367C12.8386 2.88353 12.9153 2.3358 12.6246 1.95075C12.3339 1.56662 11.7864 1.48979 11.4012 1.77993C8.94977 3.63102 7.27539 7.02771 7.27539 11.0435C7.27539 15.0594 8.9423 18.4723 11.3938 20.3234C11.7789 20.6136 12.3271 20.5376 12.6171 20.1526C12.9078 19.7685 12.8311 19.2198 12.4466 18.9297Z" fill="#55555F"/>
<path fill-rule="evenodd" clip-rule="evenodd" d="M11.4055 3.16384C13.427 4.75282 14.7509 7.69577 14.7509 11.0437C14.7509 14.4015 13.4188 17.3526 11.3865 18.9379C11.0068 19.2344 10.9389 19.7839 11.2357 20.1636C11.5318 20.5441 12.0807 20.6119 12.4611 20.3154C14.8555 18.4471 16.4979 15.0007 16.4979 11.0437C16.4979 7.10013 14.8663 3.66277 12.4849 1.79089C12.1058 1.49261 11.5563 1.55859 11.2588 1.93731C10.9606 2.31603 11.0265 2.86557 11.4055 3.16384Z" fill="#55555F"/>
</svg>
