<svg width="14" height="14" viewBox="0 0 14 14" fill="none" xmlns="http://www.w3.org/2000/svg">
<path d="M0.666992 12.5039H12.667C12.711 12.504 12.753 12.5216 12.7842 12.5527C12.8154 12.584 12.833 12.6267 12.833 12.6709C12.8329 12.715 12.8153 12.7569 12.7842 12.7881C12.753 12.8193 12.7111 12.8368 12.667 12.8369H0.666992C0.622788 12.8369 0.580083 12.8193 0.548828 12.7881C0.517748 12.7569 0.500096 12.7149 0.5 12.6709C0.5 12.6267 0.517585 12.584 0.548828 12.5527C0.580083 12.5215 0.622788 12.5039 0.666992 12.5039ZM2.16699 7.24316V9.83691H4.76074L9.21387 5.38379L6.62012 2.79004L2.16699 7.24316ZM6.85254 2.55762L9.44629 5.15137L11.1006 3.49707L8.50684 0.90332L6.85254 2.55762ZM1.83301 7.17383C1.83294 7.15206 1.83748 7.1305 1.8457 7.11035L1.88184 7.05566L6.50684 2.4375L6.50781 2.43652L8.3877 0.549805L8.38867 0.548828C8.40405 0.533427 8.4223 0.521082 8.44238 0.512695C8.46269 0.504234 8.48483 0.5 8.50684 0.5C8.52863 0.500022 8.55018 0.504372 8.57031 0.512695C8.5901 0.520937 8.60878 0.532799 8.62402 0.547852V0.548828L11.4512 3.4082L11.4541 3.41211C11.4697 3.42761 11.4828 3.44649 11.4912 3.4668C11.4995 3.48692 11.5039 3.50849 11.5039 3.53027C11.5039 3.55228 11.4997 3.57442 11.4912 3.59473C11.4828 3.61502 11.4697 3.63295 11.4541 3.64844L9.56348 5.5L9.55957 5.50391L4.94824 10.1221C4.93267 10.1375 4.91386 10.1499 4.89355 10.1582C4.87325 10.1665 4.85104 10.171 4.8291 10.1709H2C1.95581 10.1709 1.91309 10.1533 1.88184 10.1221C1.85059 10.0908 1.83302 10.0481 1.83301 10.0039V7.17383Z" fill="#111111" fill-opacity="0.0666667" stroke="black"/>
</svg>
