<svg width="25" height="25" viewBox="0 0 25 25" fill="none" xmlns="http://www.w3.org/2000/svg">
<g clip-path="url(#clip0_3448_56653)">
<path d="M12.5996 24.918C19.227 24.918 24.5996 19.5454 24.5996 12.918C24.5996 6.29055 19.227 0.917969 12.5996 0.917969C5.97219 0.917969 0.599609 6.29055 0.599609 12.918C0.599609 19.5454 5.97219 24.918 12.5996 24.918Z" fill="#131517"/>
<path d="M12.5992 11.5598C14.779 11.5598 16.5461 9.79269 16.5461 7.61289C16.5461 5.43309 14.779 3.66602 12.5992 3.66602C10.4194 3.66602 8.65234 5.43309 8.65234 7.61289C8.65234 9.79269 10.4194 11.5598 12.5992 11.5598Z" fill="#fff"/>
<path d="M12.599 22.1692C11.1489 22.1692 9.73778 21.6998 8.5766 20.8312C7.41542 19.9626 6.56657 18.7415 6.15696 17.3505C5.45008 14.95 7.24961 12.543 9.75227 12.543H15.4457C17.9484 12.543 19.7479 14.9491 19.041 17.3495C18.6316 18.7407 17.7828 19.962 16.6216 20.8308C15.4604 21.6996 14.0492 22.1691 12.599 22.1692Z" fill="#fff"/>
</g>
<defs>
<clipPath id="clip0_3448_56653">
<rect width="24" height="24" fill="#131517" transform="translate(0.599609 0.917969)"/>
</clipPath>
</defs>
</svg>
