<svg width="21" height="23" viewBox="0 0 21 23" fill="none" xmlns="http://www.w3.org/2000/svg">
<path d="M13.4785 5.375H7.47852C7.2796 5.375 7.08884 5.29598 6.94819 5.15533C6.80753 5.01468 6.72852 4.82391 6.72852 4.625V3.625C6.72905 2.89582 7.01895 2.19665 7.53456 1.68104C8.05017 1.16543 8.74933 0.87553 9.47852 0.875H11.4785C12.2077 0.87553 12.9069 1.16543 13.4225 1.68104C13.9381 2.19665 14.228 2.89582 14.2285 3.625V4.625C14.2285 4.82391 14.1495 5.01468 14.0088 5.15533C13.8682 5.29598 13.6774 5.375 13.4785 5.375ZM8.22852 3.875H12.7285V3.625C12.728 3.29364 12.5961 2.97601 12.3618 2.7417C12.1275 2.50739 11.8099 2.37553 11.4785 2.375H9.47852C9.14716 2.37553 8.82952 2.50739 8.59522 2.7417C8.36091 2.97601 8.22904 3.29364 8.22852 3.625V3.875Z" fill="white"/>
<path d="M15.4785 22.375H5.47852C4.74933 22.3745 4.05017 22.0846 3.53456 21.569C3.01895 21.0533 2.72905 20.3542 2.72852 19.625V8.625C2.72852 8.42609 2.80753 8.23532 2.94819 8.09467C3.08884 7.95402 3.2796 7.875 3.47852 7.875C3.67743 7.875 3.86819 7.95402 4.00885 8.09467C4.1495 8.23532 4.22852 8.42609 4.22852 8.625V19.625C4.22904 19.9564 4.36091 20.274 4.59522 20.5083C4.82952 20.7426 5.14716 20.8745 5.47852 20.875H15.4785C15.8099 20.8745 16.1275 20.7426 16.3618 20.5083C16.5961 20.274 16.728 19.9564 16.7285 19.625V13.625C16.7285 13.4261 16.8075 13.2353 16.9482 13.0947C17.0888 12.954 17.2796 12.875 17.4785 12.875C17.6774 12.875 17.8682 12.954 18.0088 13.0947C18.1495 13.2353 18.2285 13.4261 18.2285 13.625V19.625C18.228 20.3542 17.9381 21.0533 17.4225 21.569C16.9069 22.0846 16.2077 22.3745 15.4785 22.375Z" fill="white"/>
<path d="M17.4785 9.26562H3.47852C2.74917 9.26562 2.0497 8.97589 1.53397 8.46017C1.01825 7.94444 0.728516 7.24497 0.728516 6.51562C0.728516 5.78628 1.01825 5.08681 1.53397 4.57108C2.0497 4.05536 2.74917 3.76562 3.47852 3.76562H17.4785C18.2079 3.76562 18.9073 4.05536 19.4231 4.57108C19.9388 5.08681 20.2285 5.78628 20.2285 6.51562C20.2285 7.24497 19.9388 7.94444 19.4231 8.46017C18.9073 8.97589 18.2079 9.26562 17.4785 9.26562ZM3.47852 5.26562C3.147 5.26562 2.82905 5.39732 2.59463 5.63174C2.36021 5.86616 2.22852 6.1841 2.22852 6.51562C2.22852 6.84715 2.36021 7.16509 2.59463 7.39951C2.82905 7.63393 3.147 7.76562 3.47852 7.76562H17.4785C17.81 7.76562 18.128 7.63393 18.3624 7.39951C18.5968 7.16509 18.7285 6.84715 18.7285 6.51562C18.7285 6.1841 18.5968 5.86616 18.3624 5.63174C18.128 5.39732 17.81 5.26562 17.4785 5.26562H3.47852ZM17.4785 13.2853C17.2796 13.2853 17.1407 14.1407 17 14C16.8593 13.8593 16.7285 13.8469 16.7285 13.648V9.26562C16.7285 9.06671 16.8593 9.14065 17 9C17.1407 8.85935 17.3011 8.89062 17.5 8.89062C17.6989 8.89062 17.8593 8.74997 18 8.89062C18.1407 9.03128 18.2285 10.3167 18.2285 10.5156V13.5508C18.2285 13.7497 18 14 18.2285 13.9345C18.0879 14.0752 17.6774 13.2853 17.4785 13.2853Z" fill="white"/>
<path d="M12.4785 17.375C12.2796 17.375 12.0888 17.296 11.9482 17.1553C11.8075 17.0147 11.7285 16.8239 11.7285 16.625V12.625C11.7285 12.4261 11.8075 12.2353 11.9482 12.0947C12.0888 11.954 12.2796 11.875 12.4785 11.875C12.6774 11.875 12.8682 11.954 13.0088 12.0947C13.1495 12.2353 13.2285 12.4261 13.2285 12.625V16.625C13.2285 16.8239 13.1495 17.0147 13.0088 17.1553C12.8682 17.296 12.6774 17.375 12.4785 17.375ZM8.47852 17.375C8.2796 17.375 8.08884 17.296 7.94819 17.1553C7.80753 17.0147 7.72852 16.8239 7.72852 16.625V12.625C7.72852 12.4261 7.80753 12.2353 7.94819 12.0947C8.08884 11.954 8.2796 11.875 8.47852 11.875C8.67743 11.875 8.86819 11.954 9.00885 12.0947C9.1495 12.2353 9.22852 12.4261 9.22852 12.625V16.625C9.22852 16.8239 9.1495 17.0147 9.00885 17.1553C8.86819 17.296 8.67743 17.375 8.47852 17.375Z" fill="white"/>
</svg>
